<svg width="34" height="24" viewBox="0 0 34 24" fill="none" xmlns="http://www.w3.org/2000/svg">
<path d="M15.2779 8.01172C14.6272 9.23176 14.6706 10.6962 14.6706 12.0385C14.6706 13.7503 14.6321 15.4811 14.3252 17.1691C14.2356 17.6617 14.1452 18.155 14.0755 18.6508C14.0076 19.1338 13.826 19.5968 13.7719 20.084C13.7349 20.4171 13.6809 20.7626 13.6207 21.0934C13.5782 21.3275 13.5776 21.5521 13.5776 21.7897C13.5776 22.0875 13.6618 22.3673 14.004 22.3673C14.222 22.3673 14.4385 22.3822 14.6517 22.3376C14.7705 22.3127 14.9477 22.2903 15.0296 22.2026C15.2162 22.0027 15.1321 21.5657 15.1321 21.3093C15.1321 20.7609 15.1321 20.2126 15.1321 19.6643C15.1321 19.1394 15.1968 18.6473 15.2914 18.1327C15.3289 17.9284 15.3252 17.7186 15.3615 17.5146C15.4 17.2986 15.4654 17.079 15.4722 16.8588C15.4764 16.7215 15.5208 16.5904 15.5208 16.4539C15.5208 16.4242 15.5302 16.3367 15.5208 16.3649C15.4703 16.5162 15.435 16.6707 15.3777 16.821C15.2503 17.1555 15.1663 17.5407 15.1321 17.8992C15.0705 18.5465 14.8333 19.1638 14.8164 19.8195C14.81 20.0672 14.7485 20.2978 14.7435 20.5455C14.7408 20.6753 14.7131 20.8066 14.6895 20.9341C14.6748 21.0137 14.5408 21.8302 14.4642 21.8302C14.4399 21.8302 14.4487 21.2572 14.4574 21.1716C14.476 20.9877 14.5042 20.8066 14.5303 20.6238C14.5604 20.4129 14.5378 20.2014 14.5546 19.9895C14.5961 19.4636 14.6502 18.9326 14.7583 18.416C14.8454 18 14.8896 17.5688 15.0093 17.1597C15.0976 16.8582 15.1321 16.5369 15.1321 16.2218" stroke="#1886F5" stroke-opacity="0.84" stroke-linecap="round"/>
<path d="M26.0627 14.5703C26.0627 15.2707 26.0385 15.9755 26.0385 16.6782C26.0385 17.0831 26.1356 17.4792 26.1356 17.8819C26.1356 18.3178 26.1356 18.7536 26.1356 19.1895C26.1356 19.9164 26.1356 20.6433 26.1356 21.3702C26.1356 21.5569 26.1356 21.7436 26.1356 21.9303C26.1356 22.0968 26.1713 22.2627 26.3785 22.1246" stroke="#1886F5" stroke-opacity="0.84" stroke-linecap="round"/>
<path d="M12.2173 15.9546C12.2621 16.0947 12.3974 16.2076 12.5034 16.3136C12.5593 16.3695 12.7041 16.4074 12.7328 16.4701C12.7655 16.5414 12.8938 16.5409 12.9622 16.5376C13.0869 16.5315 13.1216 16.2216 13.1781 16.1193C13.2182 16.0466 13.1889 15.903 13.1889 15.8224C13.1889 15.6889 13.1948 15.5586 13.2078 15.4256C13.2253 15.246 13.2132 15.0611 13.2132 14.8804C13.2132 14.611 13.2132 14.3416 13.2132 14.0721C13.2132 13.9443 13.2177 13.9188 13.1282 13.8292C12.9661 13.6671 12.7043 13.5789 12.5574 13.4136C12.4805 13.3271 12.3143 13.2341 12.193 13.2341C12.112 13.2341 11.9625 13.229 11.8826 13.2044C11.7049 13.1497 11.5416 13.04 11.3779 12.9534C11.1948 12.8566 11.0574 12.7886 10.8517 12.7429C10.7225 12.7142 10.5222 12.6419 10.4252 12.5486C10.3706 12.4959 10.0592 12.326 10.2565 12.3111C10.5107 12.2919 10.772 12.2746 11.0271 12.2868C11.0521 12.288 11.0833 12.3747 11.1013 12.3961C11.1888 12.5 11.2478 12.6198 11.355 12.7105C11.5114 12.8429 11.6596 12.9727 11.7207 13.1734C11.737 13.227 11.7413 13.3159 11.7909 13.3421C11.9878 13.446 12.1793 13.5537 12.3819 13.647C12.6684 13.7791 12.9312 13.9454 13.0081 14.2732C13.0591 14.4907 13.0556 14.7285 13.0243 14.9479C13.0059 15.0768 13.0279 15.252 12.9271 15.3528C12.8607 15.4192 12.5645 15.3828 12.471 15.3703C12.3477 15.3539 12.1985 15.3617 12.1323 15.2367C12.0927 15.162 11.95 15.0392 11.8772 14.9925C11.8237 14.958 11.7899 14.8856 11.7504 14.8373C11.6931 14.7672 11.599 14.7259 11.5372 14.6537C11.3826 14.4734 11.2168 14.4388 11.0082 14.3515C10.8684 14.2929 10.7822 14.1764 10.6573 14.114C10.5965 14.0835 10.5487 14.013 10.5021 13.9628C10.4477 13.9042 10.3715 13.8811 10.3227 13.8117C10.2519 13.7112 10.1598 13.6269 10.1095 13.5094C10.0622 13.3991 9.97177 13.3143 9.92458 13.2017C9.88772 13.1138 9.93264 13.1235 10.0204 13.1181C10.1992 13.107 10.3893 13.1012 10.5656 13.1383C10.6886 13.1642 10.7407 13.2313 10.8139 13.3259C10.9328 13.4794 11.1077 13.5618 11.2821 13.6349C11.4202 13.6928 11.5557 13.7529 11.6883 13.8225C11.8555 13.9101 12.0403 13.9166 12.2133 13.9858C12.2975 14.0194 12.3593 14.025 12.4359 14.0789C12.4815 14.1109 12.6467 14.144 12.5911 14.1409C12.4486 14.133 12.2939 14.0614 12.1593 14.0222C11.9272 13.9547 11.6739 13.9124 11.4562 13.8036C11.3787 13.7648 11.3671 13.7419 11.3671 13.6605C11.3671 13.5883 11.1989 13.5438 11.1458 13.5256C10.8347 13.4187 10.4906 13.4001 10.1702 13.3299C10.0765 13.3094 9.98502 13.2723 9.88949 13.2611C9.84361 13.2557 9.78904 13.2659 9.7505 13.2341C9.56766 13.0831 9.32354 13.0243 9.12975 12.8846C9.0206 12.8059 9.00792 12.6175 8.98401 12.4919C8.96423 12.3881 8.94126 12.3101 8.93813 12.2004C8.93602 12.1268 8.86211 12.0516 8.84636 11.9764C8.83098 11.9029 8.81653 11.7285 8.84096 11.6552C8.88181 11.5327 9.24748 11.6343 9.31327 11.6944C9.42389 11.7954 9.47681 11.9193 9.52109 12.0574C9.55518 12.1637 9.57736 12.2898 9.64389 12.3813C9.72788 12.4967 9.76399 12.4219 9.76399 12.3111C9.76399 12.169 9.70285 12.0491 9.64389 11.9238C9.61069 11.8532 9.53813 11.7353 9.52244 11.6647C9.47229 11.439 10.0381 11.7382 10.1149 11.7996C10.205 11.8717 10.2919 11.9551 10.3659 12.0439C10.4921 12.1954 10.7384 12.2727 10.9178 12.3354C11.2998 12.4688 11.8287 12.6079 12.0216 13.0034C12.1666 13.3006 12.3221 13.6201 12.3819 13.9493C12.4012 14.0553 12.4152 14.165 12.4494 14.2678C12.4748 14.344 12.5275 14.4102 12.5331 14.4918C12.5379 14.5621 12.6027 14.7162 12.6356 14.7779C12.6488 14.8025 12.655 14.7428 12.6545 14.7401C12.6362 14.6268 12.423 14.5391 12.3401 14.4972C12.0512 14.3513 11.6336 14.2695 11.5048 13.9304C11.4207 13.7089 11.28 13.5651 11.0932 13.4136C10.7336 13.1219 10.4001 12.8617 9.96371 12.6997C9.65946 12.5868 9.38797 12.4837 9.11355 12.3111C9.04575 12.2684 8.97418 12.1771 8.96376 12.0938C8.94374 11.9336 8.89346 11.8245 8.82882 11.6809C8.76183 11.532 8.62442 11.4391 8.53869 11.3044C8.45779 11.1773 8.46364 11.1694 8.64124 11.1694C8.79166 11.1694 8.93173 11.1422 9.07847 11.1101C9.16763 11.0906 9.15674 11.1157 9.15674 11.1937C9.15674 11.2347 9.15674 11.2756 9.15674 11.3165C9.15674 11.425 9.05478 11.3881 8.96781 11.3881C8.86435 11.3881 8.7609 11.3881 8.65744 11.3881C8.5828 11.3881 8.43028 11.3587 8.36595 11.4123C8.33174 11.4409 8.4393 11.2468 8.46312 11.2167C8.52866 11.1339 8.52369 11.0721 8.56163 10.9886C8.60433 10.8947 8.66659 10.8844 8.64529 10.7673C8.63136 10.6907 8.4955 10.5203 8.45502 10.6823C8.42124 10.8174 8.33195 10.9269 8.2472 11.0358C8.20324 11.0924 8.13655 11.1408 8.13655 11.218" stroke="#1886F5" stroke-opacity="0.84" stroke-linecap="round"/>
<rect x="15" y="4" width="11" height="19" fill="#1886F5" fill-opacity="0.84"/>
<path d="M20.1313 0.0338875C19.604 0.146337 19.0664 0.425854 18.7058 0.776053C18.4472 1.02023 18.1138 1.50215 17.8348 2.02263C17.5762 2.50456 17.4435 2.85476 17.3959 3.17925C17.3755 3.30134 17.3483 3.41058 17.3347 3.42664C17.3211 3.43949 16.9638 3.45877 16.5419 3.47162C15.3137 3.50054 15.1606 3.52624 14.9667 3.7415C14.6401 4.10776 14.3815 5.82021 13.8712 11.0121C13.7249 12.4933 13.6636 13.0619 13.6398 13.0812C13.6296 13.0909 12.5579 12.3776 11.8128 11.8636C10.8534 11.1985 8.60786 9.66918 7.6144 9.00091C7.09385 8.6475 6.63114 8.32943 6.58691 8.29409L6.50526 8.22662L6.64135 7.88285C6.94075 7.1214 6.95776 6.33747 6.69238 5.44752C6.57671 5.05555 6.4134 4.70214 6.15142 4.27804C5.89626 3.86359 5.88265 3.78327 6.01193 3.53588C6.114 3.33668 6.1208 3.15676 6.02894 3.07002C5.99152 3.03468 5.93368 3.00576 5.89966 3.00576C5.63768 3.00576 4.37204 4.26841 2.92948 5.96478C2.30347 6.70374 2.28645 6.72623 2.31027 6.79048C2.32388 6.82261 2.31707 6.83225 2.29326 6.81618C2.27285 6.80655 2.24903 6.80976 2.23882 6.82582C2.2014 6.87723 2.27625 6.89651 2.32048 6.8451C2.38852 6.76799 2.40894 6.78727 2.40213 6.91578C2.39873 7.00253 2.40213 7.01217 2.41234 6.9447C2.42255 6.89329 2.44636 6.83225 2.47358 6.80976C2.511 6.77442 2.51781 6.78084 2.51441 6.83867C2.51441 6.87723 2.52461 7.01859 2.54162 7.15353C2.55864 7.32381 2.55523 7.41698 2.52802 7.45875C2.49059 7.51658 2.49059 7.51658 2.49739 7.45554C2.5042 7.41056 2.48719 7.39128 2.43956 7.38807C2.38852 7.38486 2.36811 7.40413 2.36471 7.45233C2.3579 7.51337 2.3613 7.51337 2.39192 7.46196C2.41234 7.43305 2.44296 7.40735 2.45997 7.40735C2.48038 7.40735 2.46337 7.44911 2.42255 7.50373C2.38172 7.55514 2.36471 7.60012 2.38512 7.60012C2.40553 7.60012 2.42255 7.58405 2.42255 7.56478C2.42255 7.54871 2.43615 7.53907 2.44976 7.54871C2.48719 7.56799 2.62668 7.45233 2.63008 7.39771C2.63008 7.37522 2.63008 7.21136 2.62668 7.02823L2.62328 6.70052H2.76277H2.89886V6.89972V7.10213L2.96691 7.02181C3.00093 6.97683 3.03495 6.89008 3.04176 6.82904C3.04856 6.7455 3.06897 6.71337 3.12001 6.70695C3.18125 6.70052 3.18125 6.70052 3.13022 6.73265C3.09619 6.75193 3.06897 6.78084 3.06897 6.79691C3.06897 6.86438 3.23228 6.6941 3.67458 6.1704C4.38225 5.33185 4.94022 4.71499 5.209 4.47081C5.44716 4.25555 5.45396 4.25234 5.5186 4.30696C5.61387 4.38728 5.79759 4.70856 5.92688 5.01057C6.23648 5.74952 6.30112 6.66839 6.09359 7.37843C5.88605 8.08525 5.24642 8.94629 4.67144 9.29971C4.24276 9.55995 3.47725 9.72701 2.71174 9.72701C2.33068 9.72701 2.22521 9.71416 1.96664 9.64348C1.64683 9.55352 1.18752 9.36718 1.1501 9.30935C1.12969 9.27722 1.43929 8.85634 1.85437 8.35835C2.21501 7.92783 2.28645 7.83465 2.28645 7.78967C2.28645 7.7704 2.31027 7.73506 2.34429 7.71257C2.38852 7.68365 2.38852 7.66759 2.3545 7.64831C2.32388 7.63224 2.31707 7.63546 2.33409 7.65795C2.3477 7.68044 2.34089 7.6965 2.32048 7.6965C2.27625 7.6965 2.27625 7.03466 2.32048 6.95755C2.34429 6.919 2.33068 6.90936 2.26604 6.90936C2.18098 6.91578 2.02788 7.02181 2.10954 7.02181C2.14016 7.02181 2.15036 7.11177 2.15036 7.33988V7.65795L2.06531 7.65152C2.02108 7.6451 1.99046 7.65473 2.00066 7.6708C2.01087 7.68686 2.04149 7.69329 2.06871 7.68365C2.13335 7.66116 2.17418 7.75755 2.11634 7.79289C2.09253 7.80574 2.0483 7.81216 2.01768 7.80895C1.98706 7.80253 1.94283 7.7961 1.92241 7.7961C1.8986 7.79289 1.87818 7.77682 1.87818 7.75755C1.87818 7.73827 1.902 7.72863 1.92922 7.74148C1.95644 7.75112 1.98025 7.74469 1.98025 7.72863C1.98025 7.70935 1.95303 7.6965 1.92241 7.6965C1.87138 7.6965 1.86798 7.69008 1.91221 7.66437C1.94623 7.6451 1.94963 7.63224 1.92241 7.63224C1.85777 7.63224 1.86798 7.39128 1.92922 7.34309C1.95984 7.3206 1.97685 7.28205 1.96664 7.25634C1.94283 7.20494 1.98706 7.20172 2.03809 7.24992C2.06871 7.27883 2.07551 7.26277 2.06531 7.18566C2.0585 7.12783 2.06531 7.09249 2.08232 7.10213C2.10273 7.11498 2.11634 7.10534 2.11634 7.08606C2.11634 7.06357 2.09593 7.05393 2.07551 7.06357C2.0517 7.07 2.03469 7.10855 2.04149 7.15032C2.0483 7.21136 2.04149 7.21779 1.99726 7.18245C1.95644 7.15032 1.94623 7.15032 1.94283 7.18566C1.93942 7.21136 1.93602 7.24349 1.92922 7.26277C1.92581 7.27883 1.91901 7.30775 1.91561 7.32703C1.91221 7.34309 1.89519 7.33345 1.88159 7.30132C1.86117 7.24992 1.85437 7.25313 1.81014 7.33345C1.78292 7.38164 1.72508 7.46518 1.68425 7.51337C1.6026 7.60976 1.58219 7.6965 1.64002 7.6965C1.65704 7.6965 1.66044 7.6708 1.65023 7.63867C1.62982 7.59048 1.63322 7.58727 1.69446 7.63224C1.7557 7.67722 1.7557 7.67722 1.71147 7.62261C1.67065 7.5712 1.67065 7.55835 1.71147 7.5198C1.7557 7.47803 1.76251 7.49088 1.76931 7.62903C1.77612 7.78004 1.77271 7.78646 1.66724 7.80574C1.6026 7.81859 1.54476 7.81216 1.52435 7.78967C1.49713 7.76076 1.50393 7.75755 1.54476 7.7704C1.57878 7.78004 1.61281 7.77682 1.62301 7.76076C1.63662 7.74148 1.6094 7.72863 1.56518 7.72863C1.50393 7.72863 1.40867 7.8218 1.1467 8.13666C0.224684 9.25151 0.00693895 9.55995 0.000134424 9.7495C-0.00326784 9.8748 0.0579729 9.96155 0.177052 10.0097C0.272315 10.0483 0.299533 10.0419 0.500267 9.94549C0.622748 9.88766 0.765643 9.83946 0.816677 9.84268C0.867711 9.84268 1.06844 9.91657 1.26578 10.0033C1.98706 10.3214 1.94963 10.315 2.93288 10.315C3.65416 10.315 3.83789 10.3053 4.02161 10.2571C4.304 10.1864 4.70206 10.0001 5.10013 9.75593L5.41313 9.56637L5.68191 9.90693C5.94389 10.2411 6.1106 10.4274 6.89652 11.2627C7.76069 12.1848 8.63508 13.1166 9.21006 13.7366C9.69998 14.2603 10.8091 15.433 11.1425 15.7768C11.2004 15.8378 11.2072 15.8378 11.248 15.7864C11.2718 15.7543 11.3059 15.7414 11.3195 15.7543C11.3365 15.7671 11.3365 15.7575 11.3195 15.7318C11.2956 15.6933 11.2854 15.6965 11.2446 15.7447C11.2208 15.78 11.2004 15.7928 11.2004 15.7736C11.2038 15.7254 11.2888 15.6322 11.3127 15.6547C11.3263 15.6643 11.3365 15.6579 11.3365 15.6354C11.3365 15.6129 11.3501 15.6033 11.3671 15.6129C11.3841 15.6226 11.4215 15.5808 11.4521 15.5198C11.4828 15.4587 11.5134 15.4073 11.5202 15.4073C11.5236 15.4073 11.527 15.4523 11.5236 15.5037C11.5202 15.5583 11.5372 15.6258 11.5576 15.6547C11.595 15.7029 11.5984 15.6997 11.5916 15.6226C11.5848 15.5744 11.595 15.5358 11.6121 15.5358C11.6631 15.5358 11.6495 15.976 11.595 15.9953C11.5712 16.0049 11.5304 15.9953 11.51 15.976C11.4556 15.9246 11.3773 16.0017 11.4215 16.0627C11.4419 16.0884 11.6733 16.3358 11.9387 16.6121C12.711 17.4121 13.1397 17.9101 13.1397 18.0065C13.1397 18.0515 13.0852 18.784 13.0206 19.6322C12.8879 21.3189 12.8369 22.5976 12.8947 22.739C12.9457 22.8579 13.0784 22.9157 13.4255 22.9735C14.1229 23.086 14.9735 23.1021 20.9989 23.1021C26.4833 23.1021 26.8814 23.0988 27.0583 23.0474C27.1638 23.0153 27.2863 22.9639 27.3305 22.9318L27.4088 22.8707L27.3679 22.2635C27.3441 21.9294 27.3033 21.3639 27.2693 21.0073L27.2114 20.3615L27.1128 20.3422L27.0141 20.3229L27.0277 19.8892C27.0311 19.6515 27.0277 19.4491 27.0107 19.4426C26.9971 19.433 27.0039 19.433 27.0277 19.4362C27.0515 19.4426 27.0685 19.4812 27.0651 19.523C27.0583 19.5904 27.0583 19.5936 27.0923 19.5422C27.1196 19.4972 27.1162 19.4683 27.0685 19.4201C27.0379 19.388 27.0209 19.3495 27.0311 19.3398C27.0447 19.327 27.0855 19.3527 27.123 19.3944L27.191 19.4715L27.1332 19.3655L27.0719 19.2627L26.9903 19.3495C26.9392 19.4073 26.9188 19.4201 26.9324 19.3816C26.9426 19.3495 26.9529 19.3173 26.9529 19.3109C26.9529 19.3013 26.9835 19.282 27.0175 19.2627C27.1026 19.2209 27.191 19.2531 27.1672 19.3173C27.1196 19.4362 27.9633 18.5944 28.2525 18.2346C29.4773 16.7149 30.8144 14.8386 31.3077 13.9487C32.0631 12.5929 32.8932 10.3085 33.0905 9.04589C33.145 8.68927 33.179 8.25232 33.1552 8.18485C33.145 8.16558 33.1246 8.15594 33.1041 8.16558C33.0633 8.19128 33.0089 8.1206 33.0089 8.04028C33.0089 8.00815 33.0361 7.98566 33.0769 7.98566C33.1688 7.98566 33.1722 7.83787 33.0803 7.80895C33.0055 7.78646 32.9578 7.6965 33.0055 7.66759C33.0225 7.65795 33.0429 7.61939 33.0565 7.58405C33.0667 7.54871 33.0701 7.57441 33.0599 7.63867C33.0531 7.70614 33.0599 7.76718 33.0769 7.77682C33.128 7.80895 33.0939 7.48767 33.0361 7.41056C32.9851 7.34309 32.9851 7.3463 32.9987 7.49409C33.0089 7.57763 33.0055 7.63546 32.9885 7.62261C32.951 7.58727 32.9476 7.11819 32.9885 7.11819C33.0021 7.11819 33.0055 7.07 32.9953 7.01217C32.9817 6.95755 32.9647 6.83546 32.9544 6.74872C32.9238 6.51739 32.7605 6.05796 32.5802 5.71097C32.3659 5.2933 32.1447 5.09089 31.6378 4.85635C31.0322 4.57362 30.4334 4.46118 29.7087 4.4933C29.2494 4.51258 28.9738 4.59611 28.3852 4.88848C27.7558 5.20334 27.3679 5.47322 26.6126 6.13185C26.3779 6.33426 26.1839 6.4949 26.1771 6.49169C26.1703 6.48526 26.1839 6.22502 26.2078 5.91338C26.2282 5.59852 26.2384 5.11659 26.2282 4.84029C26.201 4.08849 26.0819 3.67403 25.8573 3.56479C25.7348 3.50375 25.2551 3.45877 24.7516 3.45556C24.4352 3.45556 24.4012 3.44913 24.4012 3.39773C24.4012 3.20174 24.3195 2.59452 24.2583 2.34713C24.0541 1.50537 23.588 0.849948 22.9892 0.55758C22.717 0.422641 21.8563 0.146337 21.4752 0.0660159C21.1214 -0.00466649 20.3933 -0.0239435 20.1313 0.0338875ZM21.3391 0.647539C21.9719 0.759989 22.6728 1.04593 23.0062 1.33187C23.3465 1.61782 23.5132 1.97444 23.588 2.57203C23.6186 2.82905 23.6595 3.08287 23.7037 3.28528L23.7207 3.35275L20.8696 3.36881C19.3046 3.37524 17.9845 3.39451 17.9403 3.40737C17.862 3.43307 17.8586 3.42986 17.879 3.30777C17.9062 3.14713 18.42 2.17042 18.6547 1.83308C18.8997 1.47966 19.4202 0.997738 19.7299 0.843522C20.2028 0.608985 20.7471 0.541516 21.3391 0.647539ZM23.7547 4.03387C24.2889 4.04993 24.9183 4.07242 25.1599 4.08527L25.592 4.10776V6.07081C25.592 7.43626 25.609 8.26839 25.643 8.80493C25.6702 9.22902 25.7485 10.4274 25.8131 11.4716C25.9424 13.5214 26.041 14.9093 26.1193 15.6965C26.2078 16.5896 26.2384 17.0169 26.2724 17.8555C26.3166 18.9382 26.3507 19.2402 26.4357 19.3205C26.5242 19.4041 26.548 19.5776 26.531 20.0723C26.5208 20.4482 26.6194 21.6884 26.7011 22.2057C26.7181 22.3149 26.7113 22.3406 26.6569 22.3599C26.6228 22.3727 26.3268 22.3952 26.0002 22.4113C25.1769 22.4498 13.5139 22.4916 13.5139 22.4563C13.5139 22.4402 13.5377 22.3053 13.565 22.1543C13.6262 21.8233 13.6976 21.033 13.7691 19.9535C13.9392 17.335 14.6911 10.0097 15.2559 5.44109L15.4328 4.00495L15.6403 3.9921C16.0044 3.9664 22.7545 4.00174 23.7547 4.03387ZM30.4742 5.0941C30.7702 5.16479 31.2601 5.36077 31.5289 5.51499C31.7705 5.65314 31.9236 5.88446 32.0801 6.33747C32.1957 6.68125 32.2093 6.70374 32.308 6.72944C32.3897 6.74872 32.4101 6.7712 32.4067 6.82261C32.3965 6.90936 32.4509 6.91578 32.4815 6.83546C32.4985 6.77763 32.6312 6.70052 32.7061 6.70052C32.7265 6.70052 32.7639 6.72301 32.7911 6.74872C32.8388 6.79048 32.8388 6.79691 32.7911 6.79691C32.7639 6.79691 32.7299 6.78084 32.7197 6.76478C32.7095 6.7455 32.6823 6.73265 32.6619 6.73265C32.638 6.73265 32.6414 6.75193 32.6687 6.78084C32.6925 6.80655 32.7367 6.82904 32.7707 6.82904C32.8456 6.82904 32.8626 6.90936 32.8694 7.33988C32.8762 7.60654 32.8694 7.66437 32.832 7.6451C32.8013 7.62903 32.8047 7.63867 32.8388 7.68044C32.866 7.71257 32.8728 7.73184 32.849 7.71899C32.8286 7.70614 32.8013 7.70935 32.7877 7.72863C32.7775 7.74469 32.7911 7.76076 32.8218 7.76076C32.8524 7.76076 32.8694 7.77361 32.8592 7.78646C32.8388 7.81859 32.6959 7.81216 32.638 7.78004C32.6074 7.76076 32.5972 7.64831 32.6006 7.36237C32.6074 6.87723 32.6074 6.88687 32.5666 6.90936C32.5496 6.919 32.5326 6.90614 32.5326 6.88044C32.5326 6.82261 32.6176 6.80976 32.6448 6.86116C32.655 6.88044 32.6584 6.87723 32.655 6.85474C32.638 6.78084 32.5292 6.78727 32.5087 6.85795C32.4985 6.89651 32.4815 6.92542 32.4679 6.92542C32.4407 6.92542 32.4509 8.04349 32.4815 8.25232C32.5768 8.96236 31.5901 11.825 30.6137 13.6627C30.0625 14.7037 29.3821 15.6708 27.7048 17.8009C27.3849 18.2057 27.1094 18.543 27.0923 18.5495C27.0651 18.5591 26.9869 17.8748 26.9869 17.621C26.9869 17.4635 26.9869 17.4603 27.3815 17.0202C28.0858 16.2362 29.7325 13.7527 30.1374 12.8627C30.6001 11.8507 31.2227 10.0644 31.3792 9.29971C31.4574 8.91417 31.4847 8.22019 31.4336 7.91176C31.4098 7.77682 31.3996 7.76397 31.3418 7.79289C31.2567 7.83465 31.2397 7.83465 31.2397 7.77682C31.2397 7.75112 31.2261 7.72863 31.2057 7.72863C31.1887 7.72863 31.1853 7.75112 31.1955 7.78325C31.2091 7.81859 31.2057 7.82823 31.1785 7.81216C31.1546 7.79931 31.1376 7.76076 31.1376 7.72542C31.1376 7.69008 31.124 7.66759 31.1104 7.67722C31.0798 7.6965 31.0662 7.63867 31.0662 7.49088C31.0662 7.37843 31.2023 7.22421 31.2465 7.28526C31.2635 7.31417 31.2737 7.29811 31.2737 7.24028C31.2737 7.09891 31.2397 7.05393 31.1342 7.05393C31.0798 7.05393 31.0356 7.03787 31.0356 7.02181C31.0356 7.00253 31.073 6.9961 31.124 7.00895C31.1887 7.02502 31.2091 7.02181 31.1921 6.99289C31.1785 6.97361 31.1546 6.96398 31.1376 6.97361C31.124 6.98004 31.1036 6.95434 31.0968 6.90936C31.0866 6.86438 31.0934 6.82904 31.107 6.82904C31.124 6.82904 31.1172 6.78084 31.0934 6.72301C31.0356 6.59129 30.9845 6.60414 30.9913 6.74872C30.9947 6.80976 30.9845 6.85474 30.9709 6.84831C30.9573 6.83867 30.9471 6.86116 30.9471 6.89329C30.9471 6.92542 30.9607 6.9447 30.9743 6.93827C30.9879 6.92863 31.0015 6.96398 31.0015 7.01859C31.0015 7.07 30.9879 7.12462 30.9675 7.13426C30.9505 7.14389 30.9335 7.17281 30.9335 7.19209C30.9335 7.221 30.9437 7.21779 30.9607 7.18887C30.9811 7.16317 30.9913 7.18245 30.9913 7.2467C30.9913 7.30775 30.9811 7.33024 30.9641 7.30454C30.9471 7.27883 30.9369 7.28847 30.9437 7.33345C30.9437 7.37201 30.9573 7.39771 30.9709 7.38807C30.9845 7.38164 30.9947 7.43947 30.9947 7.51658C30.9913 7.63224 30.9811 7.65473 30.9369 7.63867C30.8927 7.62261 30.8927 7.62903 30.9437 7.67722C30.9743 7.70614 31.0015 7.75112 31.0015 7.7704C31.0015 7.7961 30.9913 7.79289 30.9709 7.76397C30.9539 7.73827 30.9437 7.95995 30.9471 8.29409C30.9505 8.972 30.9267 9.07802 30.5593 10.0579C29.7971 12.0756 29.0861 13.6081 28.4601 14.588C28.1539 15.0635 27.6877 15.7286 27.2659 16.2876C26.9801 16.6667 26.9733 16.67 26.9461 16.5768C26.844 16.233 26.7827 15.4716 26.4085 10.0901C26.3711 9.54067 26.3404 9.06196 26.3404 9.0234C26.3404 8.97521 26.582 8.73746 27.1502 8.22983C28.3138 7.18887 28.8411 6.79369 29.314 6.61056C29.5556 6.51739 29.9026 6.48526 30.1068 6.53667C30.3245 6.59129 30.5627 6.76157 30.6443 6.91578C30.6817 6.98968 30.7328 7.05072 30.7566 7.05393C30.777 7.05393 30.7974 7.04751 30.7974 7.04108C30.7974 7.03466 30.8076 6.99932 30.8212 6.96719C30.8416 6.919 30.8348 6.91578 30.794 6.94791C30.7498 6.98004 30.743 6.95755 30.7362 6.77763C30.7294 6.61378 30.7362 6.57201 30.7702 6.59129C30.8076 6.61056 30.8076 6.60735 30.7702 6.56558C30.7362 6.52703 30.7362 6.51097 30.7736 6.48205C30.8212 6.4435 30.9301 6.48848 30.8893 6.53024C30.8723 6.54309 30.8484 6.53345 30.8314 6.50775C30.811 6.47884 30.7974 6.47562 30.7974 6.49811C30.7974 6.55594 30.8655 6.58486 30.9097 6.53988C30.9403 6.51097 30.9029 6.46277 30.7498 6.32783C30.5116 6.12221 30.3347 6.03547 30.0489 5.98727C29.6134 5.91659 29.0112 6.06759 28.5179 6.37603C27.9565 6.72623 26.8474 7.6965 26.4833 8.15594C26.286 8.40975 26.303 8.43545 26.218 7.78646L26.1601 7.3463L26.582 6.96398C27.2897 6.32141 27.4904 6.14791 27.8102 5.91016C28.1947 5.62101 28.4396 5.48607 28.8989 5.30294C29.5896 5.02663 29.9809 4.97523 30.4742 5.0941ZM2.43615 6.72623C2.44296 6.73908 2.42255 6.75514 2.38512 6.75514C2.3477 6.75835 2.32728 6.74872 2.33749 6.72944C2.3613 6.6941 2.41234 6.69088 2.43615 6.72623ZM32.9647 7.06036C32.9544 7.08285 32.9476 7.06679 32.9476 7.02181C32.9476 6.97683 32.9544 6.96076 32.9647 6.98004C32.9715 7.00253 32.9715 7.04108 32.9647 7.06036ZM6.39639 8.84348C6.52227 8.94308 6.91693 9.23224 7.27077 9.47963C7.87297 9.90372 8.29145 10.1864 10.0334 11.3463C10.8159 11.8668 11.4147 12.2812 12.1156 12.7824C12.3844 12.9752 12.7552 13.2258 12.9389 13.3382C13.1261 13.4507 13.3472 13.6049 13.4289 13.6756C13.565 13.7945 13.582 13.8234 13.582 13.9519C13.582 14.2668 13.286 16.7406 13.2383 16.821C13.2043 16.8788 12.6906 16.3936 11.8298 15.4876C11.5134 15.1503 10.7989 14.4081 10.2477 13.8362C9.69658 13.2643 9.15222 12.6989 9.03995 12.58C7.28778 10.7166 6.10379 9.43143 5.90306 9.17441C5.87244 9.13264 5.88945 9.07802 6.00513 8.89168C6.08338 8.76638 6.15142 8.66035 6.15823 8.66035C6.16163 8.66035 6.2705 8.74389 6.39639 8.84348ZM11.4862 15.2692C11.4998 15.2852 11.5304 15.2949 11.5508 15.2949C11.5746 15.2949 11.5916 15.3109 11.5916 15.3334C11.5916 15.3527 11.6018 15.3816 11.6189 15.3945C11.6597 15.4362 11.6461 15.5037 11.5916 15.5037C11.5304 15.5037 11.5236 15.4394 11.5848 15.4394C11.6087 15.4394 11.6018 15.4234 11.5678 15.4073C11.4998 15.3688 11.3365 15.4169 11.3331 15.478C11.3331 15.5005 11.3161 15.478 11.2956 15.4298C11.2684 15.3623 11.2718 15.327 11.3024 15.3013C11.3365 15.2724 11.3399 15.2724 11.3229 15.3013C11.3127 15.3206 11.3161 15.3463 11.3331 15.3559C11.3501 15.3655 11.3705 15.3463 11.3807 15.3109C11.3977 15.2435 11.4419 15.2274 11.4862 15.2692ZM11.2684 15.4362C11.2684 15.4555 11.2548 15.478 11.2344 15.4876C11.2174 15.4973 11.2004 15.4844 11.2004 15.4587C11.2004 15.4298 11.2174 15.4073 11.2344 15.4073C11.2548 15.4073 11.2684 15.4202 11.2684 15.4362ZM26.8984 19.2595C26.912 19.2756 26.9052 19.327 26.8848 19.3719C26.8644 19.4234 26.8644 19.4555 26.8848 19.4555C26.9052 19.4555 26.9154 19.6354 26.9086 19.8956L26.9018 20.339H26.7827H26.6637L26.6603 19.825C26.6569 19.5422 26.6637 19.2916 26.6705 19.2691C26.6909 19.2242 26.8712 19.2145 26.8984 19.2595Z" fill="black"/>
<path d="M17.0727 4.58644C16.9774 4.7246 16.9468 4.96556 16.9264 5.71094C16.9094 6.4274 16.9264 6.79688 16.9842 6.79688C17.0557 6.79688 17.2088 5.77198 17.2428 5.07801C17.2632 4.6507 17.2632 4.625 17.1952 4.57038C17.1271 4.51255 17.1237 4.51255 17.0727 4.58644Z" fill="black"/>
<path d="M16.052 4.87587C16.0418 5.00438 16.0146 5.37065 15.9942 5.68872C15.9772 6.00679 15.9397 6.54976 15.9125 6.89353C15.8377 7.88308 15.7798 9.27424 15.8071 9.41239C15.8207 9.48308 15.8445 9.52484 15.8615 9.50878C15.9772 9.39954 16.2221 7.0124 16.2561 5.67265C16.2766 4.84374 16.2596 4.66703 16.1439 4.65097C16.0792 4.64133 16.069 4.66061 16.052 4.87587Z" fill="black"/>
<path d="M17.8892 4.87564C17.8586 4.99451 17.8654 5.66599 17.8994 5.68848C17.9845 5.73668 18.0764 5.05555 18.0083 4.8917C17.9641 4.78568 17.9165 4.77925 17.8892 4.87564Z" fill="black"/>
<path d="M25.1973 17.6723C25.1497 17.7398 25.1463 17.7976 25.1633 18C25.1905 18.2635 25.2789 18.5623 25.3402 18.5783C25.4252 18.604 25.4525 17.9775 25.3776 17.7398C25.3266 17.5824 25.2721 17.5631 25.1973 17.6723Z" fill="black"/>
<path d="M14.9633 18.048C14.8544 18.2921 14.6367 20.146 14.5822 21.2704C14.5652 21.6367 14.572 21.7331 14.6094 21.7813C14.7183 21.913 14.783 21.7588 14.8408 21.2223C14.9122 20.5733 15.079 18.4656 15.079 18.2247C15.079 17.9516 15.0347 17.8841 14.9633 18.048Z" fill="black"/>
<path d="M25.4491 19.9051C25.4593 20.236 25.4525 20.3549 25.4218 20.3549C25.3742 20.3549 25.3878 20.4674 25.4967 21.0939C25.6022 21.7107 25.728 21.865 25.728 21.3734C25.728 21.1035 25.6532 20.4706 25.592 20.2425C25.5749 20.1718 25.5579 20.0336 25.5579 19.934C25.5579 19.6706 25.5205 19.4553 25.4763 19.4553C25.4491 19.4553 25.4423 19.5871 25.4491 19.9051Z" fill="black"/>
<path d="M26.4153 19.5197C26.4153 19.5647 26.4221 19.5808 26.4323 19.5583C26.4391 19.539 26.4391 19.5004 26.4323 19.4779C26.4221 19.4587 26.4153 19.4747 26.4153 19.5197Z" fill="black"/>
<path d="M25.3776 19.5426C25.364 19.5522 25.3538 19.5779 25.3538 19.5972C25.3538 19.6165 25.3708 19.6133 25.3946 19.5908C25.415 19.5715 25.4252 19.5458 25.4184 19.5362C25.4082 19.5265 25.3878 19.5297 25.3776 19.5426Z" fill="black"/>
<path d="M26.4663 19.8571C26.4765 19.9631 26.4902 20.0563 26.497 20.0627C26.5208 20.0884 26.5038 19.8249 26.4765 19.7446C26.4595 19.6932 26.4561 19.7382 26.4663 19.8571Z" fill="black"/>
<path d="M25.3606 19.9213C25.3606 19.9727 25.3674 19.992 25.3776 19.9599C25.3844 19.931 25.3844 19.886 25.3776 19.8635C25.3674 19.8442 25.3606 19.8667 25.3606 19.9213Z" fill="black"/>
<path d="M25.3946 20.1624C25.3946 20.2235 25.4014 20.2492 25.4116 20.217C25.4184 20.1881 25.4184 20.1367 25.4116 20.1046C25.4014 20.0757 25.3946 20.1014 25.3946 20.1624Z" fill="black"/>
<path d="M15.7016 21.02C15.671 21.0907 15.6403 21.2771 15.6301 21.4538C15.6131 21.8007 15.6403 21.8425 15.79 21.6915C15.9431 21.5373 16.0078 21.171 15.9125 20.9975C15.8411 20.869 15.7662 20.8754 15.7016 21.02Z" fill="black"/>
<path d="M32.2978 6.81945C32.2638 6.85479 32.2638 6.87407 32.291 6.89656C32.3114 6.91263 32.3216 6.91584 32.3114 6.9062C32.3012 6.89335 32.3114 6.86443 32.3352 6.83873C32.3863 6.77769 32.3557 6.76162 32.2978 6.81945Z" fill="black"/>
<path d="M32.7095 6.94134C32.7095 6.99275 32.7163 7.01203 32.7265 6.9799C32.7333 6.95098 32.7333 6.906 32.7265 6.88351C32.7163 6.86424 32.7095 6.88673 32.7095 6.94134Z" fill="black"/>
<path d="M32.7775 6.92547C32.7775 6.97045 32.7843 6.98652 32.7945 6.96403C32.8013 6.94475 32.8013 6.9062 32.7945 6.88371C32.7843 6.86443 32.7775 6.88049 32.7775 6.92547Z" fill="black"/>
<path d="M30.8723 7.02167C30.8723 7.06665 30.8791 7.08271 30.8893 7.06022C30.8961 7.04094 30.8961 7.00239 30.8893 6.9799C30.8791 6.96062 30.8723 6.97669 30.8723 7.02167Z" fill="black"/>
<path d="M32.3659 7.0699C32.3693 7.13094 32.4271 7.23375 32.4271 7.18235C32.4271 7.15664 32.4135 7.11166 32.3965 7.08596C32.3795 7.06026 32.3659 7.05062 32.3659 7.0699Z" fill="black"/>
<path d="M32.3659 7.3107C32.3659 7.3364 32.3795 7.38138 32.3965 7.40708C32.4373 7.46491 32.4373 7.41351 32.3965 7.32676C32.3761 7.28499 32.3659 7.27857 32.3659 7.3107Z" fill="black"/>
<path d="M31.1717 7.33993C31.1717 7.3592 31.1853 7.38169 31.2057 7.39133C31.2261 7.40097 31.2295 7.38812 31.2193 7.36242C31.1955 7.30458 31.1717 7.29495 31.1717 7.33993Z" fill="black"/>
<path d="M31.2941 7.42686C31.3078 7.48791 31.2975 7.5361 31.2771 7.54895C31.2567 7.5618 31.2431 7.60357 31.2431 7.64212C31.2465 7.69674 31.2499 7.69995 31.2635 7.65497C31.2703 7.62606 31.2941 7.60036 31.3112 7.60036C31.3316 7.60036 31.3384 7.61321 31.3282 7.62606C31.3214 7.63891 31.3282 7.67104 31.3452 7.69674C31.3928 7.761 31.3554 7.45578 31.3078 7.38188C31.2839 7.34012 31.2805 7.35297 31.2941 7.42686Z" fill="black"/>
<path d="M31.2295 7.46202C31.2159 7.47166 31.2057 7.49736 31.2057 7.51664C31.2057 7.53592 31.2227 7.5327 31.2465 7.51021C31.2669 7.49094 31.2771 7.46523 31.2703 7.4556C31.2601 7.44596 31.2397 7.44917 31.2295 7.46202Z" fill="black"/>
<path d="M11.4487 15.3273C11.4487 15.353 11.4624 15.3658 11.4794 15.3562C11.4964 15.3465 11.4998 15.324 11.4896 15.308C11.459 15.2662 11.4487 15.2726 11.4487 15.3273Z" fill="black"/>
<path d="M26.7181 19.3143C26.7181 19.3497 26.7283 19.3593 26.7385 19.3336C26.7487 19.3111 26.7453 19.2822 26.7351 19.2726C26.7249 19.2597 26.7147 19.279 26.7181 19.3143Z" fill="black"/>
<path d="M26.7827 19.2761C26.7827 19.2825 26.8066 19.2986 26.8372 19.3082C26.8644 19.3179 26.878 19.3146 26.8678 19.2954C26.8474 19.2632 26.7827 19.2504 26.7827 19.2761Z" fill="black"/>
<path d="M26.7827 19.359C26.7827 19.375 26.7998 19.3911 26.8202 19.3911C26.8372 19.3911 26.844 19.375 26.8338 19.359C26.8236 19.3397 26.8066 19.3269 26.7964 19.3269C26.7895 19.3269 26.7827 19.3397 26.7827 19.359Z" fill="black"/>
<path d="M26.861 19.8407C26.861 19.921 26.8678 19.9531 26.8745 19.9114C26.8813 19.8728 26.8813 19.8085 26.8745 19.7668C26.8678 19.7282 26.861 19.7604 26.861 19.8407Z" fill="black"/>
<path d="M26.7147 20.2909C26.7419 20.307 26.7964 20.3198 26.8338 20.3198H26.9018L26.8338 20.2909C26.7964 20.2748 26.7419 20.262 26.7147 20.262C26.6705 20.2588 26.6705 20.262 26.7147 20.2909Z" fill="black"/>
<path d="M2.46337 7.0058C2.46337 7.0572 2.47018 7.07648 2.48038 7.04435C2.48719 7.01544 2.48719 6.97046 2.48038 6.94797C2.47018 6.92869 2.46337 6.95118 2.46337 7.0058Z" fill="black"/>
<path d="M2.32048 7.03463C2.32048 7.06033 2.33409 7.08925 2.3511 7.09889C2.36811 7.11174 2.37492 7.08925 2.36471 7.05391C2.3443 6.98001 2.32048 6.97037 2.32048 7.03463Z" fill="black"/>
<path d="M33.0157 7.1989C33.0157 7.23424 33.0259 7.29207 33.0429 7.32741C33.0803 7.40773 33.0803 7.3242 33.0429 7.21496C33.0225 7.1507 33.0157 7.14749 33.0157 7.1989Z" fill="black"/>
<path d="M2.00066 7.33681C1.99045 7.35287 2.00406 7.36572 2.03128 7.36572C2.0585 7.36572 2.07211 7.35287 2.0619 7.33681C2.0517 7.32396 2.03809 7.3111 2.03128 7.3111C2.02448 7.3111 2.01087 7.32396 2.00066 7.33681Z" fill="black"/>
<path d="M11.3875 15.7093C11.3263 15.796 11.3467 15.8764 11.4419 15.8989C11.4794 15.9085 11.4998 15.9021 11.4862 15.8828C11.4726 15.8635 11.4828 15.8571 11.51 15.8635C11.5372 15.8732 11.5542 15.9085 11.5474 15.9406C11.5406 15.992 11.544 15.992 11.5712 15.9535C11.5916 15.9246 11.5916 15.8924 11.5746 15.8764C11.561 15.8635 11.5508 15.8314 11.5542 15.8121C11.561 15.7928 11.5576 15.7864 11.5508 15.7993C11.51 15.8667 11.4692 15.8153 11.4896 15.7286C11.5168 15.6129 11.4624 15.6001 11.3875 15.7093Z" fill="black"/>
<path d="M11.2684 15.8536C11.2684 15.8729 11.282 15.8954 11.3024 15.905C11.3229 15.9146 11.3263 15.9018 11.3161 15.8761C11.2922 15.8183 11.2684 15.8086 11.2684 15.8536Z" fill="black"/>
<path d="M27.1298 19.905C27.1298 19.9499 27.1366 19.966 27.1468 19.9435C27.1536 19.9242 27.1536 19.8857 27.1468 19.8632C27.1366 19.8439 27.1298 19.86 27.1298 19.905Z" fill="black"/>
<path d="M27.1298 20.1623C27.1298 20.2073 27.1366 20.2233 27.1468 20.2008C27.1536 20.1816 27.1536 20.143 27.1468 20.1205C27.1366 20.1012 27.1298 20.1173 27.1298 20.1623Z" fill="black"/>
<path d="M27.0685 20.2809C27.1026 20.3163 27.1944 20.3195 27.1706 20.2874C27.1604 20.2713 27.1298 20.2584 27.0992 20.2584C27.0685 20.2584 27.0549 20.2681 27.0685 20.2809Z" fill="black"/>
<path d="M2.31697 7.3374C2.31697 7.39451 2.30103 7.42829 2.2569 7.46794C2.2469 7.47692 2.21247 7.51512 2.213 7.50144C2.2145 7.46247 2.23294 7.42806 2.24997 7.39401C2.25892 7.37609 2.21419 7.46058 2.19798 7.47718C2.13144 7.54531 2.05518 7.59146 2.00276 7.67009C1.98115 7.70251 1.93935 7.71835 1.9219 7.75326" stroke="black" stroke-width="0.5" stroke-linecap="round"/>
<path d="M1.75555 7.80524C1.83265 7.73515 1.90753 7.69912 2.00045 7.65391C2.10982 7.60071 2.22477 7.53776 2.29848 7.43674C2.3743 7.33284 2.43036 7.20215 2.48909 7.08788C2.53435 6.99981 2.59405 6.92245 2.64157 6.83605C2.66806 6.78789 2.71204 6.71854 2.71204 6.66162" stroke="black" stroke-width="0.5" stroke-linecap="round"/>
<path d="M2.04665 7.46242C2.06234 7.35258 2.20044 7.27337 2.28115 7.21059C2.3256 7.17602 2.35634 7.12926 2.40014 7.09276C2.46497 7.03874 2.52476 6.96908 2.58208 6.90678C2.64905 6.83398 2.69271 6.75992 2.78481 6.71387" stroke="black" stroke-width="0.5" stroke-linecap="round"/>
<path d="M2.45212 7.109C2.45719 7.02277 2.56753 6.96229 2.61615 6.90107C2.6317 6.88149 2.63153 6.84757 2.64503 6.83407C2.6626 6.8165 2.68677 6.7989 2.69932 6.77631C2.71829 6.74218 2.73927 6.7105 2.75939 6.67697C2.78762 6.62993 2.83342 6.60353 2.86336 6.5603C2.89469 6.51503 2.93798 6.49561 2.99274 6.49561" stroke="black" stroke-width="0.5" stroke-linecap="round"/>
<path d="M2.99274 6.49561C2.99274 6.59595 2.89564 6.70592 2.82986 6.77169C2.78498 6.81657 2.73127 6.8518 2.68662 6.89645C2.64212 6.94095 2.6161 7.00702 2.58728 7.06164C2.50319 7.22097 2.36081 7.32365 2.18701 7.37411C2.0777 7.40585 1.99173 7.41453 1.94269 7.52486C1.9334 7.54577 1.89071 7.6851 1.89071 7.61843" stroke="black" stroke-width="0.5" stroke-linecap="round"/>
<path d="M11.2684 15.3013C11.2958 15.3731 11.3268 15.4443 11.3885 15.4948C11.4179 15.5188 11.47 15.5834 11.4861 15.6184C11.5364 15.7273 11.6421 15.8341 11.7466 15.8939" stroke="black" stroke-width="0.5" stroke-linecap="round"/>
<path d="M11.1852 15.4263C11.1477 15.4852 11.2788 15.5362 11.31 15.5591C11.3688 15.6023 11.4424 15.6316 11.5064 15.6694C11.5697 15.7068 11.6419 15.7546 11.6952 15.8057C11.7396 15.8483 11.7988 15.8697 11.8454 15.9091C11.8802 15.9385 11.9223 15.9631 11.965 15.9773" stroke="black" stroke-width="0.5" stroke-linecap="round"/>
<path d="M26.7488 19.0649C26.7919 19.2444 26.8424 19.4203 26.8424 19.6056C26.8424 19.6728 26.8424 19.7399 26.8424 19.8071C26.8424 19.969 26.8736 20.4536 26.8736 20.2917" stroke="black" stroke-width="0.5" stroke-linecap="round"/>
<path d="M26.7904 19.0859C26.7302 19.3568 26.8216 20.1951 26.8216 19.9177" stroke="black" stroke-width="0.5" stroke-linecap="round"/>
<path d="M26.6864 19.0024C26.576 19.0687 26.5876 19.2678 26.5935 19.3813C26.5972 19.4537 26.6295 19.5267 26.6547 19.5939C26.6703 19.6355 26.6707 19.6825 26.6772 19.7262C26.6846 19.7758 26.7083 19.8349 26.7223 19.8838C26.7419 19.9525 26.7583 20.0021 26.7592 20.0756C26.7603 20.1654 26.7806 20.2562 26.7881 20.3459C26.7902 20.3707 26.7819 20.4165 26.7962 20.4389C26.8015 20.4472 26.8286 20.392 26.832 20.3852" stroke="black" stroke-width="0.5" stroke-linecap="round"/>
<path d="M26.9776 19.1274C26.9776 19.5747 26.988 20.0207 26.988 20.4686" stroke="black" stroke-width="0.5" stroke-linecap="round"/>
<path d="M30.7099 6.52686C30.7261 6.67922 30.9001 6.75495 30.9594 6.88842C31.0003 6.98032 31.0399 7.04852 31.0553 7.15065C31.071 7.25485 31.0946 7.34542 31.0946 7.45215C31.0946 7.55907 31.1121 7.65956 31.1362 7.76404" stroke="black" stroke-width="0.5" stroke-linecap="round"/>
<path d="M32.4253 6.48535C32.5562 6.75493 32.6636 7.04915 32.743 7.33787C32.7884 7.50274 32.8178 7.66371 32.8476 7.83228C32.8648 7.92979 32.8777 8.01878 32.8851 8.11761C32.891 8.19711 32.9015 8.27021 32.9244 8.34633" stroke="black" stroke-width="0.5" stroke-linecap="round"/>
<path d="M32.7476 6.96338C32.7476 7.05663 32.7418 7.15199 32.7528 7.24466C32.7647 7.34397 32.7911 7.44121 32.7996 7.54096C32.8095 7.6574 32.8308 7.77131 32.8308 7.88867C32.8308 7.95798 32.8308 8.16591 32.8308 8.0966" stroke="black" stroke-width="0.5" stroke-linecap="round"/>
<path d="M32.6229 6.56836C32.6181 6.72748 32.625 6.87883 32.6333 7.0362C32.6364 7.09621 32.6384 7.16352 32.646 7.22334C32.6519 7.26996 32.6729 7.31381 32.6749 7.36081C32.6769 7.40883 32.6824 7.46431 32.698 7.50982C32.718 7.56824 32.7121 7.61998 32.7188 7.68079C32.7216 7.70664 32.7152 7.78659 32.7372 7.75356" stroke="black" stroke-width="0.5" stroke-linecap="round"/>
<path d="M32.7164 6.80762C32.7615 6.83465 32.7646 6.96304 32.7788 7.01093C32.8024 7.09009 32.8184 7.16842 32.8354 7.24889C32.8597 7.36345 32.8828 7.47935 32.8828 7.59775C32.8828 7.91333 32.8724 8.22873 32.8724 8.54384" stroke="black" stroke-width="0.5" stroke-linecap="round"/>
</svg>
