<svg width="34" height="24" viewBox="0 0 34 24" fill="none" xmlns="http://www.w3.org/2000/svg">
<path d="M20.1313 0.034132C19.604 0.146582 19.0664 0.426098 18.7058 0.776297C18.4472 1.02047 18.1138 1.5024 17.8348 2.02288C17.5762 2.5048 17.4435 2.855 17.3959 3.1795C17.3755 3.30159 17.3483 3.41082 17.3347 3.42689C17.3211 3.43974 16.9638 3.45901 16.5419 3.47187C15.3137 3.50078 15.1606 3.52649 14.9667 3.74174C14.6401 4.10801 14.3815 5.82045 13.8712 11.0124C13.7249 12.4935 13.6636 13.0622 13.6398 13.0815C13.6296 13.0911 12.5579 12.3778 11.8128 11.8638C10.8534 11.1987 8.60786 9.66943 7.6144 9.00116C7.09385 8.64775 6.63114 8.32967 6.58691 8.29433L6.50526 8.22686L6.64135 7.88309C6.94075 7.12165 6.95776 6.33772 6.69238 5.44776C6.57671 5.05579 6.4134 4.70238 6.15142 4.27829C5.89626 3.86383 5.88265 3.78351 6.01193 3.53612C6.114 3.33693 6.1208 3.15701 6.02894 3.07026C5.99152 3.03492 5.93368 3.006 5.89966 3.006C5.63768 3.006 4.37204 4.26865 2.92948 5.96503C2.30347 6.70398 2.28645 6.72647 2.31027 6.79073C2.32388 6.82285 2.31708 6.83249 2.29326 6.81643C2.27285 6.80679 2.24903 6.81 2.23882 6.82607C2.2014 6.87747 2.27625 6.89675 2.32048 6.84534C2.38852 6.76824 2.40894 6.78751 2.40213 6.91603C2.39873 7.00277 2.40213 7.01241 2.41234 6.94494C2.42254 6.89354 2.44636 6.83249 2.47358 6.81C2.511 6.77466 2.51781 6.78109 2.51441 6.83892C2.51441 6.87747 2.52461 7.01884 2.54162 7.15378C2.55864 7.32406 2.55523 7.41723 2.52802 7.459C2.49059 7.51683 2.49059 7.51683 2.49739 7.45578C2.5042 7.4108 2.48719 7.39153 2.43956 7.38831C2.38852 7.3851 2.36811 7.40438 2.36471 7.45257C2.3579 7.51361 2.3613 7.51361 2.39192 7.46221C2.41234 7.43329 2.44296 7.40759 2.45997 7.40759C2.48038 7.40759 2.46337 7.44936 2.42254 7.50398C2.38172 7.55538 2.36471 7.60036 2.38512 7.60036C2.40553 7.60036 2.42254 7.5843 2.42254 7.56502C2.42254 7.54895 2.43615 7.53932 2.44976 7.54895C2.48719 7.56823 2.62668 7.45257 2.63008 7.39795C2.63008 7.37546 2.63008 7.21161 2.62668 7.02848L2.62328 6.70077H2.76277H2.89886V6.89996V7.10237L2.96691 7.02205C3.00093 6.97707 3.03495 6.89032 3.04176 6.82928C3.04856 6.74575 3.06897 6.71362 3.12001 6.70719C3.18125 6.70077 3.18125 6.70077 3.13022 6.73289C3.09619 6.75217 3.06897 6.78109 3.06897 6.79715C3.06897 6.86462 3.23228 6.69434 3.67458 6.17065C4.38225 5.3321 4.94022 4.71523 5.209 4.47106C5.44716 4.2558 5.45396 4.25259 5.5186 4.3072C5.61387 4.38753 5.79759 4.70881 5.92688 5.01081C6.23648 5.74977 6.30112 6.66864 6.09359 7.37868C5.88605 8.0855 5.24642 8.94654 4.67144 9.29995C4.24276 9.56019 3.47725 9.72726 2.71174 9.72726C2.33068 9.72726 2.22521 9.71441 1.96664 9.64372C1.64683 9.55377 1.18752 9.36742 1.1501 9.30959C1.12969 9.27746 1.43929 8.85658 1.85437 8.35859C2.21501 7.92807 2.28645 7.8349 2.28645 7.78992C2.28645 7.77064 2.31027 7.7353 2.34429 7.71281C2.38852 7.68389 2.38852 7.66783 2.3545 7.64855C2.32388 7.63249 2.31708 7.6357 2.33409 7.65819C2.3477 7.68068 2.34089 7.69675 2.32048 7.69675C2.27625 7.69675 2.27625 7.0349 2.32048 6.95779C2.34429 6.91924 2.33068 6.9096 2.26604 6.9096C2.18098 6.91603 2.02788 7.02205 2.10954 7.02205C2.14016 7.02205 2.15036 7.11201 2.15036 7.34012V7.65819L2.06531 7.65177C2.02108 7.64534 1.99046 7.65498 2.00066 7.67104C2.01087 7.68711 2.04149 7.69353 2.06871 7.68389C2.13335 7.6614 2.17418 7.75779 2.11634 7.79313C2.09253 7.80598 2.0483 7.81241 2.01768 7.8092C1.98706 7.80277 1.94283 7.79634 1.92241 7.79634C1.8986 7.79313 1.87818 7.77707 1.87818 7.75779C1.87818 7.73851 1.902 7.72887 1.92922 7.74173C1.95644 7.75136 1.98025 7.74494 1.98025 7.72887C1.98025 7.7096 1.95303 7.69675 1.92241 7.69675C1.87138 7.69675 1.86798 7.69032 1.91221 7.66462C1.94623 7.64534 1.94963 7.63249 1.92241 7.63249C1.85777 7.63249 1.86798 7.39153 1.92922 7.34333C1.95984 7.32084 1.97685 7.28229 1.96664 7.25659C1.94283 7.20518 1.98706 7.20197 2.03809 7.25016C2.06871 7.27908 2.07551 7.26301 2.06531 7.1859C2.0585 7.12807 2.06531 7.09273 2.08232 7.10237C2.10273 7.11522 2.11634 7.10558 2.11634 7.08631C2.11634 7.06382 2.09593 7.05418 2.07551 7.06382C2.0517 7.07024 2.03469 7.1088 2.04149 7.15056C2.0483 7.21161 2.04149 7.21803 1.99726 7.18269C1.95644 7.15056 1.94623 7.15056 1.94283 7.1859C1.93942 7.21161 1.93602 7.24374 1.92922 7.26301C1.92581 7.27908 1.91901 7.30799 1.91561 7.32727C1.91221 7.34333 1.89519 7.3337 1.88159 7.30157C1.86117 7.25016 1.85437 7.25337 1.81014 7.3337C1.78292 7.38189 1.72508 7.46542 1.68425 7.51361C1.6026 7.61 1.58219 7.69675 1.64002 7.69675C1.65704 7.69675 1.66044 7.67104 1.65023 7.63892C1.62982 7.59072 1.63322 7.58751 1.69446 7.63249C1.7557 7.67747 1.7557 7.67747 1.71147 7.62285C1.67065 7.57145 1.67065 7.55859 1.71147 7.52004C1.7557 7.47827 1.76251 7.49112 1.76931 7.62928C1.77612 7.78028 1.77271 7.78671 1.66724 7.80598C1.6026 7.81883 1.54476 7.81241 1.52435 7.78992C1.49713 7.761 1.50393 7.75779 1.54476 7.77064C1.57878 7.78028 1.61281 7.77707 1.62301 7.761C1.63662 7.74173 1.6094 7.72887 1.56518 7.72887C1.50393 7.72887 1.40867 7.82205 1.1467 8.1369C0.224684 9.25176 0.00693895 9.56019 0.000134424 9.74975C-0.00326784 9.87505 0.0579729 9.96179 0.177052 10.01C0.272315 10.0485 0.299533 10.0421 0.500267 9.94573C0.622748 9.8879 0.765643 9.83971 0.816677 9.84292C0.867711 9.84292 1.06844 9.91682 1.26578 10.0036C1.98706 10.3216 1.94963 10.3152 2.93288 10.3152C3.65416 10.3152 3.83789 10.3056 4.02161 10.2574C4.304 10.1867 4.70206 10.0003 5.10013 9.75617L5.41313 9.56662L5.68191 9.90718C5.94389 10.2413 6.1106 10.4277 6.89652 11.263C7.76069 12.1851 8.63508 13.1168 9.21006 13.7369C9.69998 14.2606 10.8091 15.4333 11.1425 15.777C11.2004 15.8381 11.2072 15.8381 11.248 15.7867C11.2718 15.7545 11.3059 15.7417 11.3195 15.7545C11.3365 15.7674 11.3365 15.7578 11.3195 15.732C11.2956 15.6935 11.2854 15.6967 11.2446 15.7449C11.2208 15.7802 11.2004 15.7931 11.2004 15.7738C11.2038 15.7256 11.2888 15.6325 11.3127 15.6549C11.3263 15.6646 11.3365 15.6582 11.3365 15.6357C11.3365 15.6132 11.3501 15.6035 11.3671 15.6132C11.3841 15.6228 11.4215 15.581 11.4521 15.52C11.4828 15.459 11.5134 15.4076 11.5202 15.4076C11.5236 15.4076 11.527 15.4525 11.5236 15.5039C11.5202 15.5586 11.5372 15.626 11.5576 15.6549C11.595 15.7031 11.5984 15.6999 11.5916 15.6228C11.5848 15.5746 11.595 15.5361 11.6121 15.5361C11.6631 15.5361 11.6495 15.9762 11.595 15.9955C11.5712 16.0051 11.5304 15.9955 11.51 15.9762C11.4556 15.9248 11.3773 16.0019 11.4215 16.063C11.4419 16.0887 11.6733 16.3361 11.9387 16.6124C12.711 17.4124 13.1397 17.9104 13.1397 18.0067C13.1397 18.0517 13.0852 18.7842 13.0206 19.6324C12.8879 21.3192 12.8369 22.5979 12.8947 22.7392C12.9457 22.8581 13.0784 22.916 13.4255 22.9738C14.1229 23.0862 14.9735 23.1023 20.9989 23.1023C26.4833 23.1023 26.8814 23.0991 27.0583 23.0477C27.1638 23.0155 27.2863 22.9641 27.3305 22.932L27.4088 22.871L27.3679 22.2637C27.3441 21.9296 27.3033 21.3642 27.2693 21.0075L27.2114 20.3617L27.1128 20.3425L27.0141 20.3232L27.0277 19.8895C27.0311 19.6517 27.0277 19.4493 27.0107 19.4429C26.9971 19.4332 27.0039 19.4332 27.0277 19.4364C27.0515 19.4429 27.0685 19.4814 27.0651 19.5232C27.0583 19.5907 27.0583 19.5939 27.0923 19.5425C27.1196 19.4975 27.1162 19.4686 27.0685 19.4204C27.0379 19.3883 27.0209 19.3497 27.0311 19.3401C27.0447 19.3272 27.0855 19.3529 27.123 19.3947L27.191 19.4718L27.1332 19.3658L27.0719 19.263L26.9903 19.3497C26.9392 19.4075 26.9188 19.4204 26.9324 19.3818C26.9426 19.3497 26.9529 19.3176 26.9529 19.3111C26.9529 19.3015 26.9835 19.2822 27.0175 19.263C27.1026 19.2212 27.191 19.2533 27.1672 19.3176C27.1196 19.4364 27.9633 18.5947 28.2525 18.2348C29.4773 16.7152 30.8144 14.8389 31.3078 13.9489C32.0631 12.5931 32.8932 10.3088 33.0905 9.04614C33.145 8.68951 33.179 8.25257 33.1552 8.1851C33.145 8.16582 33.1246 8.15618 33.1041 8.16582C33.0633 8.19152 33.0089 8.12084 33.0089 8.04052C33.0089 8.00839 33.0361 7.9859 33.0769 7.9859C33.1688 7.9859 33.1722 7.83811 33.0803 7.8092C33.0055 7.78671 32.9578 7.69675 33.0055 7.66783C33.0225 7.65819 33.0429 7.61964 33.0565 7.5843C33.0667 7.54895 33.0701 7.57466 33.0599 7.63892C33.0531 7.70638 33.0599 7.76743 33.0769 7.77707C33.128 7.8092 33.0939 7.48791 33.0361 7.4108C32.9851 7.34333 32.9851 7.34655 32.9987 7.49434C33.0089 7.57787 33.0055 7.6357 32.9885 7.62285C32.951 7.58751 32.9476 7.11843 32.9885 7.11843C33.0021 7.11843 33.0055 7.07024 32.9953 7.01241C32.9817 6.95779 32.9647 6.8357 32.9544 6.74896C32.9238 6.51764 32.7605 6.0582 32.5802 5.71121C32.3659 5.29354 32.1447 5.09114 31.6378 4.8566C31.0322 4.57387 30.4334 4.46142 29.7087 4.49355C29.2494 4.51283 28.9738 4.59636 28.3852 4.88873C27.7558 5.20358 27.3679 5.47346 26.6126 6.1321C26.3779 6.3345 26.1839 6.49515 26.1771 6.49193C26.1703 6.48551 26.1839 6.22527 26.2078 5.91362C26.2282 5.59876 26.2384 5.11684 26.2282 4.84053C26.201 4.08873 26.0819 3.67427 25.8573 3.56504C25.7348 3.50399 25.2551 3.45901 24.7516 3.4558C24.4352 3.4558 24.4012 3.44938 24.4012 3.39797C24.4012 3.20199 24.3195 2.59476 24.2583 2.34737C24.0541 1.50561 23.588 0.850191 22.9892 0.557823C22.717 0.422884 21.8563 0.146582 21.4752 0.0662594C21.1214 -0.00442314 20.3933 -0.0236988 20.1313 0.034132ZM21.3391 0.647783C21.9719 0.760233 22.6728 1.04618 23.0062 1.33212C23.3465 1.61806 23.5132 1.97468 23.588 2.57227C23.6186 2.8293 23.6595 3.08311 23.7037 3.28552L23.7207 3.35299L20.8696 3.36905C19.3046 3.37548 17.9845 3.39476 17.9403 3.40761C17.862 3.43331 17.8586 3.4301 17.879 3.30801C17.9062 3.14737 18.42 2.17067 18.6547 1.83332C18.8997 1.47991 19.4202 0.997982 19.7299 0.843767C20.2028 0.60923 20.7471 0.541759 21.3391 0.647783ZM23.7547 4.03411C24.2889 4.05018 24.9183 4.07267 25.1599 4.08552L25.592 4.10801V6.07105C25.592 7.43651 25.609 8.26863 25.643 8.80517C25.6702 9.22927 25.7485 10.4277 25.8131 11.4718C25.9424 13.5216 26.041 14.9096 26.1193 15.6967C26.2078 16.5899 26.2384 17.0172 26.2724 17.8557C26.3166 18.9385 26.3507 19.2405 26.4357 19.3208C26.5242 19.4043 26.548 19.5778 26.531 20.0726C26.5208 20.4485 26.6194 21.6886 26.7011 22.2059C26.7181 22.3152 26.7113 22.3409 26.6569 22.3601C26.6228 22.373 26.3268 22.3955 26.0002 22.4115C25.1769 22.4501 13.5139 22.4919 13.5139 22.4565C13.5139 22.4405 13.5377 22.3055 13.565 22.1545C13.6262 21.8236 13.6976 21.0332 13.7691 19.9537C13.9392 17.3353 14.6911 10.01 15.2559 5.44134L15.4328 4.0052L15.6403 3.99235C16.0044 3.96664 22.7545 4.00198 23.7547 4.03411ZM30.4742 5.09435C30.7702 5.16503 31.2601 5.36101 31.5289 5.51523C31.7705 5.65338 31.9236 5.88471 32.0801 6.33772C32.1957 6.68149 32.2094 6.70398 32.308 6.72968C32.3897 6.74896 32.4101 6.77145 32.4067 6.82285C32.3965 6.9096 32.4509 6.91603 32.4815 6.8357C32.4985 6.77787 32.6312 6.70077 32.7061 6.70077C32.7265 6.70077 32.7639 6.72326 32.7911 6.74896C32.8388 6.79073 32.8388 6.79715 32.7911 6.79715C32.7639 6.79715 32.7299 6.78109 32.7197 6.76502C32.7095 6.74575 32.6823 6.73289 32.6618 6.73289C32.638 6.73289 32.6414 6.75217 32.6687 6.78109C32.6925 6.80679 32.7367 6.82928 32.7707 6.82928C32.8456 6.82928 32.8626 6.9096 32.8694 7.34012C32.8762 7.60679 32.8694 7.66462 32.832 7.64534C32.8013 7.62928 32.8047 7.63892 32.8388 7.68068C32.866 7.71281 32.8728 7.73209 32.849 7.71924C32.8286 7.70638 32.8013 7.7096 32.7877 7.72887C32.7775 7.74494 32.7911 7.761 32.8218 7.761C32.8524 7.761 32.8694 7.77385 32.8592 7.78671C32.8388 7.81883 32.6959 7.81241 32.638 7.78028C32.6074 7.761 32.5972 7.64855 32.6006 7.36261C32.6074 6.87747 32.6074 6.88711 32.5666 6.9096C32.5496 6.91924 32.5326 6.90639 32.5326 6.88069C32.5326 6.82285 32.6176 6.81 32.6448 6.86141C32.655 6.88069 32.6584 6.87747 32.655 6.85498C32.638 6.78109 32.5292 6.78751 32.5087 6.8582C32.4985 6.89675 32.4815 6.92566 32.4679 6.92566C32.4407 6.92566 32.4509 8.04373 32.4815 8.25257C32.5768 8.9626 31.5901 11.8252 30.6137 13.663C30.0625 14.7039 29.3821 15.671 27.7048 17.8011C27.3849 18.2059 27.1094 18.5433 27.0923 18.5497C27.0651 18.5593 26.9869 17.875 26.9869 17.6212C26.9869 17.4638 26.9869 17.4606 27.3815 17.0204C28.0858 16.2365 29.7325 13.7529 30.1374 12.863C30.6001 11.8509 31.2227 10.0646 31.3792 9.29995C31.4574 8.91441 31.4847 8.22044 31.4336 7.91201C31.4098 7.77707 31.3996 7.76422 31.3418 7.79313C31.2567 7.8349 31.2397 7.8349 31.2397 7.77707C31.2397 7.75136 31.2261 7.72887 31.2057 7.72887C31.1887 7.72887 31.1853 7.75136 31.1955 7.78349C31.2091 7.81883 31.2057 7.82847 31.1785 7.81241C31.1546 7.79956 31.1376 7.761 31.1376 7.72566C31.1376 7.69032 31.124 7.66783 31.1104 7.67747C31.0798 7.69675 31.0662 7.63892 31.0662 7.49112C31.0662 7.37868 31.2023 7.22446 31.2465 7.2855C31.2635 7.31442 31.2737 7.29835 31.2737 7.24052C31.2737 7.09916 31.2397 7.05418 31.1342 7.05418C31.0798 7.05418 31.0356 7.03811 31.0356 7.02205C31.0356 7.00277 31.073 6.99635 31.124 7.0092C31.1887 7.02526 31.2091 7.02205 31.1921 6.99314C31.1785 6.97386 31.1546 6.96422 31.1376 6.97386C31.124 6.98028 31.1036 6.95458 31.0968 6.9096C31.0866 6.86462 31.0934 6.82928 31.107 6.82928C31.124 6.82928 31.1172 6.78109 31.0934 6.72326C31.0356 6.59153 30.9845 6.60438 30.9913 6.74896C30.9947 6.81 30.9845 6.85498 30.9709 6.84856C30.9573 6.83892 30.9471 6.86141 30.9471 6.89354C30.9471 6.92566 30.9607 6.94494 30.9743 6.93852C30.9879 6.92888 31.0015 6.96422 31.0015 7.01884C31.0015 7.07024 30.9879 7.12486 30.9675 7.1345C30.9505 7.14414 30.9335 7.17305 30.9335 7.19233C30.9335 7.22125 30.9437 7.21803 30.9607 7.18912C30.9811 7.16341 30.9913 7.18269 30.9913 7.24695C30.9913 7.30799 30.9811 7.33048 30.9641 7.30478C30.9471 7.27908 30.9369 7.28872 30.9437 7.3337C30.9437 7.37225 30.9573 7.39795 30.9709 7.38831C30.9845 7.38189 30.9947 7.43972 30.9947 7.51683C30.9913 7.63249 30.9811 7.65498 30.9369 7.63892C30.8927 7.62285 30.8927 7.62928 30.9437 7.67747C30.9743 7.70638 31.0015 7.75136 31.0015 7.77064C31.0015 7.79634 30.9913 7.79313 30.9709 7.76422C30.9539 7.73851 30.9437 7.9602 30.9471 8.29433C30.9505 8.97224 30.9267 9.07827 30.5593 10.0582C29.7971 12.0758 29.0861 13.6084 28.4601 14.5883C28.1539 15.0638 27.6877 15.7288 27.2659 16.2879C26.9801 16.667 26.9733 16.6702 26.9461 16.577C26.844 16.2333 26.7827 15.4718 26.4085 10.0903C26.3711 9.54091 26.3404 9.0622 26.3404 9.02365C26.3404 8.97545 26.582 8.7377 27.1502 8.23008C28.3138 7.18912 28.8411 6.79394 29.314 6.61081C29.5556 6.51764 29.9026 6.48551 30.1068 6.53691C30.3245 6.59153 30.5627 6.76181 30.6443 6.91603C30.6817 6.98992 30.7328 7.05097 30.7566 7.05418C30.777 7.05418 30.7974 7.04775 30.7974 7.04133C30.7974 7.0349 30.8076 6.99956 30.8212 6.96743C30.8416 6.91924 30.8348 6.91603 30.794 6.94815C30.7498 6.98028 30.743 6.95779 30.7362 6.77787C30.7294 6.61402 30.7362 6.57225 30.7702 6.59153C30.8076 6.61081 30.8076 6.60759 30.7702 6.56583C30.7362 6.52727 30.7362 6.51121 30.7736 6.48229C30.8212 6.44374 30.9301 6.48872 30.8893 6.53049C30.8723 6.54334 30.8484 6.5337 30.8314 6.508C30.811 6.47908 30.7974 6.47587 30.7974 6.49836C30.7974 6.55619 30.8655 6.5851 30.9097 6.54012C30.9403 6.51121 30.9029 6.46302 30.7498 6.32808C30.5116 6.12246 30.3347 6.03571 30.0489 5.98752C29.6134 5.91683 29.0112 6.06784 28.5179 6.37627C27.9565 6.72647 26.8474 7.69675 26.4833 8.15618C26.286 8.41 26.303 8.4357 26.218 7.78671L26.1601 7.34655L26.582 6.96422C27.2897 6.32165 27.4904 6.14816 27.8102 5.91041C28.1947 5.62125 28.4396 5.48631 28.8989 5.30318C29.5896 5.02688 29.9809 4.97547 30.4742 5.09435ZM2.43615 6.72647C2.44296 6.73932 2.42254 6.75538 2.38512 6.75538C2.3477 6.7586 2.32728 6.74896 2.33749 6.72968C2.3613 6.69434 2.41234 6.69113 2.43615 6.72647ZM32.9647 7.0606C32.9544 7.08309 32.9476 7.06703 32.9476 7.02205C32.9476 6.97707 32.9544 6.96101 32.9647 6.98028C32.9715 7.00277 32.9715 7.04133 32.9647 7.0606ZM6.39639 8.84373C6.52227 8.94333 6.91693 9.23248 7.27077 9.47987C7.87297 9.90396 8.29145 10.1867 10.0334 11.3465C10.8159 11.867 11.4147 12.2815 12.1156 12.7827C12.3844 12.9754 12.7552 13.226 12.9389 13.3385C13.1261 13.4509 13.3472 13.6052 13.4289 13.6758C13.565 13.7947 13.582 13.8236 13.582 13.9521C13.582 14.267 13.286 16.7409 13.2383 16.8212C13.2043 16.879 12.6906 16.3939 11.8298 15.4879C11.5134 15.1505 10.7989 14.4084 10.2477 13.8365C9.69658 13.2646 9.15222 12.6991 9.03995 12.5803C7.28778 10.7168 6.10379 9.43168 5.90306 9.17465C5.87244 9.13288 5.88945 9.07827 6.00513 8.89192C6.08338 8.76662 6.15142 8.6606 6.15823 8.6606C6.16163 8.6606 6.2705 8.74413 6.39639 8.84373ZM11.4862 15.2694C11.4998 15.2855 11.5304 15.2951 11.5508 15.2951C11.5746 15.2951 11.5916 15.3112 11.5916 15.3337C11.5916 15.3529 11.6018 15.3818 11.6189 15.3947C11.6597 15.4365 11.6461 15.5039 11.5916 15.5039C11.5304 15.5039 11.5236 15.4397 11.5848 15.4397C11.6087 15.4397 11.6018 15.4236 11.5678 15.4076C11.4998 15.369 11.3365 15.4172 11.3331 15.4782C11.3331 15.5007 11.3161 15.4782 11.2956 15.43C11.2684 15.3626 11.2718 15.3272 11.3024 15.3015C11.3365 15.2726 11.3399 15.2726 11.3229 15.3015C11.3127 15.3208 11.3161 15.3465 11.3331 15.3561C11.3501 15.3658 11.3705 15.3465 11.3807 15.3112C11.3977 15.2437 11.4419 15.2276 11.4862 15.2694ZM11.2684 15.4365C11.2684 15.4557 11.2548 15.4782 11.2344 15.4879C11.2174 15.4975 11.2004 15.4847 11.2004 15.459C11.2004 15.43 11.2174 15.4076 11.2344 15.4076C11.2548 15.4076 11.2684 15.4204 11.2684 15.4365ZM26.8984 19.2597C26.912 19.2758 26.9052 19.3272 26.8848 19.3722C26.8644 19.4236 26.8644 19.4557 26.8848 19.4557C26.9052 19.4557 26.9154 19.6356 26.9086 19.8959L26.9018 20.3393H26.7827H26.6637L26.6603 19.8252C26.6569 19.5425 26.6637 19.2919 26.6705 19.2694C26.6909 19.2244 26.8712 19.2148 26.8984 19.2597Z" fill="black"/>
<path d="M17.0727 4.58644C16.9774 4.7246 16.9468 4.96556 16.9264 5.71094C16.9094 6.4274 16.9264 6.79688 16.9842 6.79688C17.0557 6.79688 17.2088 5.77198 17.2428 5.07801C17.2632 4.6507 17.2632 4.625 17.1952 4.57038C17.1271 4.51255 17.1237 4.51255 17.0727 4.58644Z" fill="black"/>
<path d="M16.052 4.87611C16.0418 5.00463 16.0146 5.37089 15.9942 5.68896C15.9772 6.00703 15.9398 6.55 15.9125 6.89377C15.8377 7.88333 15.7799 9.27449 15.8071 9.41264C15.8207 9.48332 15.8445 9.52509 15.8615 9.50902C15.9772 9.39979 16.2221 7.01265 16.2562 5.6729C16.2766 4.84398 16.2596 4.66728 16.1439 4.65121C16.0793 4.64158 16.069 4.66085 16.052 4.87611Z" fill="black"/>
<path d="M17.8892 4.87612C17.8586 4.995 17.8654 5.66648 17.8995 5.68897C17.9845 5.73716 18.0764 5.05604 18.0083 4.89219C17.9641 4.78616 17.9165 4.77974 17.8892 4.87612Z" fill="black"/>
<path d="M25.1973 17.6723C25.1497 17.7398 25.1463 17.7976 25.1633 18C25.1905 18.2635 25.2789 18.5623 25.3402 18.5783C25.4252 18.604 25.4525 17.9775 25.3776 17.7398C25.3266 17.5824 25.2721 17.5631 25.1973 17.6723Z" fill="black"/>
<path d="M14.9633 18.0485C14.8544 18.2926 14.6367 20.1464 14.5823 21.2709C14.5652 21.6372 14.572 21.7336 14.6095 21.7818C14.7183 21.9135 14.783 21.7593 14.8408 21.2227C14.9123 20.5737 15.079 18.4661 15.079 18.2252C15.079 17.9521 15.0348 17.8846 14.9633 18.0485Z" fill="black"/>
<path d="M25.4491 19.9054C25.4593 20.2363 25.4525 20.3552 25.4219 20.3552C25.3742 20.3552 25.3878 20.4676 25.4967 21.0941C25.6022 21.711 25.7281 21.8652 25.7281 21.3736C25.7281 21.1038 25.6532 20.4708 25.592 20.2427C25.575 20.172 25.558 20.0339 25.558 19.9343C25.558 19.6708 25.5205 19.4556 25.4763 19.4556C25.4491 19.4556 25.4423 19.5873 25.4491 19.9054Z" fill="black"/>
<path d="M26.4153 19.52C26.4153 19.5649 26.4221 19.581 26.4323 19.5585C26.4391 19.5392 26.4391 19.5007 26.4323 19.4782C26.4221 19.4589 26.4153 19.475 26.4153 19.52Z" fill="black"/>
<path d="M25.3776 19.5428C25.364 19.5525 25.3538 19.5782 25.3538 19.5974C25.3538 19.6167 25.3708 19.6135 25.3946 19.591C25.4151 19.5717 25.4253 19.546 25.4185 19.5364C25.4083 19.5268 25.3878 19.53 25.3776 19.5428Z" fill="black"/>
<path d="M26.4663 19.8573C26.4765 19.9633 26.4901 20.0565 26.4969 20.0629C26.5207 20.0886 26.5037 19.8252 26.4765 19.7449C26.4595 19.6935 26.4561 19.7384 26.4663 19.8573Z" fill="black"/>
<path d="M25.3606 19.9216C25.3606 19.973 25.3674 19.9923 25.3776 19.9601C25.3844 19.9312 25.3844 19.8862 25.3776 19.8637C25.3674 19.8445 25.3606 19.867 25.3606 19.9216Z" fill="black"/>
<path d="M25.3946 20.1624C25.3946 20.2235 25.4014 20.2492 25.4116 20.217C25.4184 20.1881 25.4184 20.1367 25.4116 20.1046C25.4014 20.0757 25.3946 20.1014 25.3946 20.1624Z" fill="black"/>
<path d="M15.7016 21.0205C15.671 21.0912 15.6403 21.2775 15.6301 21.4542C15.6131 21.8012 15.6403 21.843 15.79 21.692C15.9431 21.5378 16.0078 21.1715 15.9125 20.998C15.8411 20.8695 15.7662 20.8759 15.7016 21.0205Z" fill="black"/>
<path d="M32.2978 6.8197C32.2638 6.85504 32.2638 6.87432 32.291 6.89681C32.3114 6.91287 32.3216 6.91608 32.3114 6.90644C32.3012 6.89359 32.3114 6.86468 32.3352 6.83897C32.3863 6.77793 32.3556 6.76187 32.2978 6.8197Z" fill="black"/>
<path d="M32.7095 6.94159C32.7095 6.99299 32.7163 7.01227 32.7265 6.98014C32.7333 6.95123 32.7333 6.90625 32.7265 6.88376C32.7163 6.86448 32.7095 6.88697 32.7095 6.94159Z" fill="black"/>
<path d="M32.7775 6.92547C32.7775 6.97045 32.7843 6.98652 32.7945 6.96403C32.8013 6.94475 32.8013 6.9062 32.7945 6.88371C32.7843 6.86443 32.7775 6.88049 32.7775 6.92547Z" fill="black"/>
<path d="M30.8723 7.02191C30.8723 7.06689 30.8791 7.08295 30.8893 7.06046C30.8961 7.04119 30.8961 7.00263 30.8893 6.98014C30.8791 6.96087 30.8723 6.97693 30.8723 7.02191Z" fill="black"/>
<path d="M32.3658 7.07014C32.3692 7.13118 32.4271 7.23399 32.4271 7.18259C32.4271 7.15689 32.4135 7.11191 32.3965 7.0862C32.3795 7.0605 32.3658 7.05086 32.3658 7.07014Z" fill="black"/>
<path d="M32.3658 7.31118C32.3658 7.33689 32.3795 7.38187 32.3965 7.40757C32.4373 7.4654 32.4373 7.414 32.3965 7.32725C32.3761 7.28548 32.3658 7.27906 32.3658 7.31118Z" fill="black"/>
<path d="M31.1716 7.34041C31.1716 7.35969 31.1852 7.38218 31.2057 7.39182C31.2261 7.40146 31.2295 7.38861 31.2193 7.3629C31.1954 7.30507 31.1716 7.29543 31.1716 7.34041Z" fill="black"/>
<path d="M31.2941 7.42711C31.3077 7.48815 31.2975 7.53634 31.2771 7.54919C31.2567 7.56205 31.2431 7.60381 31.2431 7.64237C31.2465 7.69699 31.2499 7.7002 31.2635 7.65522C31.2703 7.6263 31.2941 7.6006 31.3111 7.6006C31.3316 7.6006 31.3384 7.61345 31.3282 7.6263C31.3214 7.63915 31.3282 7.67128 31.3452 7.69699C31.3928 7.76124 31.3554 7.45602 31.3077 7.38213C31.2839 7.34036 31.2805 7.35321 31.2941 7.42711Z" fill="black"/>
<path d="M31.2295 7.46227C31.2159 7.4719 31.2057 7.49761 31.2057 7.51688C31.2057 7.53616 31.2227 7.53295 31.2465 7.51046C31.2669 7.49118 31.2771 7.46548 31.2703 7.45584C31.2601 7.4462 31.2397 7.44941 31.2295 7.46227Z" fill="black"/>
<path d="M11.4487 15.3275C11.4487 15.3532 11.4623 15.3661 11.4794 15.3564C11.4964 15.3468 11.4998 15.3243 11.4896 15.3082C11.4589 15.2665 11.4487 15.2729 11.4487 15.3275Z" fill="black"/>
<path d="M26.7181 19.3146C26.7181 19.3499 26.7283 19.3596 26.7385 19.3339C26.7487 19.3114 26.7453 19.2825 26.7351 19.2728C26.7249 19.26 26.7147 19.2792 26.7181 19.3146Z" fill="black"/>
<path d="M26.7827 19.2761C26.7827 19.2825 26.8065 19.2986 26.8372 19.3082C26.8644 19.3179 26.878 19.3146 26.8678 19.2954C26.8474 19.2632 26.7827 19.2504 26.7827 19.2761Z" fill="black"/>
<path d="M26.7827 19.3595C26.7827 19.3755 26.7997 19.3916 26.8201 19.3916C26.8372 19.3916 26.844 19.3755 26.8337 19.3595C26.8235 19.3402 26.8065 19.3273 26.7963 19.3273C26.7895 19.3273 26.7827 19.3402 26.7827 19.3595Z" fill="black"/>
<path d="M26.861 19.8412C26.861 19.9215 26.8678 19.9536 26.8746 19.9118C26.8813 19.8733 26.8813 19.809 26.8746 19.7673C26.8678 19.7287 26.861 19.7608 26.861 19.8412Z" fill="black"/>
<path d="M26.7147 20.2909C26.7419 20.307 26.7963 20.3198 26.8338 20.3198H26.9018L26.8338 20.2909C26.7963 20.2748 26.7419 20.262 26.7147 20.262C26.6705 20.2588 26.6705 20.262 26.7147 20.2909Z" fill="black"/>
<path d="M2.46338 7.00604C2.46338 7.05745 2.47018 7.07672 2.48039 7.0446C2.48719 7.01568 2.48719 6.9707 2.48039 6.94821C2.47018 6.92893 2.46338 6.95142 2.46338 7.00604Z" fill="black"/>
<path d="M2.3205 7.03487C2.3205 7.06058 2.3341 7.08949 2.35112 7.09913C2.36813 7.11198 2.37493 7.08949 2.36473 7.05415C2.34431 6.98025 2.3205 6.97062 2.3205 7.03487Z" fill="black"/>
<path d="M33.0157 7.19914C33.0157 7.23448 33.0259 7.29231 33.0429 7.32765C33.0803 7.40797 33.0803 7.32444 33.0429 7.2152C33.0225 7.15095 33.0157 7.14773 33.0157 7.19914Z" fill="black"/>
<path d="M2.00064 7.3373C1.99044 7.35336 2.00404 7.36621 2.03126 7.36621C2.05848 7.36621 2.07209 7.35336 2.06188 7.3373C2.05168 7.32444 2.03807 7.31159 2.03126 7.31159C2.02446 7.31159 2.01085 7.32444 2.00064 7.3373Z" fill="black"/>
<path d="M11.3875 15.7093C11.3263 15.796 11.3467 15.8764 11.442 15.8989C11.4794 15.9085 11.4998 15.9021 11.4862 15.8828C11.4726 15.8635 11.4828 15.8571 11.51 15.8635C11.5372 15.8732 11.5542 15.9085 11.5474 15.9406C11.5406 15.992 11.544 15.992 11.5713 15.9535C11.5917 15.9246 11.5917 15.8924 11.5747 15.8764C11.5611 15.8635 11.5508 15.8314 11.5542 15.8121C11.5611 15.7928 11.5577 15.7864 11.5508 15.7993C11.51 15.8667 11.4692 15.8153 11.4896 15.7286C11.5168 15.6129 11.4624 15.6001 11.3875 15.7093Z" fill="black"/>
<path d="M11.2684 15.8538C11.2684 15.8731 11.282 15.8956 11.3025 15.9052C11.3229 15.9149 11.3263 15.902 11.3161 15.8763C11.2922 15.8185 11.2684 15.8089 11.2684 15.8538Z" fill="black"/>
<path d="M27.1298 19.9055C27.1298 19.9504 27.1366 19.9665 27.1468 19.944C27.1536 19.9247 27.1536 19.8862 27.1468 19.8637C27.1366 19.8444 27.1298 19.8605 27.1298 19.9055Z" fill="black"/>
<path d="M27.1298 20.1628C27.1298 20.2078 27.1366 20.2238 27.1468 20.2013C27.1536 20.1821 27.1536 20.1435 27.1468 20.121C27.1366 20.1017 27.1298 20.1178 27.1298 20.1628Z" fill="black"/>
<path d="M27.0685 20.2814C27.1025 20.3168 27.1944 20.32 27.1706 20.2878C27.1604 20.2718 27.1297 20.2589 27.0991 20.2589C27.0685 20.2589 27.0549 20.2686 27.0685 20.2814Z" fill="black"/>
<path d="M2.31694 7.33765C2.31694 7.39476 2.301 7.42854 2.25687 7.46818C2.24688 7.47716 2.21245 7.51536 2.21298 7.50168C2.21448 7.46271 2.23292 7.4283 2.24994 7.39425C2.2589 7.37634 2.21417 7.46083 2.19796 7.47742C2.13142 7.54555 2.05515 7.59171 2.00274 7.67034C1.98112 7.70276 1.93933 7.7186 1.92188 7.75351" stroke="black" stroke-width="0.5" stroke-linecap="round"/>
<path d="M1.75555 7.80548C1.83265 7.73539 1.90753 7.69936 2.00045 7.65416C2.10982 7.60095 2.22477 7.53801 2.29848 7.43698C2.3743 7.33309 2.43036 7.2024 2.48909 7.08812C2.53435 7.00005 2.59405 6.92269 2.64157 6.8363C2.66806 6.78814 2.71204 6.71878 2.71204 6.66187" stroke="black" stroke-width="0.5" stroke-linecap="round"/>
<path d="M2.04663 7.46266C2.06232 7.35283 2.20042 7.27361 2.28113 7.21083C2.32558 7.17626 2.35632 7.1295 2.40011 7.09301C2.46495 7.03898 2.52474 6.96932 2.58205 6.90702C2.64902 6.83423 2.69269 6.76016 2.78479 6.71411" stroke="black" stroke-width="0.5" stroke-linecap="round"/>
<path d="M2.45215 7.10925C2.45722 7.02301 2.56756 6.96254 2.61618 6.90131C2.63173 6.88173 2.63156 6.84781 2.64506 6.83431C2.66263 6.81675 2.6868 6.79915 2.69936 6.77656C2.71832 6.74242 2.7393 6.71074 2.75942 6.67721C2.78765 6.63017 2.83345 6.60378 2.86339 6.56054C2.89472 6.51528 2.93801 6.49585 2.99277 6.49585" stroke="black" stroke-width="0.5" stroke-linecap="round"/>
<path d="M2.99272 6.49585C2.99272 6.59619 2.89561 6.70616 2.82984 6.77194C2.78496 6.81681 2.73125 6.85204 2.6866 6.89669C2.64209 6.9412 2.61608 7.00726 2.58725 7.06188C2.50317 7.22121 2.36079 7.3239 2.18699 7.37436C2.07767 7.40609 1.99171 7.41477 1.94267 7.52511C1.93338 7.54602 1.89069 7.68535 1.89069 7.61868" stroke="black" stroke-width="0.5" stroke-linecap="round"/>
<path d="M11.2684 15.3015C11.2957 15.3734 11.3268 15.4445 11.3885 15.495C11.4179 15.519 11.47 15.5836 11.4861 15.6186C11.5364 15.7276 11.6421 15.8344 11.7466 15.8941" stroke="black" stroke-width="0.5" stroke-linecap="round"/>
<path d="M11.1852 15.4265C11.1477 15.4855 11.2788 15.5364 11.31 15.5594C11.3688 15.6026 11.4424 15.6319 11.5064 15.6697C11.5697 15.7071 11.6419 15.7549 11.6952 15.806C11.7396 15.8485 11.7988 15.87 11.8454 15.9094C11.8802 15.9388 11.9223 15.9633 11.965 15.9775" stroke="black" stroke-width="0.5" stroke-linecap="round"/>
<path d="M26.7488 19.0652C26.792 19.2447 26.8424 19.4205 26.8424 19.6058C26.8424 19.673 26.8424 19.7402 26.8424 19.8074C26.8424 19.9692 26.8736 20.4538 26.8736 20.292" stroke="black" stroke-width="0.5" stroke-linecap="round"/>
<path d="M26.7904 19.0862C26.7302 19.357 26.8216 20.1953 26.8216 19.9179" stroke="black" stroke-width="0.5" stroke-linecap="round"/>
<path d="M26.6864 19.0027C26.576 19.069 26.5876 19.268 26.5934 19.3816C26.5972 19.454 26.6295 19.527 26.6547 19.5941C26.6703 19.6357 26.6707 19.6827 26.6772 19.7264C26.6845 19.7761 26.7083 19.8352 26.7222 19.8841C26.7419 19.9528 26.7583 20.0024 26.7592 20.0758C26.7603 20.1656 26.7806 20.2564 26.7881 20.3461C26.7902 20.371 26.7819 20.4167 26.7962 20.4391C26.8015 20.4475 26.8286 20.3923 26.832 20.3854" stroke="black" stroke-width="0.5" stroke-linecap="round"/>
<path d="M26.9775 19.1277C26.9775 19.5749 26.9879 20.0209 26.9879 20.4688" stroke="black" stroke-width="0.5" stroke-linecap="round"/>
<path d="M30.7099 6.5271C30.7261 6.67946 30.9001 6.75519 30.9594 6.88867C31.0003 6.98056 31.0399 7.04876 31.0553 7.15089C31.071 7.2551 31.0946 7.34566 31.0946 7.45239C31.0946 7.55931 31.112 7.6598 31.1362 7.76429" stroke="black" stroke-width="0.5" stroke-linecap="round"/>
<path d="M32.4254 6.4856C32.5562 6.75518 32.6636 7.04939 32.743 7.33811C32.7884 7.50299 32.8178 7.66395 32.8476 7.83253C32.8648 7.93003 32.8777 8.01902 32.8851 8.11785C32.8911 8.19736 32.9016 8.27045 32.9244 8.34658" stroke="black" stroke-width="0.5" stroke-linecap="round"/>
<path d="M32.7476 6.96362C32.7476 7.05687 32.7418 7.15224 32.7528 7.24491C32.7647 7.34422 32.7911 7.44145 32.7996 7.54121C32.8095 7.65765 32.8308 7.77155 32.8308 7.88891C32.8308 7.95823 32.8308 8.16616 32.8308 8.09685" stroke="black" stroke-width="0.5" stroke-linecap="round"/>
<path d="M32.6229 6.5686C32.618 6.72772 32.625 6.87907 32.6333 7.03645C32.6364 7.09645 32.6384 7.16377 32.646 7.22359C32.6519 7.2702 32.6728 7.31405 32.6748 7.36105C32.6769 7.40908 32.6823 7.46456 32.698 7.51007C32.718 7.56849 32.7121 7.62023 32.7187 7.68103C32.7216 7.70688 32.7152 7.78683 32.7372 7.75381" stroke="black" stroke-width="0.5" stroke-linecap="round"/>
<path d="M32.7164 6.80786C32.7615 6.8349 32.7645 6.96329 32.7788 7.01117C32.8024 7.09033 32.8183 7.16867 32.8354 7.24914C32.8597 7.36369 32.8828 7.47959 32.8828 7.598C32.8828 7.91357 32.8724 8.22897 32.8724 8.54408" stroke="black" stroke-width="0.5" stroke-linecap="round"/>
</svg>
