<?xml version="1.0" encoding="UTF-8"?>
<svg version="1.1" xmlns="http://www.w3.org/2000/svg" width="512" height="512">
<path d="M0 0 C0.70181396 0.00757324 1.40362793 0.01514648 2.12670898 0.02294922 C10.7223886 0.29526003 16.42279446 3.2752354 22.72265625 8.91796875 C24.125 10.4375 24.125 10.4375 25.4375 13.1875 C27.91484199 16.49062265 30.68166318 16.30103748 34.625 16.92578125 C40.83558196 18.19700974 44.53032397 22.57411479 48.125 27.4375 C48.125 28.0975 48.125 28.7575 48.125 29.4375 C49.218125 29.355 50.31125 29.2725 51.4375 29.1875 C58.17039221 29.19945896 65.12701718 31.60237131 70.5 35.6875 C76.75012474 42.23524973 80.09875351 49.16634478 80.4375 58.3125 C80.24422976 66.27281799 77.708378 73.64630396 72.125 79.4375 C63.13636175 86.89652295 54.62240621 87.71037294 43.3203125 87.5 C41.02214356 87.49106616 38.72396378 87.48463303 36.42578125 87.48046875 C32.83493188 87.46623298 29.24693061 87.43743869 25.65673828 87.36572266 C11.96669577 86.41502468 11.96669577 86.41502468 -0.61230469 90.54589844 C-3.17478887 93.05976927 -5.02338889 95.37411914 -6.875 98.4375 C-7.49793945 99.36071045 -8.12087891 100.2839209 -8.76269531 101.23510742 C-13.02102358 107.71222848 -15.53023669 113.57465969 -14.875 121.4375 C-14.02798259 124.82556964 -12.99118089 128.12944056 -11.875 131.4375 C-11.545 132.4275 -11.215 133.4175 -10.875 134.4375 C-8.65338355 135.56776077 -8.65338355 135.56776077 -5.875 136.4375 C-4.84568359 136.81793457 -3.81636719 137.19836914 -2.75585938 137.59033203 C6.44676675 140.79041696 15.62907599 142.96788537 25.184021 144.83276367 C48.64409747 149.44347557 72.24931887 154.21239042 91.875 168.625 C95.84222991 171.18753665 98.0404376 171.86671236 102.6875 170.875 C111.7322257 167.83625817 120.59243895 163.70378052 129.125 159.4375 C127.88580811 159.42348145 127.88580811 159.42348145 126.62158203 159.40917969 C123.50862331 159.36473997 120.39659076 159.30293936 117.28417969 159.22998047 C115.29384998 159.18841573 113.30314514 159.16625456 111.3125 159.14453125 C100.5087859 158.87171019 91.92392314 157.05278408 83.8828125 149.5 C77.97071477 142.56313867 75.53396058 134.45085119 76.125 125.4375 C78.31469931 115.29403995 82.82789469 108.63288109 91.125 102.4375 C95.33278396 100.09984224 98.47441535 99.38385442 103.1875 99.25 C106.90740542 99.00424274 106.90740542 99.00424274 109.74609375 96.77734375 C110.67857318 95.36409589 111.59755046 93.9418609 112.50390625 92.51171875 C115.45917544 88.73039841 119.67689838 87.00741822 124.125 85.4375 C125.3625 85.334375 126.6 85.23125 127.875 85.125 C132.26674654 84.19597669 133.04601977 82.17076734 135.4609375 78.57421875 C139.61380175 73.24178507 145.71770915 70.20835928 152.125 68.4375 C159.93437234 67.5852081 165.85151366 68.43535265 172.94140625 71.6796875 C176.36022208 72.86618173 178.76397876 71.57682923 182.125 70.4375 C189.91454387 69.69659223 196.6476194 69.71826556 203.125 74.4375 C207.87526154 78.43203811 212.35332695 84.07119733 213.125 90.4375 C213.19220548 93.11021015 213.16958 95.76270009 213.125 98.4375 C213.88683594 98.58445312 214.64867187 98.73140625 215.43359375 98.8828125 C224.84521478 100.92728448 231.88259103 103.84100828 237.5625 111.875 C242.62601998 120.29082268 243.39055954 128.95541266 241.1875 138.4375 C238.66195453 145.99031052 232.8589452 152.3448215 225.8125 156 C221.21807836 157.79104572 217.87242096 158.55056538 212.94921875 158.4375 C211.45938477 158.43943359 211.45938477 158.43943359 209.93945312 158.44140625 C207.86626165 158.43881638 205.79286283 158.40529415 203.72070312 158.33984375 C197.84396879 158.3810155 197.84396879 158.3810155 192.97290039 161.34521484 C191.19822711 163.63656516 189.64570002 165.97219133 188.125 168.4375 C172.76747175 187.00031998 152.10037904 200.0088963 130.125 209.4375 C130.36621582 209.93975098 130.60743164 210.44200195 130.85595703 210.95947266 C133.25455355 215.96310695 135.63019623 220.97703283 137.98388672 226.00195312 C138.66723948 227.46047412 139.35295767 228.91789564 140.04345703 230.37304688 C152.80042359 257.42060438 156.87531083 287.57683508 152.6015625 317.0625 C152.46016846 318.06667969 152.31877441 319.07085937 152.1730957 320.10546875 C151.82822044 322.55015418 151.47879246 324.994092 151.125 327.4375 C152.17878342 327.44336624 153.23256683 327.44923248 154.31828308 327.45527649 C164.25027305 327.51249492 174.18204388 327.58525202 184.11381054 327.67321491 C189.21981922 327.7179382 194.32574775 327.75719009 199.43188477 327.78393555 C204.35980383 327.80994887 209.28741478 327.85033747 214.2151432 327.90068626 C216.09495524 327.91736829 217.97482058 327.92887424 219.85469627 327.93511391 C222.48833881 327.94474044 225.12119071 327.97278216 227.75463867 328.00512695 C228.53147507 328.00369186 229.30831146 328.00225677 230.10868835 328.0007782 C234.62574087 328.07921237 237.51586475 328.6781961 241.125 331.4375 C244.74912233 335.43653154 244.56929646 339.69591003 244.41015625 344.84375 C243.93186554 349.19422989 242.47883471 351.32810767 239.15625 354.05078125 C234.71896188 356.0807262 230.62667932 355.75768763 225.8125 355.625 C224.88115234 355.61146484 223.94980469 355.59792969 222.99023438 355.58398438 C220.70119253 355.54876835 218.41350306 355.49689847 216.125 355.4375 C216.06607071 356.31025322 216.06607071 356.31025322 216.00595093 357.20063782 C215.2788434 366.45810548 213.77226248 375.5712197 212.2890625 384.73046875 C212.00612467 386.48918727 211.72327925 388.24792065 211.44052124 390.00666809 C210.84981637 393.67408526 210.25593449 397.34097215 209.66015625 401.00756836 C208.89991135 405.68981673 208.15085538 410.37378092 207.40455055 415.05826855 C206.82511063 418.68386196 206.2381246 422.30820447 205.6490593 425.93224525 C205.36970386 427.65845904 205.09302859 429.38510892 204.81917191 431.1122036 C204.43503811 433.52952926 204.04032126 435.9449081 203.64306641 438.36010742 C203.47926231 439.41313049 203.47926231 439.41313049 203.31214905 440.48742676 C202.2645135 446.73449798 201.06845171 453.1356487 196.0625 457.375 C192.55527955 459.83751648 191.01370233 460.56191772 186.83149719 460.58467102 C185.47945442 460.59540398 185.47945442 460.59540398 184.10009766 460.60635376 C183.10840576 460.60904266 182.11671387 460.61173157 181.0949707 460.61450195 C180.05253708 460.62107315 179.01010345 460.62764435 177.93608093 460.63441467 C174.4743137 460.65418076 171.01258993 460.66581846 167.55078125 460.67578125 C165.77936296 460.68189454 165.77936296 460.68189454 163.97215843 460.68813133 C157.72012887 460.70900748 151.46812135 460.72330179 145.21606445 460.73266602 C138.75743722 460.74372583 132.29915495 460.77811683 125.8406496 460.81783772 C120.87606669 460.84398499 115.91156612 460.85235627 110.94692039 460.85594749 C108.56630311 460.86081932 106.18568965 460.87245016 103.80513954 460.89098549 C100.47048277 460.91533287 97.13672041 460.91441933 93.80200195 460.9074707 C92.32964584 460.92668579 92.32964584 460.92668579 90.82754517 460.94628906 C84.73080719 460.900045 81.0832671 460.06719621 76.125 456.4375 C74.10044285 453.42958653 72.63604649 450.55453048 71.13671875 447.27734375 C70.80285156 446.56707031 70.46898437 445.85679687 70.125 445.125 C69.691875 444.14080078 69.691875 444.14080078 69.25 443.13671875 C67.79283871 440.93579805 66.56243659 440.42876971 64.125 439.4375 C61.73892298 439.13068147 61.73892298 439.13068147 59.16040039 439.1628418 C58.17580338 439.15330978 57.19120636 439.14377777 56.17677307 439.13395691 C55.11941452 439.13486832 54.06205597 439.13577972 52.97265625 439.13671875 C51.88037216 439.13243362 50.78808807 439.1281485 49.66270447 439.12373352 C47.35367526 439.11799287 45.04462797 439.117488 42.7355957 439.12182617 C39.20427575 439.12498499 35.67379444 439.10152672 32.14257812 439.07617188 C29.89843856 439.07389875 27.65429674 439.07319545 25.41015625 439.07421875 C24.35482193 439.065009 23.29948761 439.05579926 22.21217346 439.04631042 C15.14125341 439.00541052 15.14125341 439.00541052 9.125 442.4375 C7.64338808 444.95604085 7.64338808 444.95604085 6.625 447.8125 C4.10810412 453.7851965 1.23320433 457.87087845 -4.875 460.4375 C-7.03710747 460.69476891 -7.03710747 460.69476891 -9.41574097 460.70492554 C-10.77407547 460.71772049 -10.77407547 460.71772049 -12.15985107 460.73077393 C-13.14592346 460.72986755 -14.13199585 460.72896118 -15.14794922 460.72802734 C-16.19228119 460.73474457 -17.23661316 460.74146179 -18.31259155 460.74838257 C-21.76833847 460.76739596 -25.22389152 460.77128845 -28.6796875 460.7734375 C-31.0809843 460.77986299 -33.4822803 460.78659116 -35.88357544 460.79360962 C-40.91898412 460.80559068 -45.95432416 460.80928957 -50.98974609 460.80810547 C-57.44171426 460.80790221 -63.89324229 460.83520814 -70.34510612 460.86964989 C-75.30536928 460.89188807 -80.26552599 460.89594395 -85.22583389 460.89488602 C-87.60447838 460.89724647 -89.9831256 460.90609487 -92.36172104 460.92155075 C-95.68921478 460.94114802 -99.01575256 460.93539662 -102.34326172 460.92333984 C-103.32528564 460.93457886 -104.30730957 460.94581787 -105.3190918 460.95739746 C-111.01377916 460.904969 -114.3950717 460.31043176 -118.875 456.4375 C-122.08843075 452.42731121 -123.45662964 449.17335709 -124.26171875 444.12890625 C-124.4736084 442.85031738 -124.68549805 441.57172852 -124.90380859 440.25439453 C-125.12366154 438.83630782 -125.34321524 437.41817469 -125.5625 436 C-125.80417038 434.50613174 -126.04721694 433.01248558 -126.29150391 431.51904297 C-126.84310519 428.13346002 -127.38587015 424.74658566 -127.92431641 421.35888672 C-129.00496054 414.58942417 -130.13463697 407.82826341 -131.26171875 401.06640625 C-131.88503989 397.31301434 -132.50753884 393.55948738 -133.12954712 389.80587769 C-133.5427557 387.31286683 -133.95663373 384.81996684 -134.3711853 382.32717896 C-134.9573537 378.79431185 -135.53802487 375.26058399 -136.1171875 371.7265625 C-136.29501266 370.66027115 -136.47283783 369.5939798 -136.65605164 368.49537659 C-136.81708878 367.50641891 -136.97812592 366.51746124 -137.14404297 365.49853516 C-137.28582977 364.63813629 -137.42761658 363.77773743 -137.57369995 362.89126587 C-137.88189754 360.38132693 -137.92784918 357.96363423 -137.875 355.4375 C-138.45467529 355.45321045 -139.03435059 355.4689209 -139.6315918 355.48510742 C-142.27512739 355.54772791 -144.91850655 355.58657518 -147.5625 355.625 C-148.93051758 355.66270508 -148.93051758 355.66270508 -150.32617188 355.70117188 C-158.96004104 355.79535954 -158.96004104 355.79535954 -162.875 352.4375 C-165.74765227 348.81860007 -167.24845614 344.94513445 -166.875 340.3125 C-165.99906324 335.8177942 -164.05319596 331.91504619 -160.17963886 329.28747749 C-156.98723371 328.11008151 -154.21494643 328.19989141 -150.8132782 328.21286011 C-150.10173877 328.21271223 -149.39019934 328.21256436 -148.65709811 328.212412 C-146.27217637 328.21413987 -143.88755376 328.22999763 -141.50268555 328.24560547 C-139.79246708 328.24940412 -138.08224617 328.25221267 -136.37202454 328.25410461 C-132.68667582 328.25955178 -129.00139897 328.27054772 -125.31607628 328.28536606 C-119.47694807 328.30731075 -113.63794319 328.30774912 -107.79878235 328.30349731 C-105.79743101 328.30230387 -103.79607965 328.30113487 -101.79472828 328.2999897 C-100.79229859 328.29940945 -99.7898689 328.2988292 -98.75706255 328.29823136 C-85.16532776 328.29221403 -71.57381168 328.30442162 -57.98217773 328.35839844 C-48.81246694 328.39464148 -39.64320208 328.40220125 -30.47344619 328.37790024 C-25.62631676 328.3662597 -20.7801852 328.36909555 -15.93317223 328.40740585 C-11.36332247 328.44340826 -6.79497792 328.44157109 -2.22509575 328.41217613 C-0.55914742 328.4079928 1.106904 328.41716764 2.77267838 328.44160271 C14.86799827 328.60809652 22.95320469 326.01011929 33.125 319.4375 C29.97953787 317.82224927 26.9086138 316.65260601 23.53125 315.58984375 C-2.5375007 307.24311968 -28.58893532 296.6485004 -50.875 280.4375 C-51.84179688 279.74269531 -52.80859375 279.04789062 -53.8046875 278.33203125 C-59.24952284 274.33679493 -64.51784417 270.15483137 -69.6875 265.8125 C-70.2023999 265.38155029 -70.7172998 264.95060059 -71.24780273 264.5065918 C-73.43103872 262.64770629 -75.51158565 260.87407636 -77.35177612 258.66342163 C-80.48493325 254.99901185 -82.73911696 253.00624398 -87.6418457 252.59863281 C-89.44476347 252.57826169 -91.24834882 252.59409784 -93.05078125 252.640625 C-94.0159819 252.63544861 -94.98118256 252.63027222 -95.97563171 252.62493896 C-99.04730862 252.61309124 -102.11609817 252.64744558 -105.1875 252.6875 C-108.24760396 252.70634925 -111.30707881 252.7149313 -114.36723328 252.70721436 C-116.26508242 252.70456876 -118.16304944 252.71786569 -120.06062317 252.75030518 C-129.92154974 252.78176364 -138.72287488 250.52590909 -145.875 243.4375 C-151.5937243 236.14721788 -153.91046098 228.66372286 -152.875 219.4375 C-151.09198485 211.32365259 -147.64108401 205.34986237 -140.875 200.4375 C-135.7933913 197.73985588 -130.61480055 196.04168953 -124.875 195.4375 C-124.6790625 194.77105469 -124.483125 194.10460937 -124.28125 193.41796875 C-120.46754466 181.66452342 -113.99223508 172.24053902 -102.875 166.4375 C-91.84686941 161.66857867 -79.74927677 160.39539567 -68.26171875 164.3828125 C-62.60823059 166.88108059 -57.10437659 169.86814137 -52.875 174.4375 C-51.225 173.7775 -49.575 173.1175 -47.875 172.4375 C-48.67164063 171.14779297 -48.67164063 171.14779297 -49.484375 169.83203125 C-60.78261673 151.09687077 -63.69368898 131.16880518 -58.859375 109.84765625 C-56.64018668 102.15975384 -52.97478351 95.27047251 -48.875 88.4375 C-49.76960938 88.30214844 -50.66421875 88.16679688 -51.5859375 88.02734375 C-61.15667511 86.32338513 -68.76833089 83.89626262 -74.78515625 75.8984375 C-79.65358442 68.09514128 -80.67808104 61.61072143 -79.875 52.4375 C-77.72302513 43.74352154 -73.19487227 37.22968235 -65.5625 32.5625 C-60.99654465 30.19410479 -56.98178674 29.68068032 -51.875 29.4375 C-51.93300781 28.83164062 -51.99101562 28.22578125 -52.05078125 27.6015625 C-52.43408785 20.48301131 -51.04725879 15.26860867 -46.875 9.4375 C-41.62529463 4.22013367 -35.99788128 1.41905167 -28.5625 1.1875 C-24.54235125 1.24830897 -21.02254791 2.04433775 -17.2109375 3.29296875 C-14.27455076 3.47465154 -12.38842582 2.38656596 -9.77099609 1.16479492 C-6.58649615 -0.05676384 -3.36109716 -0.05100545 0 0 Z M19.125 213.4375 C19.28355469 214.32953125 19.44210938 215.2215625 19.60546875 216.140625 C21.21828888 226.3753633 19.61279365 234.0006452 14 242.75 C6.83123476 249.45123707 -1.33154731 251.3388551 -10.875 252.4375 C6.64826035 266.14996719 39.7406508 278.4375 62.125 278.4375 C65.8063487 271.07480259 63.50304694 257.10898136 61.0234375 249.61328125 C59.72416448 246.46678094 58.27439746 244.09596528 56.125 241.4375 C55.25101563 240.35082031 55.25101563 240.35082031 54.359375 239.2421875 C44.53107873 227.63023747 32.94058936 219.58942657 19.125 213.4375 Z " fill="#927957" transform="translate(216.875,25.5625)"/>
<path d="M0 0 C1.00250494 -0.00480972 1.00250494 -0.00480972 2.0252625 -0.0097166 C4.27481729 -0.01804759 6.52410798 -0.0120816 8.77366734 -0.00622082 C10.39872923 -0.00924009 12.0237897 -0.01312844 13.64884764 -0.01781338 C18.12240162 -0.02813102 22.59587579 -0.02590202 27.06943643 -0.02163279 C31.89091991 -0.01917239 36.71238383 -0.02817116 41.53386021 -0.03567028 C50.98258175 -0.0484383 60.43127491 -0.05020837 69.88000362 -0.04787002 C77.55769173 -0.0460891 85.23537121 -0.04783164 92.91305828 -0.05209446 C94.00456504 -0.05268965 95.09607179 -0.05328484 96.22065451 -0.05389806 C98.43783772 -0.05510978 100.65502092 -0.05632391 102.87220413 -0.05754044 C123.67826638 -0.06842402 144.48431243 -0.06624958 165.2903756 -0.06015559 C184.33715082 -0.05498532 203.38387492 -0.06624335 222.43064003 -0.08525381 C241.97436013 -0.10461119 261.51805601 -0.11289193 281.06178576 -0.10913056 C292.03952374 -0.10721537 303.0172182 -0.10973697 313.99494839 -0.1238451 C323.33998035 -0.13573312 332.68494199 -0.13719284 342.02997487 -0.12505493 C346.8001705 -0.11914816 351.57023734 -0.11811628 356.34042454 -0.13005733 C360.70452346 -0.14085513 365.06838512 -0.13788607 369.43247265 -0.12379565 C371.0138581 -0.1211318 372.59526178 -0.12356777 374.17662942 -0.13153151 C376.32178229 -0.14158727 378.46610238 -0.1332597 380.61122131 -0.12025452 C381.8040329 -0.12030953 382.99684449 -0.12036455 384.22580189 -0.12042123 C388.62094728 0.40387656 391.23558327 2.00432612 394.18103123 5.25447559 C396.35337749 10.74250827 396.35337749 16.76644292 394.18103123 22.25447559 C391.49586628 25.21741623 389.18753265 27.06324774 385.08801365 27.49422169 C382.40469443 27.54951648 379.73885095 27.51591903 377.05603123 27.44197559 C375.65900974 27.42167286 375.65900974 27.42167286 374.2337656 27.40095997 C371.94472376 27.36574394 369.65703429 27.31387406 367.36853123 27.25447559 C367.30960194 28.12722881 367.30960194 28.12722881 367.24948215 29.01761341 C366.52237463 38.27508107 365.01579371 47.38819529 363.53259373 56.54744434 C363.2496559 58.30616286 362.96681047 60.06489625 362.68405247 61.82364368 C362.0933476 65.49106086 361.49946572 69.15794774 360.90368748 72.82454395 C360.14344257 77.50679233 359.3943866 82.19075651 358.64808178 86.87524414 C358.06864186 90.50083756 357.48165582 94.12518007 356.89259052 97.74922085 C356.61323509 99.47543464 356.33655981 101.20208452 356.06270313 102.92917919 C355.67856933 105.34650486 355.28385249 107.76188369 354.88659763 110.17708302 C354.72279354 111.23010609 354.72279354 111.23010609 354.55568027 112.30440235 C353.50804473 118.55147357 352.31198294 124.95262429 347.30603123 129.19197559 C343.79881078 131.65449208 342.25723356 132.37889332 338.07502842 132.40164661 C336.72298565 132.41237957 336.72298565 132.41237957 335.34362888 132.42332935 C334.35193699 132.42601826 333.36024509 132.42870716 332.33850193 132.43147755 C331.29606831 132.43804874 330.25363468 132.44461994 329.17961216 132.45139027 C325.71784492 132.47115636 322.25612116 132.48279405 318.79431248 132.49275684 C317.02289418 132.49887013 317.02289418 132.49887013 315.21568966 132.50510693 C308.9636601 132.52598307 302.71165258 132.54027738 296.45959568 132.54964161 C290.00096844 132.56070142 283.54268618 132.59509242 277.08418083 132.63481331 C272.11959791 132.66096058 267.15509734 132.66933186 262.19045162 132.67292309 C259.80983434 132.67779491 257.42922088 132.68942575 255.04867077 132.70796108 C251.714014 132.73230846 248.38025163 132.73139492 245.04553318 132.7244463 C243.57317707 132.74366138 243.57317707 132.74366138 242.07107639 132.76326466 C235.97433841 132.71702059 232.32679833 131.88417181 227.36853123 128.25447559 C225.34397408 125.24656212 223.87957772 122.37150607 222.38024998 119.09431934 C221.8794492 118.02890919 221.8794492 118.02890919 221.36853123 116.94197559 C221.07978123 116.28584278 220.79103123 115.62970997 220.49353123 114.95369434 C219.03636994 112.75277365 217.80596781 112.2457453 215.36853123 111.25447559 C212.98245421 110.94765706 212.98245421 110.94765706 210.40393162 110.97981739 C208.92703609 110.96551937 208.92703609 110.96551937 207.4203043 110.9509325 C206.36294575 110.95184391 205.3055872 110.95275532 204.21618748 110.95369434 C203.12390339 110.94940922 202.0316193 110.94512409 200.90623569 110.94070911 C198.59720649 110.93496847 196.2881592 110.93446359 193.97912693 110.93880177 C190.44780698 110.94196059 186.91732567 110.91850232 183.38610935 110.89314747 C181.14196978 110.89087434 178.89782796 110.89017104 176.65368748 110.89119434 C175.59835316 110.8819846 174.54301884 110.87277485 173.45570469 110.86328602 C166.38478464 110.82238611 166.38478464 110.82238611 160.36853123 114.25447559 C158.88691931 116.77301645 158.88691931 116.77301645 157.86853123 119.62947559 C155.35163534 125.60217209 152.47673556 129.68785404 146.36853123 132.25447559 C144.20642376 132.5117445 144.20642376 132.5117445 141.82779026 132.52190113 C140.46945576 132.53469608 140.46945576 132.53469608 139.08368015 132.54774952 C138.09760777 132.54684315 137.11153538 132.54593678 136.09558201 132.54500294 C135.05125004 132.55172016 134.00691807 132.55843739 132.93093967 132.56535816 C129.47519276 132.58437155 126.01963971 132.58826404 122.56384373 132.59041309 C120.16254693 132.59683858 117.76125093 132.60356675 115.35995579 132.61058521 C110.3245471 132.62256627 105.28920707 132.62626517 100.25378513 132.62508106 C93.80181697 132.62487781 87.35028894 132.65218374 80.8984251 132.68662548 C75.93816195 132.70886366 70.97800524 132.71291954 66.01769733 132.71186161 C63.63905285 132.71422206 61.26040563 132.72307047 58.88181019 132.73852634 C55.55431645 132.75812362 52.22777867 132.75237221 48.90026951 132.74031544 C47.91824558 132.75155445 46.93622166 132.76279346 45.92443943 132.77437305 C40.22975207 132.7219446 36.84845953 132.12740735 32.36853123 128.25447559 C29.15510048 124.24428681 27.78690159 120.99033269 26.98181248 115.94588184 C26.76992283 114.66729298 26.55803318 113.38870411 26.33972263 112.07137012 C26.11986969 110.65328341 25.90031598 109.23515028 25.68103123 107.81697559 C25.43936085 106.32310733 25.19631429 104.82946117 24.95202732 103.33601856 C24.40042604 99.95043561 23.85766107 96.56356125 23.31921482 93.17586231 C22.23857069 86.40639977 21.10889426 79.645239 19.98181248 72.88338184 C19.35849134 69.12998993 18.73599239 65.37646297 18.11398411 61.62285328 C17.70077553 59.12984242 17.28689749 56.63694244 16.87234592 54.14415455 C16.28617752 50.61128745 15.70550636 47.07755958 15.12634373 43.54353809 C14.94851856 42.47724674 14.7706934 41.41095539 14.58747959 40.31235218 C14.34592388 38.82891567 14.34592388 38.82891567 14.09948826 37.31551075 C13.95770145 36.45511189 13.81591465 35.59471302 13.66983128 34.70824146 C13.36163369 32.19830252 13.31568205 29.78060982 13.36853123 27.25447559 C12.78885593 27.27018604 12.20918064 27.28589649 11.61193943 27.30208302 C8.96840384 27.3647035 6.32502468 27.40355078 3.68103123 27.44197559 C2.76901951 27.46711231 1.85700779 27.49224903 0.91735935 27.51814747 C-7.71650981 27.61233513 -7.71650981 27.61233513 -11.63146877 24.25447559 C-14.50412105 20.63557566 -16.00492491 16.76211004 -15.63146877 12.12947559 C-14.86199151 8.18104679 -13.21672752 5.35678609 -10.63146877 2.25447559 C-7.15988926 -0.0598902 -4.10623583 0.00298427 0 0 Z " fill="#D8AE48" transform="translate(65.63146877288818,353.7455244064331)"/>
<path d="M0 0 C111.54 0 223.08 0 338 0 C336.84104581 15.06640452 336.84104581 15.06640452 335.73046875 21.71484375 C335.54705681 22.83119957 335.54705681 22.83119957 335.35993958 23.97010803 C335.10336359 25.51550767 334.84366043 27.06039141 334.58081055 28.60473633 C334.18432648 30.95632249 333.80983453 33.31080748 333.43554688 35.66601562 C333.18102167 37.18251619 332.92520877 38.69880133 332.66796875 40.21484375 C332.56050827 40.90867661 332.45304779 41.60250946 332.34233093 42.31736755 C331.28329961 48.2968354 329.10845208 52.18517555 324.51333618 56.1403656 C319.73937035 58.66726045 315.83809369 58.56167223 310.51586914 58.51757812 C309.47285141 58.5245874 308.42983368 58.53159668 307.35520935 58.53881836 C303.91491906 58.55639166 300.47545461 58.54477645 297.03515625 58.53125 C294.63911278 58.53394529 292.24307037 58.53782802 289.84703064 58.54284668 C284.82768327 58.54874103 279.80862086 58.54018116 274.78930664 58.52148438 C268.362107 58.49870767 261.93557597 58.51181089 255.50840092 58.53577423 C250.56093835 58.55024413 245.61363368 58.54562043 240.66616631 58.53526306 C238.29673623 58.53259846 235.92729172 58.53585613 233.55787849 58.54518127 C230.24270924 58.55536461 226.92861482 58.53981879 223.61352539 58.51757812 C222.63823883 58.52567505 221.66295227 58.53377197 220.65811157 58.54211426 C214.58809658 58.466851 210.94035742 57.60681611 206 54 C203.97544285 50.99208653 202.51104649 48.11703048 201.01171875 44.83984375 C200.67785156 44.12957031 200.34398437 43.41929687 200 42.6875 C199.566875 41.70330078 199.566875 41.70330078 199.125 40.69921875 C197.66783871 38.49829805 196.43743659 37.99126971 194 37 C191.61392298 36.69318147 191.61392298 36.69318147 189.03540039 36.7253418 C188.05080338 36.71580978 187.06620636 36.70627777 186.05177307 36.69645691 C184.99441452 36.69736832 183.93705597 36.69827972 182.84765625 36.69921875 C181.75537216 36.69493362 180.66308807 36.6906485 179.53770447 36.68623352 C177.22867526 36.68049287 174.91962797 36.679988 172.6105957 36.68432617 C169.07927575 36.68748499 165.54879444 36.66402672 162.01757812 36.63867188 C159.77343856 36.63639875 157.52929674 36.63569545 155.28515625 36.63671875 C154.22982193 36.627509 153.17448761 36.61829926 152.08717346 36.60881042 C145.01625341 36.56791052 145.01625341 36.56791052 139 40 C137.51838808 42.51854085 137.51838808 42.51854085 136.5 45.375 C133.98310412 51.3476965 131.10820433 55.43337845 125 58 C122.83789253 58.25726891 122.83789253 58.25726891 120.45925903 58.26742554 C119.10092453 58.28022049 119.10092453 58.28022049 117.71514893 58.29327393 C116.72907654 58.29236755 115.74300415 58.29146118 114.72705078 58.29052734 C113.68271881 58.29724457 112.63838684 58.30396179 111.56240845 58.31088257 C108.10666153 58.32989596 104.65110848 58.33378845 101.1953125 58.3359375 C98.7940157 58.34236299 96.3927197 58.34909116 93.99142456 58.35610962 C88.95601588 58.36809068 83.92067584 58.37178957 78.88525391 58.37060547 C72.43328574 58.37040221 65.98175771 58.39770814 59.52989388 58.43214989 C54.56963072 58.45438807 49.60947401 58.45844395 44.64916611 58.45738602 C42.27052162 58.45974647 39.8918744 58.46859487 37.51327896 58.48405075 C34.18578522 58.50364802 30.85924744 58.49789662 27.53173828 58.48583984 C26.05870239 58.50269836 26.05870239 58.50269836 24.5559082 58.51989746 C18.85933591 58.46745165 15.48500697 57.86862195 11 54 C7.45392293 49.68454506 6.17178904 45.63685141 5.33203125 40.21484375 C5.20688644 39.47730362 5.08174164 38.73976349 4.95280457 37.97987366 C4.69161497 36.42366559 4.43735973 34.86627939 4.18969727 33.30786133 C3.81704585 30.96606679 3.42325849 28.62864351 3.02539062 26.29101562 C2.77217146 24.76583466 2.52018094 23.2404491 2.26953125 21.71484375 C2.15599808 21.03518051 2.0424649 20.35551727 1.92549133 19.65525818 C0.89024915 13.08098132 0.51614882 6.70993463 0 0 Z " fill="#D8AE48" transform="translate(87,428)"/>
<path d="M0 0 C2.12890625 1.5 2.12890625 1.5 3.71484375 3.23828125 C4.18148437 3.65464844 4.648125 4.07101563 5.12890625 4.5 C6.90226722 4.04796681 8.67300568 3.58335451 10.4296875 3.0703125 C19.31533203 1.19288254 29.09280087 1.21274619 37.015625 5.953125 C44.36406868 11.33202277 49.10117429 17.53424399 51.12890625 26.5 C51.75796875 26.58636719 52.38703125 26.67273438 53.03515625 26.76171875 C63.87960357 28.54190664 70.68408678 33.60368222 77.12890625 42.5 C80.24538476 49.64192991 80.15662351 57.41463352 77.50390625 64.6875 C73.53531108 73.47904069 68.13455314 78.04617029 59.12890625 81.5 C55.66133989 82.32022384 52.44638699 82.62863713 48.8874054 82.64044189 C47.33374016 82.64900711 47.33374016 82.64900711 45.74868774 82.65774536 C44.622883 82.65886322 43.49707825 82.65998108 42.3371582 82.66113281 C41.14304825 82.66609772 39.94893829 82.67106262 38.71864319 82.67617798 C35.44977124 82.68826278 32.18093499 82.69573879 28.91204476 82.70018864 C26.86580588 82.70312698 24.81957251 82.70723326 22.77333641 82.71169281 C16.35969423 82.72535792 9.94606474 82.73502877 3.53240901 82.7388947 C-3.8496777 82.74336983 -11.23157873 82.76089639 -18.61360902 82.7898953 C-24.33356781 82.81157819 -30.05347462 82.82160253 -35.77347404 82.82293582 C-39.18316383 82.82397935 -42.59267886 82.82978976 -46.00232506 82.84775543 C-49.81248273 82.864874 -53.62219217 82.86292101 -57.43237305 82.85644531 C-58.54805664 82.8656601 -59.66374023 82.87487488 -60.81323242 82.8843689 C-71.1731787 82.82941371 -80.30182316 81.00183833 -87.87109375 73.5 C-93.58981805 66.20971788 -95.90655473 58.72622286 -94.87109375 49.5 C-93.0880786 41.38615259 -89.63717776 35.41236237 -82.87109375 30.5 C-77.78948505 27.80235588 -72.6108943 26.10418953 -66.87109375 25.5 C-66.67515625 24.83355469 -66.47921875 24.16710937 -66.27734375 23.48046875 C-62.46363841 11.72702342 -55.98832883 2.30303902 -44.87109375 -3.5 C-29.18346379 -10.28383998 -14.31228567 -8.82169775 0 0 Z " fill="#7ACD62" transform="translate(158.87109375,195.5)"/>
<path d="M0 0 C3.41881583 1.18649423 5.82257251 -0.10285827 9.18359375 -1.2421875 C16.97313762 -1.98309527 23.70621315 -1.96142194 30.18359375 2.7578125 C34.93385529 6.75235061 39.4119207 12.39150983 40.18359375 18.7578125 C40.25079923 21.43052265 40.22817375 24.08301259 40.18359375 26.7578125 C41.32634766 26.97824219 41.32634766 26.97824219 42.4921875 27.203125 C51.90380853 29.24759698 58.94118478 32.16132078 64.62109375 40.1953125 C69.68461373 48.61113518 70.44915329 57.27572516 68.24609375 66.7578125 C65.72054828 74.31062302 59.91753895 80.665134 52.87109375 84.3203125 C48.45078852 86.04348234 45.02388382 86.8812815 40.29013062 86.90498352 C39.30621338 86.91213882 38.32229614 86.91929413 37.30856323 86.92666626 C36.23526764 86.92935516 35.16197205 86.93204407 34.05615234 86.93481445 C32.92070984 86.94138565 31.78526733 86.94795685 30.61541748 86.95472717 C26.85428806 86.97445199 23.09319858 86.98612178 19.33203125 86.99609375 C18.04633869 87.00016928 16.76064613 87.0042448 15.43599319 87.00844383 C9.33096324 87.0271523 3.22595323 87.04171771 -2.87909949 87.0500558 C-9.90638483 87.05981391 -16.93335398 87.08609934 -23.96052802 87.12655669 C-30.06233667 87.16047008 -36.16401346 87.17221027 -42.2659111 87.17625999 C-44.85337847 87.18112303 -47.44084253 87.19272884 -50.02824783 87.21129799 C-53.65661825 87.23571676 -57.28416975 87.23471864 -60.91259766 87.2277832 C-61.97374786 87.24059326 -63.03489807 87.25340332 -64.12820435 87.26660156 C-73.86695339 87.19903397 -81.87998752 84.56297098 -89.05859375 77.8203125 C-94.97069148 70.88345117 -97.40744567 62.77116369 -96.81640625 53.7578125 C-94.62670694 43.61435245 -90.11351156 36.95319359 -81.81640625 30.7578125 C-77.60862229 28.42015474 -74.4669909 27.70416692 -69.75390625 27.5703125 C-66.03400083 27.32455524 -66.03400083 27.32455524 -63.1953125 25.09765625 C-62.26283307 23.68440839 -61.34385579 22.2621734 -60.4375 20.83203125 C-57.48223081 17.05071091 -53.26450787 15.32773072 -48.81640625 13.7578125 C-47.57890625 13.6546875 -46.34140625 13.5515625 -45.06640625 13.4453125 C-40.67465971 12.51628919 -39.89538648 10.49107984 -37.48046875 6.89453125 C-28.32232897 -4.8648642 -12.6597 -5.79307872 0 0 Z " fill="#7ACD62" transform="translate(389.81640625,97.2421875)"/>
<path d="M0 0 C1.00250494 -0.00480972 1.00250494 -0.00480972 2.0252625 -0.0097166 C4.27481729 -0.01804759 6.52410798 -0.0120816 8.77366734 -0.00622082 C10.39872923 -0.00924009 12.0237897 -0.01312844 13.64884764 -0.01781338 C18.12240162 -0.02813102 22.59587579 -0.02590202 27.06943643 -0.02163279 C31.89091991 -0.01917239 36.71238383 -0.02817116 41.53386021 -0.03567028 C50.98258175 -0.0484383 60.43127491 -0.05020837 69.88000362 -0.04787002 C77.55769173 -0.0460891 85.23537121 -0.04783164 92.91305828 -0.05209446 C94.00456504 -0.05268965 95.09607179 -0.05328484 96.22065451 -0.05389806 C98.43783772 -0.05510978 100.65502092 -0.05632391 102.87220413 -0.05754044 C123.67826638 -0.06842402 144.48431243 -0.06624958 165.2903756 -0.06015559 C184.33715082 -0.05498532 203.38387492 -0.06624335 222.43064003 -0.08525381 C241.97436013 -0.10461119 261.51805601 -0.11289193 281.06178576 -0.10913056 C292.03952374 -0.10721537 303.0172182 -0.10973697 313.99494839 -0.1238451 C323.33998035 -0.13573312 332.68494199 -0.13719284 342.02997487 -0.12505493 C346.8001705 -0.11914816 351.57023734 -0.11811628 356.34042454 -0.13005733 C360.70452346 -0.14085513 365.06838512 -0.13788607 369.43247265 -0.12379565 C371.0138581 -0.1211318 372.59526178 -0.12356777 374.17662942 -0.13153151 C376.32178229 -0.14158727 378.46610238 -0.1332597 380.61122131 -0.12025452 C381.8040329 -0.12030953 382.99684449 -0.12036455 384.22580189 -0.12042123 C388.62094728 0.40387656 391.23558327 2.00432612 394.18103123 5.25447559 C396.35337749 10.74250827 396.35337749 16.76644292 394.18103123 22.25447559 C391.23623213 25.50390908 388.62079001 27.10458001 384.22695255 27.63052309 C383.03468304 27.63101014 381.84241352 27.6314972 380.61401463 27.63199902 C379.94452415 27.63635934 379.27503368 27.64071966 378.58525562 27.64521211 C376.3376784 27.65617682 374.09071355 27.64574113 371.8431406 27.63542652 C370.21721425 27.63888261 368.59129023 27.64364685 366.96537113 27.64960825 C362.49403728 27.6621546 358.02289503 27.65593138 353.5515604 27.6466496 C348.73077171 27.63987431 343.91001645 27.65033278 339.08923435 27.65858936 C329.64397623 27.67194515 320.19878954 27.66904074 310.75352859 27.66035144 C303.07872207 27.65358256 295.40393559 27.65265473 287.72912693 27.65592289 C286.63775567 27.65638259 285.5463844 27.65684229 284.42194128 27.65731592 C282.2049996 27.65827507 279.98805793 27.65924771 277.77111626 27.66023369 C256.97171581 27.66879299 236.17235499 27.65894498 215.37296104 27.64283259 C197.51729792 27.62942893 179.6616933 27.63175687 161.80603123 27.64558887 C141.08221313 27.66163515 120.3584298 27.66796897 99.63460636 27.65875208 C97.42571609 27.65779641 95.21682581 27.6568533 93.00793552 27.65592289 C91.92105458 27.65546006 90.83417363 27.65499724 89.7143569 27.65452038 C82.04674573 27.65192764 74.37915657 27.65630762 66.71154881 27.66336155 C57.37019589 27.67176617 48.02891861 27.6695183 38.68757439 27.65351932 C33.91940045 27.64562261 29.15135274 27.64256881 24.38317966 27.65246677 C20.02096534 27.66138524 15.65899464 27.65652802 11.29680252 27.64053412 C9.71612222 27.6371742 8.13542148 27.63890745 6.55475426 27.64616148 C4.41055711 27.65524925 2.26720069 27.64596366 0.12304783 27.63199902 C-1.06922169 27.63151196 -2.2614912 27.6310249 -3.4898901 27.63052309 C-7.6313932 27.13478447 -10.42244104 25.77758036 -13.02990627 22.49275684 C-15.57017775 17.4833415 -16.39236397 13.6829678 -14.63146877 8.25447559 C-10.87682993 1.26307913 -7.72984025 0.00561779 0 0 Z " fill="#EEC143" transform="translate(65.63146877288818,353.7455244064331)"/>
<path d="M0 0 C0.70181396 0.00757324 1.40362793 0.01514648 2.12670898 0.02294922 C10.7223886 0.29526003 16.42279446 3.2752354 22.72265625 8.91796875 C24.125 10.4375 24.125 10.4375 25.4375 13.1875 C27.91484199 16.49062265 30.68166318 16.30103748 34.625 16.92578125 C40.83558196 18.19700974 44.53032397 22.57411479 48.125 27.4375 C48.125 28.0975 48.125 28.7575 48.125 29.4375 C49.218125 29.355 50.31125 29.2725 51.4375 29.1875 C58.17039221 29.19945896 65.12701718 31.60237131 70.5 35.6875 C76.75012474 42.23524973 80.09875351 49.16634478 80.4375 58.3125 C80.24422976 66.27281799 77.708378 73.64630396 72.125 79.4375 C63.51851184 86.57940414 55.13466243 87.73948943 44.27783203 87.7121582 C43.21983398 87.71726913 42.16183594 87.72238007 41.07177734 87.72764587 C37.59206403 87.74148792 34.11254999 87.74058911 30.6328125 87.73828125 C28.20197476 87.74217117 25.7711377 87.74650645 23.34030151 87.75126648 C18.25142206 87.75871715 13.162612 87.75844577 8.07373047 87.75317383 C1.56853418 87.74738122 -4.9363772 87.76431109 -11.44152641 87.7875185 C-16.46027269 87.80228583 -21.47895084 87.80312343 -26.497715 87.80000877 C-28.89537241 87.80052049 -31.29303378 87.80572994 -33.69067001 87.81582069 C-37.05031333 87.82822552 -40.40940773 87.82136874 -43.76904297 87.80981445 C-45.23913315 87.82128006 -45.23913315 87.82128006 -46.73892212 87.83297729 C-55.72148068 87.76506353 -63.93824691 86.07279814 -71.05078125 80.31640625 C-78.12471827 73.03040259 -80.26046833 65.46883338 -80.15234375 55.60546875 C-79.45765161 47.67032335 -75.87259104 40.67539618 -69.875 35.4375 C-64.05391992 31.20897956 -59.01457487 29.77747976 -51.875 29.4375 C-51.93300781 28.83164062 -51.99101562 28.22578125 -52.05078125 27.6015625 C-52.43408785 20.48301131 -51.04725879 15.26860867 -46.875 9.4375 C-41.62529463 4.22013367 -35.99788128 1.41905167 -28.5625 1.1875 C-24.54235125 1.24830897 -21.02254791 2.04433775 -17.2109375 3.29296875 C-14.27455076 3.47465154 -12.38842582 2.38656596 -9.77099609 1.16479492 C-6.58649615 -0.05676384 -3.36109716 -0.05100545 0 0 Z " fill="#7ACE62" transform="translate(216.875,25.5625)"/>
<path d="M0 0 C114.18 0 228.36 0 346 0 C345 12 345 12 343 24 C230.8 24 118.6 24 3 24 C0 6 0 6 0 0 Z " fill="#F1CF82" transform="translate(83,405)"/>
<path d="M0 0 C8.64270375 -0.30621104 17.28301056 -0.53461818 25.92985916 -0.67355824 C29.94872624 -0.74037196 33.96379154 -0.8303298 37.98046875 -0.98071289 C60.04887261 -1.78488185 75.57561645 0.57419807 94.97894287 11.43534851 C110.56947677 19.50992342 129.01857484 23.05040808 146 27 C146.45289375 32.31120858 144.95635093 36.0649872 142.5625 40.6875 C142.20414063 41.38866943 141.84578125 42.08983887 141.4765625 42.81225586 C138.08223886 49.22579514 133.98417268 54.71800329 129 60 C127.97712891 61.11955078 127.97712891 61.11955078 126.93359375 62.26171875 C123.23927706 65.94157628 123.23927706 65.94157628 121 67 C113.75651719 66.8359347 107.06173965 64.30195121 100.25 62 C98.4563501 61.39551025 98.4563501 61.39551025 96.62646484 60.77880859 C74.430235 53.14449329 52.03921302 42.84922347 33 29 C32.03320312 28.30519531 31.06640625 27.61039062 30.0703125 26.89453125 C19.5335832 19.16303508 8.69508895 10.82466244 0 1 C0 0.67 0 0.34 0 0 Z " fill="#7E674A" transform="translate(133,277)"/>
<path d="M0 0 C3.81484371 0.08288455 7.63012687 0.11859471 11.44561768 0.15869141 C18.88820499 0.24365053 26.32864735 0.37957739 33.76983643 0.54931641 C31.07472729 5.38822989 28.34568124 9.50728057 24.51983643 13.54931641 C23.786521 14.33230103 23.786521 14.33230103 23.03839111 15.13110352 C19.15152823 19.23553374 15.20852214 23.05217008 10.76983643 26.54931641 C10.27064697 26.94441406 9.77145752 27.33951172 9.25714111 27.74658203 C-2.01986067 36.582306 -14.12781797 43.78639176 -27.08172607 49.89697266 C-28.16574707 50.40949585 -28.16574707 50.40949585 -29.27166748 50.93237305 C-31.23016357 51.54931641 -31.23016357 51.54931641 -34.23016357 50.54931641 C-35.4977417 48.97387695 -35.4977417 48.97387695 -36.76141357 46.93603516 C-37.2369165 46.18797607 -37.71241943 45.43991699 -38.20233154 44.66918945 C-38.70651611 43.86650635 -39.21070068 43.06382324 -39.73016357 42.23681641 C-46.3790907 31.95388915 -53.69350452 23.2926387 -63.23016357 15.54931641 C-62.23016357 13.54931641 -62.23016357 13.54931641 -59.41375732 12.54150391 C-58.17754639 12.17283203 -56.94133545 11.80416016 -55.66766357 11.42431641 C-50.05496363 9.75023823 -45.73944105 7.61145089 -40.79656982 4.40087891 C-28.70727451 -2.31664511 -13.40238882 -0.32253777 0 0 Z " fill="#7E664A" transform="translate(378.23016357421875,183.45068359375)"/>
<path d="M0 0 C11.83088396 1.32131866 23.05619028 14.22596367 30.22949219 22.93212891 C48.13836889 45.45921489 57.77228921 71.73642295 62 100 C62.13277344 100.86109375 62.26554687 101.7221875 62.40234375 102.609375 C63.25967943 109.04526479 63.09014153 115.51982521 63 122 C60.525 122.495 60.525 122.495 58 123 C55.90040426 119.5452867 55.77503741 116.81618463 55.6875 112.8125 C54.06881654 77.09233922 39.48798943 42.08860498 14 17 C9.96642394 13.44332823 5.93367736 10.08427953 1.234375 7.44921875 C0.49703125 6.97097656 -0.2403125 6.49273437 -1 6 C-1.375 3.375 -1.375 3.375 -1 1 C-0.67 0.67 -0.34 0.34 0 0 Z " fill="#826645" transform="translate(287,207)"/>
<path d="M0 0 C5.41602242 18.41447622 9.96517098 46.06965804 1 64 C-1.31 64 -3.62 64 -6 64 C-5.7834375 63.05125 -5.566875 62.1025 -5.34375 61.125 C-1.80616146 44.37076244 -1.42410772 27.05276291 -5.34375 10.33984375 C-6.03625589 6.8154834 -6.10953033 3.58255448 -6 0 C-3.50907189 -1.24546405 -2.58919267 -0.7767578 0 0 Z " fill="#826645" transform="translate(327,290)"/>
</svg>
