<?xml version="1.0" encoding="UTF-8" standalone="no"?> <svg xmlns="http://www.w3.org/2000/svg" viewBox="0 0 64 64"><defs><style>.cls-1{fill:#fff0fd;}.cls-2,.cls-6{fill:none;}.cls-2,.cls-3,.cls-5,.cls-6{stroke:#4c241d;stroke-linejoin:round;stroke-width:2px;}.cls-2,.cls-3,.cls-5{stroke-linecap:round;}.cls-3{fill:#a9ba5a;}.cls-4{fill:#4c241d;}.cls-5{fill:#bf7e68;}</style></defs><g id="cactus"><circle class="cls-1" cx="32" cy="33" r="23"/><circle class="cls-2" cx="53" cy="54" r="2"/><line class="cls-2" x1="8" y1="39" x2="11" y2="42"/><line class="cls-2" x1="11" y1="39" x2="8" y2="42"/><path class="cls-3" d="M45.75,36H38.5a3.5,3.5,0,0,1,0-7H45V5.5a3.5,3.5,0,0,1,7,0V29.75A6.257,6.257,0,0,1,45.75,36Z"/><path class="cls-3" d="M20.25,28H27.5a3.5,3.5,0,0,0,0-7H21V10.5a3.5,3.5,0,0,0-7,0V21.75A6.257,6.257,0,0,0,20.25,28Z"/><circle class="cls-4" cx="49" cy="43" r="1"/><path class="cls-3" d="M32,7h0a6,6,0,0,1,6,6V41a0,0,0,0,1,0,0H26a0,0,0,0,1,0,0V13A6,6,0,0,1,32,7Z"/><polygon class="cls-5" points="42 44 22 44 24 63 40 63 42 44"/><line class="cls-2" x1="30" y1="8" x2="30" y2="41"/><line class="cls-2" x1="34" y1="8" x2="34" y2="41"/><rect class="cls-5" x="21" y="41" width="22" height="3"/><path class="cls-6" d="M38,32.8h6.8445A3.1555,3.1555,0,0,0,48,29.6445V2.0331"/><path class="cls-6" d="M17.956,7.0331v14.064A2.9029,2.9029,0,0,0,20.8589,24H26"/></g></svg>