<svg version="1.1" id="Layer_1" xmlns="http://www.w3.org/2000/svg" xmlns:xlink="http://www.w3.org/1999/xlink" x="0px" y="0px"
	 viewBox="0 0 100 100" style="enable-background:new 0 0 500 300;" xml:space="preserve">
<g transform="translate(-195,-150)">
	<g>
		<g>
			<g>
				<path style="fill:#64CF00;" d="M227.1,188.023c-7.984-2.419-16.051,0.83-18.506,9.119c0.057-0.014,0.111-0.026,0.167-0.04
					c4.163-11.4,18.988-12.054,22.065,6.559c0.055-0.165,0.134-0.269,0.256-0.293c0.537-0.105,0.844,1.519,1.979,1.774
					c1.184,0.266,2.622-1.102,3.311-2.252C238.542,199.275,236.346,190.824,227.1,188.023z"/>
				<path style="fill:#64CF00;" d="M208.762,197.102c5.085-1.229,7.352-0.323,8.472,0.802c2.039,2.048,0.374,4.902,2.981,8.561
					c3.48,4.885,7.695,3.898,9.271,2.119c1.434-1.618,1.06-4.078,1.34-4.924C227.744,185.018,212.925,185.701,208.762,197.102z"/>
				<path style="fill:#006D00;" d="M222.378,198.464c-1.364-4.774-7.683-5.821-11.767-1.739c3.807-0.612,5.648,0.2,6.623,1.179
					c2.039,2.048,0.374,4.902,2.981,8.561c0.463,0.65,2.569,3.607,5.695,3.576c0.241-0.002,0.888-0.028,1.622-0.253
					C224.383,207.441,223.159,202.678,222.378,198.464z"/>
				<path style="fill:#00AB00;" d="M208.761,197.102c0.663-0.16,1.279-0.285,1.85-0.377c4.018-4.016,10.376-3.13,11.767,1.739
					c0.78,4.214,2.005,8.976,5.154,11.324c3.684-1.125,2.927-5.021,3.294-6.128c3.144,1.115,5.878-0.751,5.619-5.326
					c-0.13-2.304-1.418-3.978-1.59-3.914c-0.171,0.064,0.783,1.848-0.003,3.425c-0.298,0.598-0.903,1.282-1.281,1.161
					c-0.667-0.214,0.249-2.661-0.917-5.321c-0.637-1.453-1.667-2.445-1.896-2.324c-0.239,0.126,0.549,1.373,0.306,3.119
					c-0.137,0.985-0.621,2.265-1.13,2.265c-0.731,0-0.494-2.643-2.357-4.833c-1.839-2.163-4.576-2.532-4.587-2.508
					c-0.009,0.02,1.786,0.474,2.202,1.774c0.138,0.431,0.161,1.115-0.205,1.419c-0.628,0.52-1.927-0.477-3.421-1.023
					C217.732,190.176,211.668,191.683,208.761,197.102z"/>
			</g>
			<g>
				<path style="fill:#DADA2D;" d="M245.821,195.363c-7.292-0.345-8.358-7.748-6.988-11.435c1.957-5.265,12.005-7.911,24.902-5.59
					c0.893,3.004,2.272,9.386-0.508,16.008c-1.151,2.741-3.255,7.753-7.623,8.385C251.833,203.278,246.93,200.333,245.821,195.363z"
					/>
				<path style="fill:#006D00;" d="M264.041,179.451c-0.012,3.232-0.245,6.441-1.748,9.31c-1.764,3.308-5.072,6.836-9.041,6.836
					c-2.426,0.221-3.528-2.646-2.646-4.852c-3.625,1.208-8.735,1.335-11.948-1.099c0.899,3.516,3.507,5.543,7.163,5.716
					c1.095,4.905,5.955,7.924,9.783,7.369c4.368-0.633,6.472-5.645,7.623-8.385C265.701,188.454,264.881,182.752,264.041,179.451z"
					/>
				<path style="fill:#64CF00;" d="M262.884,178.194c-0.868,2.901-3.013,5.207-6.14,5.725c0.615-2.853,3.278-3.946,3.278-3.946
					c-0.047-0.096-1.869,0.224-3.509,1.626c-1.738,1.486-1.447,2.627-3.159,3.939c-1.196,0.916-2.978,1.615-3.503,1.079
					c-0.548-0.558,0.256-2.437,1.336-3.635c1.08-1.199,2.304-1.568,2.267-1.644c-0.144-0.293-4.223,1.428-6.346,4.199
					c-1.177,1.536-1.385,2.73-1.693,2.671c-0.349-0.067-0.639-1.709-0.071-3.206c0.875-2.309,3.331-3.067,3.202-3.32
					c-0.13-0.254-2.778,0.179-4.3,2.208c-0.788,1.05-1.015,2.182-1.087,2.905c-1.972-2.122-1.751-5.145,0.185-7.193
					c-4.068,1.94-5.939,5.156-4.688,10.046c2.5,4.42,8.65,5.034,11.948,1.099c-5.33,4.794,0.745,9.38,5.273,8.861
					c5.614-0.644,10.766-11.835,7.856-21.269C263.451,178.29,263.168,178.242,262.884,178.194z"/>
			</g>
			<g>
				<path style="fill:#64CF00;" d="M238.027,218.148c-1.98-4.883-0.745-13.451,14.549-29.549
					c-4.862,3.527-9.293,7.865-13.039,13.018c-1.332-3.783-0.12-7.294-0.12-7.294c-0.095-0.026-1.015,2.218-1.576,5.359
					c-0.386,2.162-0.466,3.983-0.469,5.225c-12.261,21.324,6.026,18.779,5.407,39.376c2.922,0.073,5.844,0.146,8.766,0.219
					C251.32,228.602,240.584,224.455,238.027,218.148z"/>
				<path style="fill:#00AB00;" d="M249.783,234.887c-3.223-3.157-6.286-6.552-9.253-10.235c-1.985-2.205-3.528-4.852-3.749-7.939
					c-0.824-11.531,12.828-25.711,22.305-32.317c-7.547,4.205-14.231,9.933-19.539,17.22c-0.154-0.438-0.285-0.894-0.39-1.369
					c-1.023,1.29-1.666,2.886-1.775,4.634c-0.52,1.028-1.758,3.122-2.907,6.261c-0.097-0.175-1.178,3.146-1.238,3.336
					c0.029,0.118,0.058,0.235,0.085,0.347c-1.927,11.881,9.973,12.623,9.467,29.457c2.922,0.073,5.844,0.146,8.766,0.219
					C251.509,241.226,250.935,237.983,249.783,234.887z"/>
				<g>
					<path style="fill:#006D00;" d="M239.418,194.295c-0.095-0.026-1.015,2.218-1.576,5.359c-0.38,2.124-0.463,3.918-0.469,5.158
						c0.528-1.439,1.156-2.849,1.863-4.229C238.423,197.35,239.418,194.295,239.418,194.295z"/>
					<path style="fill:#006D00;" d="M237.304,205.003c-1.116,1.956-2.059,3.985-2.838,6.112c-0.554-2.703-1.714-6.54-4.386-10.357
						c-4.42-6.314-10.476-9.004-10.485-8.991c0,0,7.375,3.572,11.378,13.003c3.045,7.173,2.06,11.387,2.185,13.265
						c0.628,9.376,10.081,10.94,9.622,26.221c0.515,0.042,1.03,0.083,1.544,0.125c1.392-6.512,0.269-10.718-1.003-13.348
						c-2.941-6.084-8.787-6.824-7.637-19.076C235.959,209.034,236.674,206.66,237.304,205.003z"/>
				</g>
			</g>
		</g>
		<g>
			<path style="fill:#006D00;" d="M242.179,187.601c-1.086-0.654-4.941,2.099-5.195,5.206c-0.027,0.327,0.147,1.34,0.495,3.365
				c0.374,2.179,0.586,3.804,2.87,0.693c1.769-2.409,1.969-5.027,2.078-6.73C242.525,188.604,242.574,187.838,242.179,187.601z"/>
			<path style="fill:#00AB00;" d="M242.01,187.534c-2.295,2.881-3.018,6.6-2.29,10.13c2.021-2.318,2.525-4.681,2.707-7.53
				C242.494,189.082,242.724,187.721,242.01,187.534z"/>
		</g>
		<g>
			<path style="fill:#070A0B;" d="M221.293,242.374c1.076-0.825,0.464-1.879,1.59-3.532c0.081-0.119,1.645-2.356,3.622-2.274
				c1.366,0.057,1.815,1.175,2.481,0.89c0.998-0.427,0.042-2.956,1.673-5.286c0.96-1.372,2.293-1.869,3.781-1.646
				c0.655-1.927,2.774-2.601,3.909-2.014c0.817,0.422,0.596,1.128,1.413,1.918c1.357,1.314,3.99-0.042,4.627,4.361
				c1.153-1.388,3.031-2.816,4.918-3.17c4.264-0.799,4.927,1.649,9.075,5.179c2.505-3.256,7.073-2.633,8.971,0.864
				c2.883,0.601,4.971,3.153,4.874,6.185c3.953-0.71,6.476,3.99,3.777,7.006l-57.246,0.354c-3.391-2.412-2.689-6.7-0.664-8.005
				C219.348,242.395,220.236,243.183,221.293,242.374z"/>
			<path style="fill:#745F69;" d="M243.133,238.289c-0.008,0.617-0.526,0.673-0.737,1.497c-0.337,1.312,0.774,1.961,0.359,2.583
				c-0.535,0.803-2.495-0.146-4.32,0.913c-0.889,0.516-0.668,0.865-1.841,1.607c-0.79,0.5-1.94,1.227-3.084,0.905
				c-0.906-0.255-1.58-1.117-1.665-1.94c-0.141-1.37,1.437-1.827,1.277-2.983c-0.185-1.343-2.415-1.457-2.561-2.681
				c-0.145-1.214,1.844-2.791,3.481-2.68c1.347,0.091,1.524,1.263,2.999,1.385c1.492,0.123,1.914-1.029,3.394-0.893
				C241.821,236.129,243.146,237.296,243.133,238.289z"/>
			<path style="fill:#4D3640;" d="M238.109,231.446c1.78-0.065,3.273,1.492,1.856,3.424c-0.523,0.715-1.494,1.134-2.175,1.055
				c-0.833-0.097-0.715-0.833-1.831-1.33c-1.031-0.46-1.601-0.041-2.17-0.508c-0.719-0.59-0.654-1.952-0.019-2.31
				c0.537-0.303,1.265,0.234,1.645-0.085c0.397-0.332-0.259-1.033,0.16-1.566C236.384,229.097,238.703,229.936,238.109,231.446z"/>
			<path style="fill:#745F69;" d="M237.646,231.903c1.183-0.043,2.176,0.991,1.234,2.276c-0.348,0.476-0.993,0.754-1.446,0.701
				c-0.553-0.064-0.475-0.553-1.217-0.884c-0.686-0.306-1.064-0.027-1.443-0.338c-0.478-0.392-0.435-1.297-0.013-1.536
				c0.357-0.201,0.841,0.155,1.094-0.056c0.264-0.221-0.172-0.687,0.106-1.041C236.535,230.297,238.031,230.926,237.646,231.903z"/>
			<path style="fill:#4D3640;" d="M248.12,241.742c0.307,0.955-0.738,1.623-0.305,2.227c0.281,0.391,0.784,0.203,1.299,0.734
				c0.793,0.817,0.473,1.919-0.412,2.32c-0.634,0.287-0.993-0.102-1.743,0.165c-0.637,0.227-0.54,0.566-1.159,0.78
				c-0.869,0.299-1.804-0.111-1.941-0.173c-0.531-0.241-0.459-0.418-1.221-0.896c-0.754-0.472-0.91-0.353-1.271-0.665
				c-0.65-0.561-0.928-1.626-0.45-2.222c0.443-0.553,2.62-0.859,3.064-1.311c0.401-0.408,0.114-0.686,0.471-1.214
				c0.369-0.545,1.24-1.088,2.148-0.94C247.333,240.665,247.939,241.177,248.12,241.742z"/>
			<path style="fill:#745F69;" d="M266.021,248.843c-0.668-0.216-0.52-1.288-1.107-1.407c-0.426-0.086-0.642,0.448-1.363,0.715
				c-0.984,0.365-2.508,0.083-3.293-0.804c-0.659-0.744-0.921-2.054-0.159-2.59c0.563-0.396,1.591-0.305,2.192,0.104
				c0.774,0.527,0.562,1.391,1.108,1.524c0.565,0.138,0.911-0.76,1.773-0.836c1.207-0.106,2.882,1.445,2.485,2.458
				C267.437,248.569,266.56,249.018,266.021,248.843z"/>
			<path style="fill:#745F69;" d="M228.982,245.423c0.627,0.346,0.693,1.64,0.02,2.429c-1.456,1.707-5.826,0.259-5.654-0.832
				c0.069-0.437,0.893-0.443,1.094-1.036c0.197-0.583-0.486-0.92-0.307-1.398c0.279-0.744,2.368-1.07,2.819-0.538
				c0.336,0.397-0.385,1.095-0.039,1.411C227.302,245.813,228.341,245.069,228.982,245.423z"/>
			<path style="fill:#4D3640;" d="M227.521,238.837c0.548,0.417,0.142,0.92,0.715,1.607c0.739,0.886,1.841,0.558,2.323,1.319
				c0.45,0.71,0.061,1.897-0.695,2.183c-0.507,0.192-1.085-0.055-1.892-0.4c-1.134-0.486-1.137-0.826-1.926-1.048
				c-1.177-0.331-1.811,0.257-2.329-0.103c-0.727-0.506-0.539-2.404,0.794-3.303C225.397,238.494,226.835,238.315,227.521,238.837z"
				/>
			<path style="fill:#745F69;" d="M255.054,234.516c0.512,1.006-0.525,4.586,0.104,5.693c0.708,1.246,2.142,0.989,2.832,2.258
				c1.385,2.549-2.084,4.106-4.017,2.922c-0.674-0.413-0.466-0.895-1.155-1.241c-1.378-0.691-3.502,1.447-3.76-2.345
				c-0.062-0.906,0.237-0.991,0.053-1.426c-0.435-1.028-2.153-0.697-3.048-1.799c-0.719-0.887-0.621-2.35,0.124-2.84
				c0.779-0.512,1.934,0.255,2.515-0.259c0.579-0.512-0.36-1.458,0.2-2.214C249.792,232.061,254.018,232.48,255.054,234.516z"/>
			<path style="fill:#4D3640;" d="M254.339,235.581c0.395,0.777-0.428,3.498,0.08,4.393c0.546,0.961,1.653,0.763,2.185,1.742
				c1.069,1.967-1.608,3.168-3.1,2.255c-0.52-0.318-0.359-0.691-0.891-0.958c-1.064-0.533-2.703,1.117-2.902-1.81
				c-0.048-0.7,0.183-0.765,0.041-1.101c-0.335-0.793-1.662-0.538-2.352-1.389c-0.555-0.684-0.479-1.813,0.096-2.192
				c0.601-0.395,1.492,0.197,1.941-0.2c0.447-0.395-0.278-1.125,0.154-1.708C250.316,233.636,253.566,234.062,254.339,235.581z"/>
			<path style="fill:#4D3640;" d="M263.896,238.054c0.865,0.844,0.641,1.661,1.469,1.954c0.799,0.283,1.275-0.383,2.488-0.194
				c3.908,0.61,1.52,5.15-1.405,5.72c-1.031,0.201-2.57,0.107-3.326-0.693c-0.614-0.65-0.18-1.202-0.845-1.78
				c-0.635-0.551-1.272-0.258-2.496-0.699c-0.341-0.122-1.906-0.685-2.297-1.771C256.628,238.216,260.965,235.197,263.896,238.054z"
				/>
		</g>
	</g>
</g>

</svg>