<svg version="1.1" id="Layer_1" xmlns="http://www.w3.org/2000/svg" xmlns:xlink="http://www.w3.org/1999/xlink" x="0px" y="0px"
	 viewBox="0 0 100 155" style="enable-background:new 0 0 500 300;" xml:space="preserve">
<g transform="translate(-393,-95)">
	<g>
		<g>
			<g>
				<path style="fill:#64CF00;" d="M409.371,154.088c8.851,3.033,6.737,8.208,8.521,10.385c3.468,4.228,12.367,2.064,13.028-2.939
					c0.321-2.432-1.404-4.24-1.665-4.506c6.661,0.283,8.163-5.71,4.212-10.285C428.663,141.179,413.703,142.329,409.371,154.088z"/>
				<path style="fill:#00AB00;" d="M434.092,147.569c0.348,0.708,0.736,1.756,0.757,3.049c0.004,0.257,0.014,1.751-0.416,1.849
					c-0.334,0.076-0.531-0.806-1.493-1.617c-1.117-0.942-2.323-1.201-2.363-1.119c-0.049,0.1,1.723,0.572,2.488,2.115
					c1.072,2.163-0.528,3.656-1.556,3.497c-1.117-0.172-0.967-2.175-2.3-3.746c-2.128-2.508-6.394-1.979-6.398-1.951
					c-0.004,0.025,3.54-0.289,5.528,1.951c1.472,1.659,2.592,5.79-1.087,4.08c2.209,4.236-1.168,7.142-5.228,4.928
					c-3.795-2.069-3.077-6.902-12.65-6.517c8.851,3.033,6.737,8.208,8.522,10.385c3.468,4.228,12.367,2.064,13.028-2.939
					c0.321-2.432-1.404-4.24-1.665-4.506C435.229,157.281,437.355,152.469,434.092,147.569z"/>
			</g>
			<g>
				<path style="fill:#64CF00;" d="M451.827,153.849c-0.988,0.296-2.015,0.519-3.07,0.68
					C449.732,154.598,450.809,154.363,451.827,153.849z"/>
				<g>
					<path style="fill:#64CF00;" d="M461.297,129.227c-1.619,6.822-4.862,10.612-7.496,12.806c-3.841,3.199-8.266,4.568-8.547,8.016
						c-0.376,4.622,4.579,5.947,8.162,2.712c-2.244,6.833,7.158,6.963,10.238,5.32C470.381,154.494,463.724,135.633,461.297,129.227
						z"/>
					<path style="fill:#DADA2D;" d="M458.123,148.11c2.096-2.276,5.079-3.122,4.974-3.338c-0.094-0.194-2.341,0.769-2.907,0.211
						c-0.592-0.584,1.238-2.254,1.984-4.18c0.677-1.746,0.72-4.364-1.866-8.264c-1.748,4.787-4.334,7.684-6.507,9.494
						c-3.841,3.199-8.266,4.568-8.547,8.016c-0.112,1.372,0.408,3.383,2.172,4.164c1.028,0.456,1.888,0.388,4.4-0.364
						c0.557-0.281,1.096-0.643,1.589-1.089c-0.06,0.182-0.119,0.385-0.171,0.602c0.612,0.048,1.522,0.065,2.58-0.126
						c3.442-0.623,8.265-4.675,7.975-4.938c-0.068-0.062-1.137,1.027-3.167,1.814C457.037,151.508,455.439,151.025,458.123,148.11z"
						/>
				</g>
				<g>
					<g>
						<g>
							<path style="fill:#64CF00;" d="M451.121,172.556c10.35-5.71,23.576-5.167,30.736,4.048c-0.088,0.004-0.173,0.01-0.26,0.014
								c-3.325-3.734-8.242-6.46-14.021-6.435c-12.57,0.044-16.813,12.051-15.59,20.651c0.149,2.694,0.328,1.528-0.316,1.586
								c-0.825,0.073-0.6,2.133-2.15,2.86c-1.615,0.758-4.276-0.346-5.756-1.467C439.097,190.279,438.826,179.339,451.121,172.556z"
								/>
							<path style="fill:#64CF00;" d="M481.597,176.618c-7.917,0.417-10.845,2.345-12.012,4.11
								c-2.123,3.211,1.484,6.012-0.799,11.365c-3.226,7.561-10.003,7.323-12.63,5.984c-2.759-1.406-3.232-4.492-3.991-5.401
								C448.941,169.207,470.807,164.499,481.597,176.618z"/>
							<path style="fill:#006D00;" d="M462.322,183.31c0.012-6.398,8.97-9.747,16.424-6.456c-5.799,0.681-8.147,2.339-9.161,3.873
								c-2.123,3.211,1.484,6.012-0.799,11.365c-0.405,0.95-2.251,5.276-6.818,6.401c-0.352,0.087-1.305,0.296-2.468,0.3
								C463.116,194.81,462.929,188.649,462.322,183.31z"/>
							<path style="fill:#00AB00;" d="M481.597,176.618c-1.032,0.054-1.981,0.134-2.851,0.236
								c-7.484-3.305-16.413,0.077-16.424,6.456c0.607,5.338,0.794,11.5-2.822,15.483c-5.835,0.021-6.341-4.926-7.335-6.117
								c-4.302,2.615-8.932,1.072-10.391-4.292c-0.764-2.809,0.42-5.293,0.697-5.28c0.276,0.013-0.375,2.505,1.422,4.103
								c0.682,0.606,1.847,1.201,2.347,0.915c0.884-0.504-1.464-3.096-0.866-6.716c0.327-1.978,1.416-3.548,1.8-3.489
								c0.4,0.062-0.231,1.848,0.845,3.85c0.607,1.13,1.842,2.483,2.583,2.294c1.065-0.272-0.374-3.35,1.433-6.667
								c1.785-3.275,5.619-4.734,5.645-4.709c0.022,0.021-2.407,1.232-2.474,2.943c-0.022,0.567,0.227,1.396,0.886,1.624
								c1.131,0.39,2.611-1.288,4.561-2.497C465.723,171.615,475.171,171.248,481.597,176.618z"/>
						</g>
						<g>
							<path style="fill:#DADA2D;" d="M426.516,187.795c15.127-1.669,9.468-26.951-11.309-18.962
								c-3.306,1.271-8.294,7.124-21.468,5.734c0.084,3.194,0.596,12.112,7.366,18.991c2.811,2.856,7.951,8.079,14.577,7.213
								C421.793,199.973,428.166,193.709,426.516,187.795z"/>
							<path style="fill:#006D00;" d="M393.753,176.014c1.355,3.868,3.022,7.625,6.4,10.505c3.939,3.307,10.219,6.305,16.002,4.83
								c3.625-0.637,4.045-4.482,1.848-6.796c5.781,0.1,13.279-1.647,16.953-5.757c0.158,4.945-3.309,8.091-8.071,9.51
								c0.444,6.407-5.529,11.723-11.203,12.464c-6.626,0.865-11.766-4.358-14.577-7.213
								C395.06,187.417,393.896,180.281,393.753,176.014z"/>
							<path style="fill:#64CF00;" d="M406.234,178.656c-2.076-3.189-6.409-3.51-6.409-3.51c0.029-0.133,2.815-0.427,5.785,0.644
								c3.147,1.135,3.195,2.61,6.232,3.545c2.121,0.653,5.007,0.828,5.551-0.008c0.567-0.872-1.381-2.825-3.451-3.859
								c-2.07-1.034-4.006-1.023-3.983-1.127c0.088-0.405,6.745,0.142,10.983,2.673c2.35,1.403,3.148,2.756,3.572,2.571
								c0.481-0.21,0.223-2.285-1.223-3.868c-2.23-2.441-6.123-2.437-6.039-2.788c0.084-0.353,4.121-0.818,7.179,1.047
								c1.583,0.965,2.382,2.237,2.785,3.076c2.066-3.392,0.266-6.888-3.246-8.549c3.776,0.456,6.676,1.633,8.365,3.507
								c8.077,8.962-5.131,17.532-14.33,12.543c9.753,3.764,2.794,11.516-4.015,12.576c-8.91,1.388-20.566-10.773-20.249-22.562
								C397.245,177.517,401.591,179.071,406.234,178.656z"/>
						</g>
						<g>
							<path style="fill:#64CF00;" d="M447.669,212.708c0.863-6.587-4.481-16.392-33.427-29.995
								c8.814,2.496,17.016,6.109,24.384,10.751c0.375-5.027-2.844-8.783-2.844-8.783c0.128-0.067,2.397,2.281,4.515,5.835
								c1.458,2.447,2.328,4.599,2.846,6.086c2.516,1.979,4.663,4.004,6.816,6.389c2.051,2.273,3.789,4.018,4.769,7.805
								c1.318,5.09-3.113,13.604-4.532,19.206c-0.893,3.528-1.326,8.803,1.365,15.784c-4.227,1.174-8.454,2.347-12.681,3.52
								C432.594,230.064,446.538,221.336,447.669,212.708z"/>
							<path style="fill:#00AB00;" d="M437.47,237.132c3.388-4.98,6.447-10.186,9.245-15.701c1.979-3.38,3.133-7.124,2.176-10.905
								c-3.709-14.661-30.662-26.39-45.873-30.429c12.47,2.187,24.644,6.485,35.594,13.37c0.043-0.595,0.044-1.19,0.001-1.785
								c1.969,1.134,3.599,2.788,4.503,4.892c0.246,0.216,0.484,0.407,0.722,0.601c2.924,2.462,4.604,4.136,6.105,5.819
								c0.069-0.245,3.024,3.339,3.184,3.537c0.007,0.152,0.013,0.302,0.02,0.448c7.724,13.515-9.304,18.832-1.601,38.81
								c-4.227,1.174-8.454,2.347-12.681,3.52C437.559,245.307,437.078,241.209,437.47,237.132z"/>
							<g>
								<path style="fill:#006D00;" d="M435.771,184.648c0.128-0.067,2.397,2.281,4.515,5.835c1.432,2.404,2.296,4.522,2.817,6.006
									c-1.365-1.527-2.864-2.984-4.464-4.374C438.484,187.911,435.771,184.648,435.771,184.648z"/>
								<path style="fill:#006D00;" d="M453.698,123.468c0,0-9.051,15.294-12.483,36.73c15.857-7.158,19.554-20.895,19.554-20.895
									c0.102,0.038-2.451,10.568-13.093,18.995c-2.379,1.884-4.65,3.257-6.451,4.224c-1.972,14.443,0.029,28.497,8.721,40.437
									c-0.312-3.445-0.209-8.472,2.104-14.039c3.826-9.207,11.536-14.681,11.554-14.669c0,0-15.907,12.398-10.454,32.692
									c7.723,13.515-9.304,18.832-1.601,38.81c-0.733,0.241-1.465,0.483-2.198,0.724c-4.723-7.285-4.828-12.741-4.064-16.364
									c1.411-6.692,6.298-9.34,5.775-16.796c-0.316-4.517-2.297-9.673-5.873-13.712c-4.377-4.927-8.883-17.297-7.608-31.9
									c-7.369-13.492-20.185-16.602-20.185-16.602c0.051-0.125,6.879,1.68,14.096,6.692c2.81,1.951,4.966,3.895,6.49,5.408
									c0.355-2.682,1.009-6.608,2.299-11.223C444.776,135.903,453.638,123.434,453.698,123.468z"/>
							</g>
						</g>
					</g>
				</g>
			</g>
		</g>
		<g>
			<g>
				<g>
					<g>
						<path style="fill:#BF325D;" d="M449.917,96.441c8.808-0.556,17.832,18.348,0.734,27.473
							C434.531,114.763,441.777,96.955,449.917,96.441z"/>
						<path style="fill:#BF325D;" d="M449.763,152.475c8.808,0.556,17.832-18.348,0.734-27.473
							C434.376,134.153,441.622,151.962,449.763,152.475z"/>
					</g>
					<g>
						<path style="fill:#F93770;" d="M471.447,105.588c-4.061-4.85-21.947,4.04-19.796,19.057
							C466.242,126.292,475.181,110.049,471.447,105.588z"/>
						<path style="fill:#F93770;" d="M431.902,145.288c-4.85-4.061,4.04-21.947,19.057-19.796
							C452.607,140.083,436.363,149.023,431.902,145.288z"/>
					</g>
					<g>
						<path style="fill:#F93770;" d="M431.062,105.458c4.061-4.85,21.947,4.04,19.796,19.057
							C436.267,126.162,427.327,109.919,431.062,105.458z"/>
						<path style="fill:#F93770;" d="M470.606,145.158c4.85-4.061-4.04-21.947-19.057-19.796
							C449.902,139.953,466.145,148.893,470.606,145.158z"/>
					</g>
					<g>
						<path style="fill:#BF325D;" d="M422.502,125.681c-0.556-8.808,18.348-17.832,27.474-0.734
							C440.824,141.067,423.016,133.821,422.502,125.681z"/>
						<path style="fill:#BF325D;" d="M478.536,125.835c0.556-8.808-18.348-17.832-27.474-0.734
							C460.214,141.222,478.022,133.976,478.536,125.835z"/>
					</g>
				</g>
				<g style="opacity:0.61;">
					<g>
						<path style="fill:#FF8FB6;" d="M460.132,101.532c5.981,1.959,5.377,20.081-9.017,22.936
							C443.669,112.447,454.625,99.729,460.132,101.532z"/>
						<path style="fill:#FF8FB6;" d="M440.656,147.859c5.597,2.879,18.065-10.286,9.982-22.533
							C436.852,128.476,435.503,145.209,440.656,147.859z"/>
					</g>
					<g>
						<path style="fill:#FF6390;" d="M473.631,116.454c-1.254-4.31-18.015-2.387-21.973,8.62
							C462.043,129.657,474.79,120.437,473.631,116.454z"/>
						<path style="fill:#FF6390;" d="M429.133,134.81c-2.137-3.948,11.139-14.358,21.691-9.308
							C446.656,136.06,431.107,138.458,429.133,134.81z"/>
					</g>
					<g>
						<path style="fill:#FF6390;" d="M441.258,101.687c3.943-2.149,14.528,11.552,9.563,22.309
							C440.198,119.631,437.601,103.68,441.258,101.687z"/>
						<path style="fill:#FF6390;" d="M459.986,147.506c4.315-1.242,2.218-18.428-8.874-22.592
							C446.623,135.485,455.984,148.658,459.986,147.506z"/>
					</g>
					<g>
						<path style="fill:#FF8FB6;" d="M427.127,115.648c1.965-5.997,20.065-5.361,22.904,9.004
							C438.026,132.099,425.321,121.161,427.127,115.648z"/>
						<path style="fill:#FF8FB6;" d="M473.389,135.098c2.886-5.613-10.286-18.043-22.501-9.968
							C454.026,138.904,470.736,140.256,473.389,135.098z"/>
					</g>
				</g>
			</g>
			<g>
				<g>
					<g>
						<path style="fill:#EBFF5D;" d="M451.424,125.488c-1.028-0.155-1.19-8.411,3.454-12.634c3.451-3.138,8.499-2.81,8.532-2.633
							c0.02,0.109-1.888,0.023-4.137,1.307c-0.199,0.114-4.695,2.765-5.678,7.449c-0.207,0.985-0.348,2.487-1.184,4.638
							C451.968,124.755,451.669,125.525,451.424,125.488z"/>
						<path style="fill:#EBFF5D;" d="M451.757,124.769c-0.483,1.029-8.441-1.344-11.123-6.914c-2.023-4.202-0.269-8.947-0.09-8.929
							c0.111,0.012-0.517,1.816,0.072,4.338c0.052,0.223,1.31,5.289,5.52,7.567c0.885,0.479,2.284,1.043,4.108,2.458
							C451.21,124.039,451.863,124.545,451.757,124.769z"/>
						<path style="fill:#EBFF5D;" d="M452.037,125.65c-1.028,0.547-5.939-6.179-4.75-12.206c0.903-4.576,5.153-7.319,5.285-7.197
							c0.082,0.076-1.503,1.142-2.545,3.514c-0.092,0.21-2.125,5.017-0.125,9.365c0.421,0.914,1.202,2.205,1.811,4.431
							C452.037,124.737,452.255,125.534,452.037,125.65z"/>
						<path style="fill:#EBFF5D;" d="M452.57,124.735c-0.315-1.028-8.514,0.087-11.989,5.272c-2.597,3.874-1.532,8.82-1.352,8.826
							c0.111,0.004-0.255-1.87,0.685-4.284c0.083-0.213,2.045-5.05,6.534-6.711c0.944-0.349,2.409-0.71,4.414-1.852
							C451.925,125.38,452.643,124.971,452.57,124.735z"/>
						<path style="fill:#EBFF5D;" d="M451.558,124.82c-0.438,0.392,1.62,4.673,5.66,7.061c0.911,0.538,2.241,1.308,4.154,1.612
							c4.606,0.733,8.649-2.309,8.579-2.475c-0.043-0.103-1.591,1.016-4.176,1.175c-0.229,0.014-5.442,0.262-8.832-3.117
							c-0.713-0.71-1.655-1.889-3.533-3.23C452.415,125.134,451.743,124.654,451.558,124.82z"/>
						<path style="fill:#EBFF5D;" d="M451.495,124.799c-1.029-0.478-5.609,6.45-4.088,12.443c1.147,4.521,5.538,7.032,5.664,6.903
							c0.077-0.08-1.562-1.06-2.73-3.372c-0.103-0.204-2.391-4.896-0.627-9.345c0.371-0.936,1.082-2.266,1.571-4.522
							C451.544,125.71,451.719,124.903,451.495,124.799z"/>
						<path style="fill:#EBFF5D;" d="M451.502,124.804c0.15,1.028,8.405,1.23,12.65-3.394c3.154-3.436,2.851-8.485,2.674-8.519
							c-0.109-0.021-0.031,1.887-1.326,4.131c-0.114,0.198-2.787,4.682-7.476,5.643c-0.986,0.202-2.489,0.336-4.644,1.162
							C452.237,124.263,451.466,124.559,451.502,124.804z"/>
					</g>
					<g>
						<circle style="fill:#FFF100;" cx="450.541" cy="124.597" r="7.033"/>
						<path style="fill:#FFEEA7;" d="M452.099,127.624c-4.898,0-4.903-7.413,0-7.413
							C456.997,120.211,457.002,127.624,452.099,127.624z"/>
					</g>
				</g>
			</g>
		</g>
	</g>
	<g>
		<path style="fill:#070A0B;" d="M418.559,242.374c1.076-0.825,0.464-1.879,1.59-3.532c0.081-0.119,1.645-2.356,3.622-2.274
			c1.366,0.057,1.815,1.175,2.481,0.89c0.997-0.427,0.042-2.956,1.673-5.286c0.961-1.372,2.293-1.869,3.781-1.646
			c0.655-1.927,2.774-2.601,3.909-2.014c0.817,0.422,0.596,1.128,1.413,1.918c1.357,1.314,3.99-0.042,4.627,4.361
			c1.153-1.388,3.031-2.816,4.918-3.17c4.264-0.799,4.927,1.649,9.075,5.179c2.505-3.256,7.073-2.633,8.971,0.864
			c2.883,0.601,4.971,3.153,4.874,6.185c3.953-0.71,6.476,3.99,3.777,7.006l-57.246,0.354c-3.391-2.412-2.689-6.7-0.663-8.005
			C416.615,242.395,417.502,243.183,418.559,242.374z"/>
		<path style="fill:#745F69;" d="M440.399,238.289c-0.008,0.617-0.526,0.673-0.737,1.497c-0.337,1.312,0.774,1.961,0.359,2.583
			c-0.535,0.803-2.495-0.146-4.32,0.913c-0.889,0.516-0.668,0.865-1.841,1.607c-0.79,0.5-1.94,1.227-3.083,0.905
			c-0.906-0.255-1.58-1.117-1.665-1.94c-0.141-1.37,1.437-1.827,1.277-2.983c-0.186-1.343-2.415-1.457-2.561-2.681
			c-0.145-1.214,1.844-2.791,3.481-2.68c1.347,0.091,1.524,1.263,2.998,1.385c1.493,0.123,1.915-1.029,3.394-0.893
			C439.087,236.129,440.412,237.296,440.399,238.289z"/>
		<path style="fill:#4D3640;" d="M435.375,231.446c1.78-0.065,3.273,1.492,1.856,3.424c-0.523,0.715-1.494,1.134-2.175,1.055
			c-0.833-0.097-0.715-0.833-1.831-1.33c-1.031-0.46-1.601-0.041-2.17-0.508c-0.719-0.59-0.654-1.952-0.019-2.31
			c0.537-0.303,1.265,0.234,1.646-0.085c0.397-0.332-0.259-1.033,0.16-1.566C433.65,229.097,435.969,229.936,435.375,231.446z"/>
		<path style="fill:#745F69;" d="M434.913,231.903c1.183-0.043,2.176,0.991,1.234,2.276c-0.348,0.476-0.993,0.754-1.446,0.701
			c-0.553-0.064-0.475-0.553-1.217-0.884c-0.685-0.306-1.064-0.027-1.442-0.338c-0.478-0.392-0.435-1.297-0.013-1.536
			c0.357-0.201,0.841,0.155,1.094-0.056c0.264-0.221-0.172-0.687,0.106-1.041C433.801,230.297,435.297,230.926,434.913,231.903z"/>
		<path style="fill:#4D3640;" d="M445.387,241.742c0.307,0.955-0.738,1.623-0.305,2.227c0.28,0.391,0.784,0.203,1.299,0.734
			c0.793,0.817,0.473,1.919-0.412,2.32c-0.634,0.287-0.993-0.102-1.743,0.165c-0.637,0.227-0.54,0.566-1.159,0.78
			c-0.869,0.299-1.804-0.111-1.941-0.173c-0.531-0.241-0.459-0.418-1.221-0.896c-0.754-0.472-0.91-0.353-1.271-0.665
			c-0.65-0.561-0.927-1.626-0.45-2.222c0.443-0.553,2.62-0.859,3.064-1.311c0.401-0.408,0.114-0.686,0.471-1.214
			c0.369-0.545,1.24-1.088,2.148-0.94C444.599,240.665,445.205,241.177,445.387,241.742z"/>
		<path style="fill:#745F69;" d="M463.287,248.843c-0.668-0.216-0.52-1.288-1.107-1.407c-0.426-0.086-0.642,0.448-1.363,0.715
			c-0.984,0.365-2.508,0.083-3.293-0.804c-0.659-0.744-0.921-2.054-0.159-2.59c0.563-0.396,1.591-0.305,2.192,0.104
			c0.774,0.527,0.562,1.391,1.108,1.524c0.565,0.138,0.911-0.76,1.773-0.836c1.207-0.106,2.882,1.445,2.485,2.458
			C464.703,248.569,463.827,249.018,463.287,248.843z"/>
		<path style="fill:#745F69;" d="M426.249,245.423c0.627,0.346,0.693,1.64,0.02,2.429c-1.456,1.707-5.826,0.259-5.654-0.832
			c0.069-0.437,0.893-0.443,1.094-1.036c0.197-0.583-0.486-0.92-0.307-1.398c0.279-0.744,2.368-1.07,2.819-0.538
			c0.336,0.397-0.385,1.095-0.039,1.411C424.568,245.813,425.607,245.069,426.249,245.423z"/>
		<path style="fill:#4D3640;" d="M424.787,238.837c0.548,0.417,0.142,0.92,0.715,1.607c0.739,0.886,1.841,0.558,2.323,1.319
			c0.45,0.71,0.061,1.897-0.695,2.183c-0.507,0.192-1.085-0.055-1.892-0.4c-1.134-0.486-1.137-0.826-1.926-1.048
			c-1.177-0.331-1.811,0.257-2.329-0.103c-0.727-0.506-0.539-2.404,0.794-3.303C422.663,238.494,424.101,238.315,424.787,238.837z"
			/>
		<path style="fill:#745F69;" d="M452.32,234.516c0.512,1.006-0.525,4.586,0.104,5.693c0.708,1.246,2.142,0.989,2.832,2.258
			c1.385,2.549-2.084,4.106-4.017,2.922c-0.674-0.413-0.466-0.895-1.155-1.241c-1.378-0.691-3.502,1.447-3.76-2.345
			c-0.062-0.906,0.237-0.991,0.053-1.426c-0.435-1.028-2.153-0.697-3.048-1.799c-0.719-0.887-0.621-2.35,0.124-2.84
			c0.779-0.512,1.934,0.255,2.515-0.259c0.579-0.512-0.36-1.458,0.2-2.214C447.058,232.061,451.284,232.48,452.32,234.516z"/>
		<path style="fill:#4D3640;" d="M451.605,235.581c0.395,0.777-0.428,3.498,0.08,4.393c0.546,0.961,1.653,0.763,2.185,1.742
			c1.069,1.967-1.608,3.168-3.1,2.255c-0.52-0.318-0.359-0.691-0.891-0.958c-1.064-0.533-2.703,1.117-2.902-1.81
			c-0.048-0.7,0.183-0.765,0.041-1.101c-0.335-0.793-1.662-0.538-2.352-1.389c-0.555-0.684-0.479-1.813,0.096-2.192
			c0.601-0.395,1.492,0.197,1.941-0.2c0.447-0.395-0.278-1.125,0.154-1.708C447.582,233.636,450.833,234.062,451.605,235.581z"/>
		<path style="fill:#4D3640;" d="M461.162,238.054c0.865,0.844,0.641,1.661,1.469,1.954c0.799,0.283,1.275-0.383,2.488-0.194
			c3.908,0.61,1.52,5.15-1.404,5.72c-1.031,0.201-2.57,0.107-3.326-0.693c-0.614-0.65-0.179-1.202-0.845-1.78
			c-0.635-0.551-1.272-0.258-2.496-0.699c-0.341-0.122-1.906-0.685-2.297-1.771C453.894,238.216,458.231,235.197,461.162,238.054z"
			/>
	</g>
</g>

</svg>