<svg version="1.1" id="Layer_1" xmlns="http://www.w3.org/2000/svg" xmlns:xlink="http://www.w3.org/1999/xlink" x="0px" y="0px"
	 viewBox="0 0 100 100" style="enable-background:new 0 0 500 300;" xml:space="preserve">
<g transform="translate(-292,-150)">
	<g>
		<g>
			<g>
				<path style="fill:#64CF00;" d="M323.983,188.023c-7.984-2.419-16.051,0.83-18.506,9.119c0.057-0.014,0.111-0.026,0.167-0.04
					c4.163-11.4,18.988-12.054,22.065,6.559c0.055-0.165,0.134-0.269,0.256-0.293c0.537-0.105,0.844,1.519,1.979,1.774
					c1.184,0.266,2.622-1.102,3.311-2.252C335.425,199.275,333.229,190.824,323.983,188.023z"/>
				<path style="fill:#64CF00;" d="M305.645,197.102c5.085-1.229,7.352-0.323,8.473,0.802c2.039,2.048,0.374,4.902,2.981,8.561
					c3.48,4.885,7.695,3.898,9.271,2.119c1.434-1.618,1.06-4.078,1.34-4.924C324.627,185.018,309.808,185.701,305.645,197.102z"/>
				<path style="fill:#006D00;" d="M319.262,198.464c-1.364-4.774-7.683-5.821-11.767-1.739c3.806-0.612,5.648,0.2,6.623,1.179
					c2.039,2.048,0.374,4.902,2.981,8.561c0.463,0.65,2.569,3.607,5.695,3.576c0.241-0.002,0.888-0.028,1.622-0.253
					C321.267,207.441,320.042,202.678,319.262,198.464z"/>
				<path style="fill:#00AB00;" d="M305.645,197.102c0.663-0.16,1.279-0.285,1.85-0.377c4.017-4.016,10.376-3.13,11.767,1.739
					c0.78,4.214,2.005,8.976,5.154,11.324c3.685-1.125,2.927-5.021,3.294-6.128c3.144,1.115,5.878-0.751,5.619-5.326
					c-0.13-2.304-1.418-3.978-1.59-3.914c-0.171,0.064,0.783,1.848-0.003,3.425c-0.298,0.598-0.903,1.282-1.281,1.161
					c-0.668-0.214,0.249-2.661-0.917-5.321c-0.637-1.453-1.667-2.445-1.896-2.324c-0.239,0.126,0.549,1.373,0.306,3.119
					c-0.137,0.985-0.621,2.265-1.129,2.265c-0.731,0-0.494-2.643-2.357-4.833c-1.84-2.163-4.576-2.532-4.587-2.508
					c-0.009,0.02,1.786,0.474,2.202,1.774c0.138,0.431,0.162,1.115-0.205,1.419c-0.628,0.52-1.927-0.477-3.421-1.023
					C314.615,190.176,308.551,191.683,305.645,197.102z"/>
			</g>
			<g>
				<path style="fill:#DADA2D;" d="M353.698,195.094c-6.986-2.118-6.209-9.557-3.979-12.796c3.185-4.627,13.575-4.735,25.513,0.669
					c0.131,3.131-0.092,9.657-4.408,15.398c-1.786,2.376-5.052,6.721-9.442,6.267C357.593,204.239,353.559,200.184,353.698,195.094z
					"/>
				<path style="fill:#006D00;" d="M375.257,184.121c-0.802,3.131-1.813,6.185-3.972,8.6c-2.52,2.776-6.59,5.388-10.439,4.418
					c-2.406-0.379-2.774-3.429-1.38-5.351c-3.81,0.285-8.796-0.842-11.317-3.987c0.012,3.629,2.045,6.232,5.548,7.294
					c-0.138,5.024,3.836,9.139,7.684,9.538c4.39,0.455,7.656-3.891,9.442-6.267C374.665,193.256,375.264,187.527,375.257,184.121z"
					/>
				<path style="fill:#64CF00;" d="M374.442,182.619c-1.551,2.6-4.195,4.312-7.353,4.05c1.294-2.616,4.144-3.025,4.144-3.025
					c-0.022-0.105-1.867-0.24-3.8,0.719c-2.048,1.016-2.046,2.194-4.026,3.047c-1.384,0.596-3.282,0.838-3.661,0.19
					c-0.395-0.675,0.844-2.3,2.184-3.198c1.341-0.898,2.618-0.957,2.6-1.039c-0.068-0.319-4.444,0.352-7.18,2.52
					c-1.517,1.202-2.011,2.308-2.295,2.176c-0.322-0.151-0.201-1.814,0.715-3.126c1.413-2.025,3.98-2.159,3.917-2.437
					c-0.064-0.278-2.737-0.506-4.71,1.089c-1.021,0.825-1.518,1.867-1.764,2.551c-1.393-2.54-0.44-5.417,1.938-6.929
					c-4.419,0.886-7.019,3.548-7.002,8.594c1.343,4.897,7.157,6.996,11.317,3.987c-6.341,3.345-1.572,9.278,2.946,9.882
					c5.6,0.749,13.333-8.843,12.819-18.701C374.969,182.851,374.705,182.735,374.442,182.619z"/>
			</g>
			<g>
				<path style="fill:#64CF00;" d="M334.91,218.148c-1.565-13.179,3.142-19.574,23.441-25.692
					c-4.862,3.527-14.396-0.471-21.93,9.161c-1.332-3.783,1.713-15.506,1.713-15.506c-0.096-0.026-3.177,9.066-3.409,13.572
					c-0.113,2.193-0.466,3.983-0.469,5.225c-12.261,21.324,6.026,18.779,5.407,39.376c2.922,0.073,5.844,0.146,8.766,0.219
					C348.203,228.602,335.713,224.906,334.91,218.148z"/>
				<path style="fill:#00AB00;" d="M347.201,234.887c-3.223-3.157-6.286-6.552-9.253-10.235c-1.985-2.205-2.941-5.014-3.156-8.102
					c-1.228-17.581,7.843-17.988,23.56-24.095c-7.918,2.85-16.079,1.874-21.386,9.161c-0.154-0.438,1.349-14.02,1.244-14.494
					c-1.023,1.29-3.3,16.012-3.409,17.759c-0.52,1.028-1.758,3.122-2.907,6.261c-0.096-0.175-1.178,3.146-1.238,3.336
					c0.029,0.118,0.058,0.235,0.085,0.347c-1.928,11.881,9.973,12.623,9.467,29.457c2.922,0.073,5.844,0.146,8.766,0.219
					C348.927,241.226,348.353,237.983,347.201,234.887z"/>
				<g>
					<path style="fill:#006D00;" d="M338.58,184.956c-0.43,0.366-3.293,11.558-3.854,14.699c-0.38,2.124-0.463,3.918-0.469,5.158
						c0.528-1.439,1.156-2.849,1.863-4.229C336.628,196.209,338.58,184.956,338.58,184.956z"/>
					<path style="fill:#006D00;" d="M334.187,205.003c-1.116,1.956-2.06,3.985-2.838,6.112c-0.554-2.703-1.714-6.54-4.386-10.357
						c-4.42-6.314-10.476-9.004-10.485-8.991c0,0,7.375,3.572,11.378,13.003c3.045,7.173,2.06,11.387,2.185,13.265
						c0.628,9.376,10.081,10.94,9.622,26.221c0.515,0.042,1.03,0.083,1.544,0.125c1.392-6.512,0.269-10.718-1.003-13.348
						c-2.941-6.084-8.787-6.824-7.637-19.076C332.842,209.034,333.557,206.66,334.187,205.003z"/>
				</g>
			</g>
		</g>
		<g>
			<path style="fill:#070A0B;" d="M318.176,242.374c1.076-0.825,0.464-1.879,1.59-3.532c0.081-0.119,1.645-2.356,3.622-2.274
				c1.366,0.057,1.815,1.175,2.481,0.89c0.998-0.427,0.042-2.956,1.673-5.286c0.96-1.372,2.293-1.869,3.781-1.646
				c0.655-1.927,2.774-2.601,3.909-2.014c0.817,0.422,0.596,1.128,1.413,1.918c1.357,1.314,3.99-0.042,4.627,4.361
				c1.153-1.388,3.031-2.816,4.918-3.17c4.264-0.799,4.927,1.649,9.075,5.179c2.505-3.256,7.073-2.633,8.971,0.864
				c2.883,0.601,4.971,3.153,4.874,6.185c3.953-0.71,6.476,3.99,3.777,7.006l-57.246,0.354c-3.391-2.412-2.689-6.7-0.664-8.005
				C316.232,242.395,317.119,243.183,318.176,242.374z"/>
			<path style="fill:#745F69;" d="M340.016,238.289c-0.008,0.617-0.526,0.673-0.737,1.497c-0.336,1.312,0.774,1.961,0.359,2.583
				c-0.535,0.803-2.495-0.146-4.32,0.913c-0.889,0.516-0.668,0.865-1.841,1.607c-0.79,0.5-1.94,1.227-3.084,0.905
				c-0.906-0.255-1.58-1.117-1.665-1.94c-0.141-1.37,1.437-1.827,1.277-2.983c-0.185-1.343-2.415-1.457-2.561-2.681
				c-0.145-1.214,1.844-2.791,3.481-2.68c1.347,0.091,1.524,1.263,2.999,1.385c1.492,0.123,1.915-1.029,3.394-0.893
				C338.704,236.129,340.029,237.296,340.016,238.289z"/>
			<path style="fill:#4D3640;" d="M334.992,231.446c1.78-0.065,3.273,1.492,1.856,3.424c-0.523,0.715-1.494,1.134-2.175,1.055
				c-0.833-0.097-0.715-0.833-1.831-1.33c-1.031-0.46-1.601-0.041-2.17-0.508c-0.718-0.59-0.654-1.952-0.019-2.31
				c0.537-0.303,1.265,0.234,1.646-0.085c0.397-0.332-0.259-1.033,0.16-1.566C333.267,229.097,335.586,229.936,334.992,231.446z"/>
			<path style="fill:#745F69;" d="M334.53,231.903c1.183-0.043,2.176,0.991,1.234,2.276c-0.348,0.476-0.993,0.754-1.446,0.701
				c-0.553-0.064-0.475-0.553-1.217-0.884c-0.685-0.306-1.064-0.027-1.442-0.338c-0.478-0.392-0.435-1.297-0.013-1.536
				c0.357-0.201,0.841,0.155,1.094-0.056c0.264-0.221-0.172-0.687,0.106-1.041C333.418,230.297,334.914,230.926,334.53,231.903z"/>
			<path style="fill:#4D3640;" d="M345.004,241.742c0.307,0.955-0.738,1.623-0.305,2.227c0.281,0.391,0.784,0.203,1.299,0.734
				c0.793,0.817,0.474,1.919-0.412,2.32c-0.634,0.287-0.993-0.102-1.743,0.165c-0.637,0.227-0.54,0.566-1.159,0.78
				c-0.869,0.299-1.804-0.111-1.941-0.173c-0.531-0.241-0.459-0.418-1.221-0.896c-0.754-0.472-0.91-0.353-1.271-0.665
				c-0.65-0.561-0.928-1.626-0.45-2.222c0.443-0.553,2.62-0.859,3.064-1.311c0.401-0.408,0.114-0.686,0.471-1.214
				c0.369-0.545,1.24-1.088,2.148-0.94C344.216,240.665,344.822,241.177,345.004,241.742z"/>
			<path style="fill:#745F69;" d="M362.904,248.843c-0.668-0.216-0.52-1.288-1.107-1.407c-0.426-0.086-0.642,0.448-1.363,0.715
				c-0.984,0.365-2.508,0.083-3.293-0.804c-0.659-0.744-0.921-2.054-0.159-2.59c0.563-0.396,1.591-0.305,2.192,0.104
				c0.774,0.527,0.562,1.391,1.108,1.524c0.565,0.138,0.911-0.76,1.773-0.836c1.207-0.106,2.882,1.445,2.485,2.458
				C364.32,248.569,363.444,249.018,362.904,248.843z"/>
			<path style="fill:#745F69;" d="M325.866,245.423c0.627,0.346,0.693,1.64,0.02,2.429c-1.456,1.707-5.826,0.259-5.654-0.832
				c0.069-0.437,0.893-0.443,1.094-1.036c0.197-0.583-0.486-0.92-0.307-1.398c0.279-0.744,2.368-1.07,2.819-0.538
				c0.336,0.397-0.385,1.095-0.039,1.411C324.185,245.813,325.224,245.069,325.866,245.423z"/>
			<path style="fill:#4D3640;" d="M324.404,238.837c0.548,0.417,0.142,0.92,0.715,1.607c0.739,0.886,1.841,0.558,2.322,1.319
				c0.45,0.71,0.061,1.897-0.695,2.183c-0.507,0.192-1.085-0.055-1.892-0.4c-1.134-0.486-1.137-0.826-1.926-1.048
				c-1.177-0.331-1.811,0.257-2.329-0.103c-0.727-0.506-0.539-2.404,0.794-3.303C322.28,238.494,323.718,238.315,324.404,238.837z"
				/>
			<path style="fill:#745F69;" d="M351.937,234.516c0.512,1.006-0.525,4.586,0.104,5.693c0.708,1.246,2.142,0.989,2.832,2.258
				c1.385,2.549-2.084,4.106-4.017,2.922c-0.674-0.413-0.466-0.895-1.155-1.241c-1.378-0.691-3.502,1.447-3.76-2.345
				c-0.062-0.906,0.237-0.991,0.053-1.426c-0.435-1.028-2.153-0.697-3.048-1.799c-0.719-0.887-0.621-2.35,0.124-2.84
				c0.779-0.512,1.934,0.255,2.515-0.259c0.579-0.512-0.36-1.458,0.2-2.214C346.675,232.061,350.901,232.48,351.937,234.516z"/>
			<path style="fill:#4D3640;" d="M351.223,235.581c0.395,0.777-0.428,3.498,0.08,4.393c0.546,0.961,1.653,0.763,2.185,1.742
				c1.069,1.967-1.608,3.168-3.1,2.255c-0.52-0.318-0.359-0.691-0.891-0.958c-1.064-0.533-2.703,1.117-2.902-1.81
				c-0.048-0.7,0.183-0.765,0.041-1.101c-0.335-0.793-1.662-0.538-2.352-1.389c-0.555-0.684-0.479-1.813,0.096-2.192
				c0.601-0.395,1.492,0.197,1.941-0.2c0.447-0.395-0.278-1.125,0.154-1.708C347.199,233.636,350.45,234.062,351.223,235.581z"/>
			<path style="fill:#4D3640;" d="M360.779,238.054c0.866,0.844,0.641,1.661,1.469,1.954c0.799,0.283,1.275-0.383,2.488-0.194
				c3.908,0.61,1.52,5.15-1.405,5.72c-1.031,0.201-2.57,0.107-3.326-0.693c-0.614-0.65-0.179-1.202-0.845-1.78
				c-0.635-0.551-1.272-0.258-2.496-0.699c-0.341-0.122-1.906-0.685-2.297-1.771C353.511,238.216,357.848,235.197,360.779,238.054z"
				/>
		</g>
		<g>
			<path style="fill:#64CF00;" d="M345.116,172.87c-1.987,6.354,1.872,7.32,2.368,9.26c0.965,3.769-4.023,7.962-7.171,6.235
				c-1.53-0.84-1.841-2.591-1.883-2.852c-2.642,3.939-6.712,2.278-7.673-1.915C329.589,178.5,336.547,170.403,345.116,172.87z"/>
			<path style="fill:#00AB00;" d="M330.969,184.304c0.259,0.497,0.698,1.161,1.43,1.717c0.146,0.11,0.999,0.745,1.236,0.54
				c0.185-0.16-0.239-0.644-0.299-1.537c-0.07-1.037,0.289-1.838,0.353-1.827c0.078,0.014-0.397,1.229,0.165,2.317
				c0.789,1.525,2.319,1.237,2.661,0.58c0.371-0.713-0.84-1.471-1.18-2.896c-0.542-2.277,1.557-4.501,1.575-4.491
				c0.016,0.009-1.656,1.909-1.209,3.992c0.332,1.543,2.229,3.924,2.798,1.094c1.499,3.051,4.588,2.337,5.028-0.924
				c0.411-3.048-2.664-4.671,1.588-10c-1.987,6.354,1.871,7.32,2.368,9.26c0.965,3.769-4.023,7.962-7.171,6.235
				c-1.53-0.84-1.841-2.591-1.883-2.852C336.06,189.046,332.405,188.239,330.969,184.304z"/>
		</g>
	</g>
</g>

</svg>