<?xml version="1.0" encoding="utf-8"?>
<!-- Generator: Adobe Illustrator 16.0.0, SVG Export Plug-In . SVG Version: 6.00 Build 0)  -->
<!DOCTYPE svg PUBLIC "-//W3C//DTD SVG 1.0//EN" "http://www.w3.org/TR/2001/REC-SVG-20010904/DTD/svg10.dtd">
<svg version="1.0" id="Layer_1" xmlns="http://www.w3.org/2000/svg" xmlns:xlink="http://www.w3.org/1999/xlink" x="0px" y="0px"
	 width="100px" height="100px" viewBox="0 0 100 100" enable-background="new 0 0 100 100" xml:space="preserve">
<path fill="#7CB342" d="M83.203,51.53c0.003-0.001,0.005-0.003,0.007-0.004c3.152-10.665,4.295-21.663,2.8-31.526
	c-7.758,5.717-14.516,13.925-19.755,23.285C64.802,31.119,59.388,19.333,50.001,10c-9.393,9.333-14.808,21.119-16.261,33.285
	C28.501,33.925,21.742,25.717,13.985,20c-1.496,9.864-0.353,20.86,2.8,31.525c-2.179-1.012-4.481-1.526-6.784-1.526
	C10,72.086,27.904,90,50.001,90C72.09,90,90,72.086,90,49.999C87.693,49.999,85.386,50.514,83.203,51.53z"/>
<path fill="#F1F7E9" d="M18.757,61.53c4.329,11.719,15.012,20.352,27.903,21.634C46.602,75.127,42.696,70,40,70h-3.333
	C29.863,70,23.549,66.983,18.757,61.53z"/>
<path fill="#F1F7E9" d="M65.329,62.143c3.184-9.771,8.147-19.188,14.313-26.771c-0.849,8.26-3.247,16.845-6.803,24.86
	c-2.406,1.697-5.059,2.692-7.75,2.996C65.177,62.867,65.249,62.505,65.329,62.143z"/>
<path fill="#568B3F" d="M66.251,43.3c1.019-1.82,2.085-3.605,3.217-5.329c0.747,3.701,1.138,7.499,1.18,11.352
	c-2.088,4.087-3.87,8.374-5.3,12.734C66.694,55.892,66.996,49.548,66.251,43.3z"/>
<path fill="#DBEBC7" d="M66.444,58.9c0.003,0,0.006-0.001,0.01-0.002c1.209-3.27,2.612-6.48,4.193-9.575
	c0.003,0.227,0.017,0.453,0.017,0.679c0,2.416-0.156,4.806-0.44,7.167c1.213-0.805,2.346-1.826,3.362-3.054
	c0.819-0.989,1.695-1.886,2.614-2.702c-0.962,2.997-2.112,5.951-3.394,8.841c-2.433,1.708-5.112,2.703-7.834,2.989
	C65.426,61.788,65.913,60.338,66.444,58.9z"/>
<path fill="#568B3F" d="M76.668,56.666c-1.182,1.425-2.481,2.62-3.861,3.588c1.281-2.89,2.432-5.844,3.394-8.841
	c2.472-2.2,5.275-3.771,8.273-4.632c-0.377,1.586-0.802,3.171-1.269,4.749C80.823,52.639,78.588,54.346,76.668,56.666z"/>
<path fill="#F1F7E9" d="M34.667,62.143c-3.185-9.771-8.149-19.188-14.315-26.771c0.85,8.26,3.248,16.845,6.804,24.86
	c2.406,1.697,5.057,2.692,7.749,2.996C34.818,62.867,34.745,62.505,34.667,62.143z"/>
<path fill="#F1F7E9" d="M50.001,70.13c2.053-3.498,4.903-5.912,8.131-6.594c1.227-4.352,1.869-8.894,1.869-13.537
	c0-10.923-3.51-21.313-10-29.895c-6.492,8.581-10,18.972-10,29.895c0,4.644,0.639,9.187,1.866,13.537
	C45.089,64.218,47.941,66.632,50.001,70.13z"/>
<path fill="#DBEBC7" d="M49.998,63.658c-1.489-1.445-3.144-2.526-4.893-3.255C44.384,57.021,44,53.541,44,49.999
	c0-9.738,2.795-19.049,8-27.035c-0.635-0.972-1.297-1.928-2-2.859c-6.492,8.581-10,18.972-10,29.895
	c0,4.644,0.639,9.187,1.866,13.537c0.008,0.002,0.017,0.002,0.024,0.004c0,0,0,0,0,0.001c3.214,0.689,6.056,3.1,8.11,6.589
	c2.047-3.489,4.889-5.9,8.107-6.589c0.386-1.37,0.732-2.755,1.002-4.161C55.785,59.608,52.64,61.095,49.998,63.658z"/>
<path fill="#F1F7E9" d="M53.34,83.164c12.884-1.282,23.574-9.915,27.896-21.631C76.452,66.986,70.13,70,63.333,70h-3.332
	C57.298,70,53.399,75.127,53.34,83.164z"/>
<path fill="#DBEBC7" d="M77.064,65.382c-5.354,7.486-13.719,12.659-23.344,13.73c-0.23,1.248-0.37,2.601-0.381,4.052
	c12.884-1.282,23.574-9.915,27.896-21.631C79.95,62.997,78.552,64.28,77.064,65.382z"/>
<path fill="#DBEBC7" d="M22.929,65.382c5.354,7.486,13.718,12.659,23.343,13.73c0.231,1.248,0.37,2.601,0.381,4.052
	c-12.883-1.282-23.574-9.915-27.896-21.631C20.042,62.997,21.441,64.28,22.929,65.382z"/>
<path fill="#568B3F" d="M33.745,43.3c-1.019-1.82-2.087-3.605-3.218-5.329c-0.746,3.701-1.137,7.499-1.179,11.352
	c2.087,4.087,3.871,8.374,5.3,12.734C33.3,55.892,32.999,49.548,33.745,43.3z"/>
<path fill="#DBEBC7" d="M33.55,58.9c-0.003,0-0.005-0.001-0.008-0.002c-1.21-3.27-2.613-6.48-4.194-9.575
	c-0.002,0.227-0.017,0.453-0.017,0.679c0,2.416,0.156,4.806,0.44,7.167c-1.213-0.805-2.346-1.826-3.363-3.054
	c-0.818-0.989-1.695-1.886-2.613-2.702c0.962,2.997,2.111,5.951,3.394,8.841c2.433,1.708,5.112,2.703,7.833,2.989
	C34.569,61.788,34.081,60.338,33.55,58.9z"/>
<path fill="#568B3F" d="M23.328,56.666c1.181,1.425,2.481,2.62,3.861,3.588c-1.282-2.89-2.431-5.844-3.394-8.841
	c-2.473-2.2-5.275-3.771-8.273-4.632c0.375,1.586,0.801,3.171,1.268,4.749C19.171,52.639,21.406,54.346,23.328,56.666z"/>
<path fill="#568B3F" d="M60.001,63.333h3.332c0.583,0,1.166-0.034,1.746-0.099c0.336-1.392,0.617-2.792,0.845-4.201
	c-0.85,0.19-1.714,0.3-2.591,0.3h-3.332c-0.301,0-0.596,0.026-0.891,0.047c-0.27,1.406-0.616,2.791-1.002,4.161
	C58.726,63.408,59.356,63.333,60.001,63.333z"/>
<path fill="#568B3F" d="M36.667,63.333H40c0.642,0,1.272,0.075,1.89,0.208c-0.386-1.37-0.733-2.755-1.001-4.161
	c-0.296-0.021-0.591-0.047-0.889-0.047h-3.333c-0.879,0-1.745-0.109-2.597-0.301c0.228,1.409,0.51,2.811,0.845,4.201
	C35.498,63.299,36.083,63.333,36.667,63.333z"/>
</svg>
