<?xml version="1.0" encoding="iso-8859-1"?>
<!-- Generator: Adobe Illustrator 19.0.0, SVG Export Plug-In . SVG Version: 6.00 Build 0)  -->
<svg version="1.1" id="Capa_1" xmlns="http://www.w3.org/2000/svg" xmlns:xlink="http://www.w3.org/1999/xlink" x="0px" y="0px"
	 viewBox="0 0 512 512" style="enable-background:new 0 0 512 512;" xml:space="preserve">
<rect x="245.333" y="245.333" style="fill:#415A6B;" width="19.2" height="266.667"/>
<g>
	<path style="fill:#4ABAA5;" d="M273.067,210.133H262.4l-2.133,2.133c29.867,28.8,51.2,24.533,51.2,24.533
		C296.533,234.667,280.533,218.667,273.067,210.133z"/>
	<path style="fill:#4ABAA5;" d="M268.8,210.133h-14.933L252.8,211.2c26.667,48,59.733,50.133,59.733,50.133
		C291.2,250.667,275.2,221.867,268.8,210.133z"/>
	<path style="fill:#4ABAA5;" d="M236.8,210.133c-7.467,8.533-23.467,24.533-37.333,26.667c0,0,21.333,4.267,51.2-24.533
		l-2.133-2.133H236.8z"/>
	<path style="fill:#4ABAA5;" d="M241.067,210.133c-6.4,11.733-23.467,40.533-42.667,50.133c0,0,33.067-2.133,59.733-50.133H256
		H241.067z"/>
</g>
<path style="fill:#66C6B9;" d="M236.8,210.133c-1.067,4.267-2.133,8.533-2.133,12.8c0,23.467,8.533,32,20.267,32
	c10.667,0,20.267-8.533,20.267-32c0-4.267-1.067-8.533-2.133-12.8H236.8z"/>
<path style="fill:#F05540;" d="M254.933,161.067c-52.267-44.8-52.267-116.267,0-161.067
	C306.133,44.8,306.133,116.267,254.933,161.067z"/>
<path style="fill:#F3705A;" d="M330.667,182.4c-4.267,6.4-8.533,11.733-14.933,14.933c-38.4,32-96,28.8-128-4.267
	c-3.2-3.2-6.4-7.467-9.6-11.733c-9.6-14.933-13.867-36.267-8.533-56.533c13.867-56.533,8.533-72.533,3.2-107.733
	c20.267,0,82.133,64,82.133,107.733c0-48,61.867-107.733,82.133-107.733c-5.333,35.2-10.667,51.2,3.2,107.733
	C344.533,145.067,340.267,166.4,330.667,182.4z"/>
<g>
	<path style="fill:#4ABAA5;" d="M202.667,358.4c5.333-9.6,11.733-13.867,17.067-10.667c5.333,3.2,6.4,12.8,1.067,22.4
		c-7.467,12.8-21.333,14.933-21.333,14.933S196.267,371.2,202.667,358.4z"/>
	<path style="fill:#4ABAA5;" d="M203.733,302.933c-4.267,11.733-2.133,21.333,4.267,24.533c6.4,3.2,13.867-1.067,19.2-12.8
		c6.4-14.933-3.2-32-3.2-32C224,282.667,209.067,288,203.733,302.933z"/>
	<path style="fill:#4ABAA5;" d="M222.933,323.2c-9.6-3.2-14.933,0-16,4.267c-1.067,4.267,4.267,9.6,12.8,12.8
		c11.733,4.267,20.267-2.133,20.267-2.133C241.067,338.133,235.733,327.467,222.933,323.2z"/>
	<path style="fill:#4ABAA5;" d="M133.333,300.8c24.533,16,45.867,21.333,56.533,10.667c10.667-9.6,4.267-37.333-28.8-58.667
		c-44.8-26.667-81.067-4.267-80-4.267C82.133,249.6,101.333,280.533,133.333,300.8z"/>
</g>
<path style="fill:#415A6B;" d="M119.467,262.4c67.2,30.933,117.333,98.133,130.133,170.667c2.133,0,7.467-3.2,10.667-3.2
	C243.2,354.133,186.667,290.133,119.467,262.4z"/>
<g>
	<path style="fill:#4ABAA5;" d="M308.267,346.667C312.533,358.4,310.4,368,304,371.2c-6.4,3.2-13.867-1.067-19.2-12.8
		c-6.4-14.933,3.2-32,3.2-32C288,326.4,302.933,330.667,308.267,346.667z"/>
	<path style="fill:#4ABAA5;" d="M289.067,366.933c9.6-3.2,14.933,0,16,4.267c1.067,4.267-4.267,9.6-12.8,12.8
		c-11.733,4.267-20.267-2.133-20.267-2.133C270.933,381.867,276.267,370.133,289.067,366.933z"/>
	<path style="fill:#4ABAA5;" d="M378.667,344.533c-24.533,16-45.867,21.333-56.533,10.667c-10.667-9.6-4.267-37.333,28.8-58.667
		c44.8-26.667,81.067-4.267,80-4.267C429.867,292.267,410.667,324.267,378.667,344.533z"/>
</g>
<path style="fill:#415A6B;" d="M392.533,305.067C325.333,336,275.2,403.2,262.4,475.733c-2.133,0-7.467-3.2-10.667-3.2
	C268.8,397.867,325.333,333.867,392.533,305.067z"/>
<g>
</g>
<g>
</g>
<g>
</g>
<g>
</g>
<g>
</g>
<g>
</g>
<g>
</g>
<g>
</g>
<g>
</g>
<g>
</g>
<g>
</g>
<g>
</g>
<g>
</g>
<g>
</g>
<g>
</g>
</svg>
