<svg width="150" height="143" viewBox="0 0 150 143" fill="none" xmlns="http://www.w3.org/2000/svg">
<path d="M73.2439 8.61029C66.7862 8.61029 45.3738 71.1481 45.3738 110.121C45.3738 111.934 58.8557 115.672 73.2439 115.672C87.6321 115.672 101.114 111.934 101.114 110.121C101.001 67.9758 79.7016 8.61029 73.2439 8.61029Z" fill="#1CA538"/>
<path d="M92.2772 93.8067L90.2379 91.7674L78.9086 101.284L77.7757 83.7236L87.2923 74.5468L86.046 73.4139L77.5491 80.6647L75.3965 45.5438H71.6578L69.1654 81.1178L60.2152 73.4139L58.969 74.6601L68.9388 84.29L67.6926 101.624L56.1367 91.7674L54.0974 93.8067L67.3527 108.535L64.747 145.808H81.6276L79.3618 108.195L92.2772 93.8067Z" fill="#65320B"/>
</svg>
